<svg xmlns="http://www.w3.org/2000/svg" viewBox="0 0 273.6 323.03"><path d="M221.63.66H37.75v45.79l-.05.56-.11.57-1.83 2.49c-.62 2.17-1.25 4.33-1.87 6.5l-1.64.93-2.31.37-1.23-.06-1.08-.48-.88-.76-.59-.73-.44-.71-1.06-2.36-.35-.56-.45-.58-.52-.54-.41-.25-.44-.16h-.63l-.32.06-.28.09-.25.11-1.21.73-.28.1-.32.05h-.72l-.62-.22-.49-.31-.4-.32-.25-.16-.18-.07-2.52-.75h-.44l-.4.1-.73.3-2.74.71-1.53 1-1.58.73-.2.2-.19.19-.33.47-.14.27-.07.49v.65l.16 1.34v.65l-.2.64-.8.82.08 1.61.49 1.54.68 1.35 1.86 2.41.3.52.1.67-.18.63-.83 1.48-.25.86-.05 3.21.14 1.58.23 1.17 1.66 4.2.3.93L9 81.97l.3 2.5-1 2.8.8 2.31.86 2.76 1.5 3 .46 1.36-.07 1.55.12 1.47.61 2.75.23 2.3v1.22l-.44 2.28-.2.19-.55.28-.66.14h-.81l-.48.22-.15.78.21.53.89 1 .18.79-.18.54-1.1 1.45.45 1.86c.19 2.59.39 5.19.58 7.78l.33.68.74.27.67.34.53.79.38.91.18.7.09 1.6.59 1.09 1 .62 1.28.2 3.08 6.31.21.24.16.25.06.46-.06 1.35.06.37.57.93.62.49.52.57.22 1.16h.08l.47.57-.21.84-.26.84h0v.54l.15.69.19.37.24.27.31.09h.84l.19.07.19.16.36.41.23.19.94.61.24.21.7.84 3.93 2.86.81.44.45.39.55.61 1.51 1v.76l.27 1.19-.39.77-1.42 1.03-1.58 1.55-1.42 1.93-.93.25-4.8 3.43-1.71.54-.76.79-.49 1.06-.4 2.41-.54 1.09-.74.92-.78.77-1.87 1.24-.73.78-.29 1.25.15.67.39.63.92 1.08.06.5-.37.52-.86.69.09.87v1.44l.18 1.36.58.62.16.29v1.32l-.16.31-.25.28.2.62.51 1-.31.82-.55.64-.52.81-.22 1.38v1.21l-.05.64-.15.26-.41.34v.75l.25 1.22-.17.75-.15.38-.64.83-.93.94-.48.58-.45 1.38-1.78 3.31-.84.64-1.16.35-2.32.16-.44.3.21.65.48.71.39.44.27.62-.18.47-.56.61-.45 1.56.1.84 1.47 1.68.33.76.48 3.24-.25 2.43-.71 2.1-.16 2 1.41 2 1.86.74 4.28.31 1.64.9 1.32 1.91.18.71v.54l-.1.54-.06.7.74 3.57-.13 1.21-.54.72-1.75 1.22-.6.73-.18 1v1l-.05 1-.46.83-2 .47-4.94-1-1.73 1.19c-.18.7-.36 1.4-.53 2.1l-.39 1-.55.93h0l-.35.4-1.07.93h0l-.24.37-.75 1.48.4 1.14-.06 1.22-.66 2.27h0l-.59.62h0l.25.09 1.74.63 23.86 8.82 27.64 10 25.22 9.15 21.95 8 27 9.78 26.76 9.67c7.52 2.72 15 5.61 22.49 8.41l2.86.35h92.35V.7h-25q-13.15-.05-26.4-.04z" fill="#4e2564" stroke="#4e2564"/></svg>