<svg width="105" height="73" xmlns="http://www.w3.org/2000/svg"><path d="M8.817 1.503L.29 18.643c-.762 1.533.05 3.367 1.672 3.834l32.773 9.42a2.714 2.714 0 003.064-1.217L53 5.338 11.566.018a2.702 2.702 0 00-2.749 1.485zm95.902 17.132l-8.53-17.13A2.701 2.701 0 0093.423.024L52 5.338l15.188 25.343a2.715 2.715 0 003.064 1.217l32.777-9.415a2.749 2.749 0 001.69-3.848zM69.34 36.3c-2.772 0-5.38-1.475-6.792-3.834L52 15 41.467 32.467a7.982 7.982 0 01-6.808 3.85 7.555 7.555 0 01-2.182-.311L10 29.583v29.166a5.228 5.228 0 003.97 5.08l35.47 8.864c1.674.41 3.43.41 5.087 0l35.503-8.865a5.256 5.256 0 003.97-5.08V29.584L71.523 35.99a7.555 7.555 0 01-2.182.31z" fill="#0EAD69"/></svg>