<?xml version="1.0" encoding="UTF-8"?>
<svg width="105px" height="73px" viewBox="0 0 105 73" version="1.1" xmlns="http://www.w3.org/2000/svg" xmlns:xlink="http://www.w3.org/1999/xlink">
    <!-- Generator: Sketch 63.1 (92452) - https://sketch.com -->
    <title>Shape</title>
    <desc>Created with Sketch.</desc>
    <g id="Page-1" stroke="none" stroke-width="1" fill="none" fill-rule="evenodd">
        <g id="Home-v2" transform="translate(-296.000000, -1477.000000)" fill="#0EAD69" fill-rule="nonzero">
            <g id="Group-3" transform="translate(198.000000, 1365.000000)">
                <path d="M106.817094,113.502727 L98.2885345,130.642551 C97.5267603,132.176465 98.3382155,134.010493 99.9611258,134.477337 L132.733979,143.89757 C133.90976,144.23103 135.168344,143.730841 135.797636,142.680443 L151,117.337513 L109.566105,112.018832 C108.423444,111.885448 107.330464,112.469003 106.817094,113.502727 Z M202.718763,130.634514 L194.189022,113.505758 C193.675582,112.472701 192.565887,111.872861 191.423068,112.022821 L150,117.338067 L165.187906,142.681295 C165.817285,143.731014 167.076043,144.230881 168.251988,143.897637 L201.029377,134.483486 C202.669075,134.000281 203.46408,132.167438 202.718763,130.634514 Z M167.341406,148.300939 C164.56875,148.300939 161.960156,146.826259 160.549219,144.46677 L150,127 L139.467188,144.46677 C138.039844,146.842644 135.43125,148.317325 132.658594,148.317325 C131.920313,148.317325 131.182031,148.219013 130.476562,148.006003 L108,141.582951 L108,170.748852 C108,173.157497 109.640625,175.25482 111.970313,175.828307 L147.440625,184.692775 C149.114062,185.102408 150.869531,185.102408 152.526563,184.692775 L188.029687,175.828307 C190.359375,175.238435 192,173.141112 192,170.748852 L192,141.582951 L169.523438,147.989618 C168.817969,148.202627 168.079688,148.300939 167.341406,148.300939 Z" id="Shape"></path>
            </g>
        </g>
    </g>
</svg>