<svg xmlns="http://www.w3.org/2000/svg" viewBox="0 0 309.82 296.42"><path d="M256.92 289.24h-.31l-.16.15.12.31.13.16.37.25.32.42.08-.22-.2-.66zm-3.88 2.17l.11.14.29.19.16-.36-.29-.17zm1.88-51.57l-.47.31v.22l1.08.43.31-.07.29-.32-.15-.31-.47-.1-.23.07-.17.09-.1-.2zm-.38 48.33l-1.21-.95-.29-.05-.12-.07-.12-.16 2.7 4.18.06 1.33.9-.68-.6-1.76zm-1.23-48.51l.45.54.14.14.15.07v-.13l.11-.13.15-.2.24-.17.42-.05.27-.13-.11-.28-.29-.22-.28-.14-.73-.58-.28-.28-.71-.35-.45.39v.44l.06.27v1h.27l.32-.31zm-1.45-.76l.12-.3-.12-.31-.1-.17-.08-.38-.29-.69-.38-.31-.64.12-.18.1-.36.08-.55.27-.12.5.19.26.12.12v.18h.05l.07-.3v-.39l.21-.16.19.15.12.16h.64l.22.32.13.25.17.26.28.28zm.22 51.36h-.3l-.09.14h.14l-.05.08-.27.22.05.31.47.41.09.19h.22l.09-.44-.11-.5zm7.45.41l-.51.62.07.08.39-.21.33-.32-.07-.18zm23.91-19.32l.57.34-.15-.27zm-1.36-1.51l.22.35.07-.36zm1.33.71l-.17-.11-.06.45.12-.06h.16zm-17.77 18.14l-.83.38h1.31l.45.27.21.66.21-.6.26-.42.36-.3 1-.39.11-.13v-.31l-.88.13zm15.67-12.79v.29l.28-.23zm-30.64 14.22l-.14-.15-.3-.24-.31-.15h-.25l-.19-.12h-.14l-.17.47v.59l.16.38.1.1.11.08.19.05.17-.11.21-.06.25.08.23.24.17.32.12-.19-.07-.82zm31.06-8.2l-.35.18-.25.25-.1.28h.19l.63-.41.3-.22.47-.54-.06-.21zm-3 1.62l-.25.24-.11-.07v-.32l.07-.43-1.82 1.3-.41.49 1.49-.11.67-.18.35-.31.21-.28v-.33zm-9.77 4.91l3-1.29.59-.54.51-.09.17-.09.16-.15v-.28l-1.28.28zm11.15-14.18l.28.45v-.23l-.14-.38zm-38.35-37.71l.11.22.11.3.24.12.53.07.21-.25.5-.87-.15-.47-.52-.19-.51.08h-.8l-.09.41.08.27.09.11zm-22.15-35.9l-.05-1.09-.26-.23-.13-.07h-.2l.52 2.13.35.92.55 1-.15-1zM123.76 55.61l-1 .61-1.62.86-.32.39 2.28-.49.92-.51.4-.92-.29-.1zm80.09 112.75l-1-1.82-.4-.34-.68-.33.18.57.49.78.29.35.34.71 1.73 2 .71.55-.15-.7zm15.19 28.31l-.21-1-.44-1.05-.2-.31h-.12l-.24.28.39.84.13 2.21.34 1 .3-1zM187.21 87.01l-.21-.28-.29-.21-.3.26v.65l.35.19.52-.25.29-.11-.13-.07zm-68.79-27.74l-.54.18-.19.08-.15.22-.17.21-.32.09-.43.07-.1.17v.21l-.13.19-8.68 4.18-1.8.45-.91.06-1.11-.68-.66-.16 1.06.73.9.28h2.38l.87-.26 2.48-1.44.84-.73 4.06-1.74 2.42-1.9.93-.37v-.19l.33-.32.23-.1v-.38l-.52.27zm174.85 88.44l1.17 3.4.76 1.33.09.4.08.56.36.92.21 1.38.29.64.37.59.36.77 1.68 6.91.52 1.45.06.59.12.25.56.45.12.22.16.66 2.48 5.46.43 1.78.83 1 .59 1.3-.18-1.06-6.95-18.73-.14-.73-.07-.94-.18-.95-.58-1.71-1.65-2.9-.83-1.87-.32-1.87-.12-.17-.1-.09-.07-.14v-.22l-.31.09-.11.09-.14.15zM39.48 27.58l-1.41.36-.27-.32-1 .41-4.38.59-1.78-.06-.63.08-1.12.43-.37.16-1 .32h-2.91l-2.38.84-4.72.8-3.31.07-.75.28 2.25.29 27.7-3.53.45.2.46.08.4-.08.35-.2-3.9-.51zm64 35l.23-.23-.09-.51-.07-.05h-.52l-.53-.2-1-.15-.59.5-.76.06-1.68-.25.42.36.82.33.43.24.28.32.28.43.31.39.36.16.87.32h.52l.21-.47.09-.43.22-.42zm122.9 147.84l-.78.07-1.35-.3-.8-.34-.62-.49-.49-.7-.34-.94-.11-.5-.16-.44-.22-.36-.36-.28.18 1.4.39 1.42.29.68.37.49.45.37 2.47 1.44.62.14.7-.23 1-.87.77-.17-1.7-.92zm17.14 83.56l-1.11.3h-.48l-.38-.33h-.26l-.19.27-.09.25v.23l.23.22v.28l-.41.46-.18.14 3.1-.88-.18-.76zm-3.26 1.26l-.17-.16-.22-.13h-.25l-.83.73-.32.15h-.43l-.43-.14-.35.09-.17.7 1.23-.17.61-.18.39-.27.17-.27.13-.33.17.26v-.24l.1.23.11.19.14.12.23.06-.06-.34zm44.52-22.63l.18-.12-.11-.26-.19.12zM248 290.04h-.24l-.07-.07v-.22h-.25l-.28.94h.41l.28.11.06.17-.22.26v.33l.74-.06.43.24.13.44-.19.6h-.25l-.22-.53-.53-.35-1.21-.34.24.31.26.22.6.38-.3.39-.14.08-.09.14-.25.18-.9.44-.4-.25-.47.18-.8.68v.3l2.91-.83 1.4-.58 1-.73v-.35l-1.4-1.63zm.31-54.26l-.27-.32-.51-.05-.11.38.1.27.19.2.26.14.05.39-.09.69.12.18.37-.78.12-.35-.09-.29-.21-.23-.08-.13zm-23.87-35.36l-.79-.82-.82-.3h-.55l.53 1.32.76 1.45.55 1.39-.17 1.13.53.88.61 2.23.54.92.55.2v-.8l-.29-2.32-.32-.67-.63-1-.48-1 .4-1.63zm.21 93.7l-.51-.15-.46.11-.11.13h.45l.28.16.34.19.32.63.05.25.11-.44-.08-.48zm-.37 1.84v.12l.41-.12.21-.17h-.2zm41.61-34.47l.33.26.39.24.11-.44.09-.2v-.19l-.11-.34-.34-.06-.46.11h-.16l.08-.1-.24-.07-.24.24zm-64-162.65l.29.07.14-.1v-.09h-.14l-.14-.1-.21-.09h-.23l-.15.1.08.07h.13zm-5.13-9.67v-.22l-.19-.12h-.19l-.22.1-.07.34.14.17.27-.08zm4.31 14.68l.08.26.16.16v.18l-.16.24v.12l.19.05h.42l.34-.29v-.45l-.26-.35-.33-.17h-.29zm-1.31-3.66l-.08.25.19.11v-.12zm-.49 3.22l-.14.07v.15l.13-.06zm3.56 11.48l.12-.07v-.1l-.17-.31h-.36l.21.14.13.2v.08zm-2.29-8.13h.17l.16-.1v-.09l-.2-.05-.21.16zm-.28-7h-.12v.22l.17-.16.11.09v.1l.28-.3-.17-.15h-.17l.11.12v.05zm-.5 2.44l.08.13.34-.18h.17l.11.06.17.06.13-.15-.14-.09-.36-.11-.34.08zm1.59-2.22l.49-.1h.55v-.09l-.16-.15-.2-.09h-.2l-.26.06-.26.17zm84.81 13.75l-.68-1.38h-.57l-.51.22-.9.67-.86.52-.24.32-.26.76h-.87l-.31 1.26.1 1.51.37.73.35 3.72.2.86.59 1 1.45 4.41.61 1.26-.07-.68-.3-.75-.36-.91-.08-.54v-.43l.19-.83.25-5.65.35-1.75 1.27-2.88zm-83-14.49l-.4-.17-.26.11.42.29-.05.22.06.22v.21l.09.23.29.22.1-.14v-.14l-.07-.11v-.63zM285 130.55l.12.5.06.56h.3l-.12-.42-.68-1.49zm-82.43-19.63l.14.1.1.05v-.29l-.05-.18-.65-.06-.06.06.19.06zm-.75-1.42l-.09-.31-.08.1zm.46-1.79l-.16-.17v.21h.11zm.67-2.45l-.31-.07-.34.13.09.21.74-.18zm-1.05.73l-.23-.06-.24.1v.17l.15.08-.12.06h-.3v.15l.59.22v.18l.16.12h.24l.21-.34v-.55l-.28-.12zm65.24 156.49l.16.59.32.53.32.12.29-.2.13-.28.36-.54-.12-.48-.19-.08-.5-.11-.54.07zm22.2 4.94h-.14l-.06.17-.2.06-.12.17h.05l.3-.06zm2.34 3.6l-.12-.62-.17.44-.3.23-.06.18-.1.05-.09.17.09.13.52-.55zm11.43-17.22l-.12.22-.65 2.6-.35.73-.55.44.12.05h.09l.06.06.58-.54.55-1 .39-1 .16-1 .07-.19.07-.37-.06-.22zm1.26-10.5l-.16.24-.23.21-.32.2v.28l.18.05.11.07.11.09.16.09-.43.41-.07.47.26.36h.52l.19-.28.08-2.51h-.27zm-17.33 25.48l.15-.31-.28-.17-.3-.12-.17.21.13.19zm-2.54 2.26l-.21.06v.12l.17.18.06.25.12.06.08.14.09-.19v-.32l-.12-.17zm-11.5-6.31l.14.28.07.65h.08l.16-.28.08-.39-.22-.57-.25-.28-.24.26-.05.35.08.05zm26.29-4.1l-1.1 1.6-.54.34-1.3.32-.26.28.14.51.33.24.3.3.09.65-.38.94-1.51 1.62-.78 2-1.84-.38-.25.79.57-.23.47.17.23.42-.15.53-.32-.16h-.14v.17l.19.33-.36.54-.45.23-.86.12.14.57-.26.54-1 1.05-.58 1-.32.23-.66.07-.22.26-.48 1.57-.47.19-.61.14-.39.24.22.5h.8l.92-.92 1.51-2 1.27-1.1.31-.46.37-1.05.27-.48.45.14.44-.26 3.32-3.27v-.28l-.18-.69.5-1.09 1.34-1.92 1.19-1.54.21-.45.08-.35.21-.52.26-.52.28-.29.17-.1.15-.13.14-.17.13-.25-.89-.36zm-13.67 18.23l-1.29 1.57.41-.16.86-.87.33-.53v-.26zm-19.68-18.74l-.24.13-.13.21.3.1 1.44.1.05-.13-.65-.11zm2.4 1.8l.37-.29-.1-.17-.71-.19-.22.07-.09.24.11.27.19.18zm41.42-63.29l-.24-1.42-.54-.71v-.38l.63-.66v-1.22l-1.06-4.36-.27-.47-.38-.3-.91-.26-.51-.24v-.28l.48-.23.48-.06.42-.14.29-.5-.06-.54-.77-1.66-.84-2.47-1-2-.12-.66-.27-.72-1.14-.58-.27-.59-1.54-1.73-.32.05-.92.29-.35-.13-.65-.41-.29-.08-1-1.21-.24-.38h.54l.35.18.25.26.28.22.91.48 1.63.41.47.41.36.92v-.71l-6-14.56-1.44-6.94-13.07-29-.32-1.09-1.2-2.45-.76-2.64-.37-.94-1-4.46-.16-1.9-.16-.9-1.26-2.46.31-.28v-.35l-.46-1.12-.66-4.22.8.35 1.35 1.33 1.75.65.12.81-.31.94-.35.7-.3-.29-.3.66-.16.89v.92l.17.68.58.67.73.35 2.61.44h.36l.49-.15v-.17l-.05-.66v-.18h.27l.22.13.21.16.13.07.81-.07.55.21.36.45.26.7.3 1.83v1.83l-1.23 5.84-.08 7.94.38 1.94 1.22 3.66 2.41 4.39.39 1.6 1.21 1.42.17.32.13.43 1 1.91v-2l-3.29-5-.85-2-.13-.74-.59-1.31-.87-4.68-.19-2.53.11-1-.31-.31.29-.59v-4.52l.13-.24.33-.16.31-.35.22-.38.09-.25.38-.08.72-.84.5-1-.61-.91-1-3-2.43-4.31-2.16-3.06-2.61-4.76-5.51-8.76-.21-.88-.36-.84-.71-.53-.52-.53.23-.81-3.77-7-2.66-7.37-2.45-5.48-1.81-3.37-.26-.86-.18-1-.06-.93-.18-.88-1.24-2.19-.57-2.8-.41-.42-.26-.5-.23-2.31-.21-.68.31-.35-.41-.18-.27-.26-.07-.35.16-.45-.23-.07-.37-.19-.23-.07.24-1.48-1.38-5.41-.25-3.56-.18-.9-.88-1.62-.36-.85-1.32-5.12-.05-1.94.28-2.1-.13-.44-.29-.32-.29-.25-.12-.27.14-1.51-.14-.6-.21-.44-.19-.17-.2-.11-.24-.25-.2-.37-.26-.72-.25-.38-1.11-.92v-.19l-.7-.26-.31-.67-.06-.84.1-.82v-1.07l.08-.4.36-.15.39.15.31.37.21.47.07.47v1.1l.11.86.33.66.66.48-.16-1.36.16-4 .3-1.26.07-.81-.22-.34-.14-.11v-.22l-.07-.22-.31-.11-.4.06-.57.23-.25.05-1-.39v-.37l-.3-.07-.74-.21-1.32.4h-.39l-1.69-.38-.41-.19-.55-.34h-.29l-.42.06h-.45l-2-.59-.6-.27-.41-.25-.27-.25-.39-.28-.58-.16h-.37l-.37.05-3.63-1.64-.55-.31-.31-.24-.61-.38-.36-.09h-1.45l-.34.1-.21.18-.1.19-.07.3v.41l-.05.23-.13.22-.18.14-.36.07h-.34l-.43-.13-.2.05-.12.17-.09.5v.26l-.13.23-.48.48-.12.18-.08.21-.06.21v.46l.14 1.17v.27l-.05.31-.28 1.07v.82l.08.37.13.44.19.41.79 1.12.18.35.06.23.05.47v.55l-.56 3.13-.82 2.94-.1.61v.29l.08 1.36v.25l-.08.37-.16.18-.22.11-1.12.31h-.38l-.76-.24h-.28l-1.89.22h-.39l-.28-.09-.22-.15-.15-.17-.24-.4-.61-1.75-.08-.42v-.51l.11-.55.2-.69v-.71l-.06-.21-.2-.42-.18-.3-1-1.25-.22-.38v-.39l.07-.18.17-.3.12-.3v-.15l-.09-.07-1.68-.1-1.5-.12-1.91-.13-2.3-.16-2.67-.17-3-.21-3.29-.23-3.56-.24-3.79-.26-4-.27-4.18-.29-4.33-.3-4.43-.3-4.52-.31-4.56-.32-4.59-.31-4.59-.31-4.54-.32-4.47-.3-4.37-.3-4.24-.29-4.07-.29-3.88-.26-3.66-.24-3.41-.24-3.12-.22-2.79-.19-2.46-.17-2.08-.14-1.68-.11-1.23-.09h-1.02l-1.29-.08h-.36l-1.82-1.93-.61-3.11-.05-2-.3-1.11-.56-1.12-.34-.35-.33-1.42-.23-.52-.25-.25-.71-.51-.18-.21V.29l.08-.16H1.35l-.26.66.07 2.22-.06.23-.85 1.83-.15.48-.06.29v.29l.06.37.17.39.41.64.47.59 2 1.94.22.35.84 1.56.58.81.58.46 3.28 2 .32.29.15.18.05.47v.69l-.27 1.65-.32 1.23-.7 1.26-.16.41v.2l.09.76.76 2.25.68.4.29.23.35.14.82-.09.35.09.35.46.2.65v.56l-.37.26-1 .22-.76.59-1.19 1.44v.32l.49.36v.46l-.31.48-.47.37-.49.12h-1l-.5.2.72.25.69.36-1.5.21-.47.14-.36.25-.26.28-.27.24-.47.2v.3l.43-.2.9-.25.34.11.7-.41 5.79-1.22.92-.41-.15-.86.41-.14 1-.16.35-.19.16-.46-.18-1.21.1-.45.76-.47.93-.08.78-.28.34-1.1.17.13.05.05.08.11h.25l1-1.82.16-.58-.18-.83-.76-1.19-.18-.58-.14-1.51.14-.5.59-.09.47.28.22.49.29.41.7.1-.09.22-.1.55-.08.22.89.12.35.68.14.83.27.62-.23.65-.07.78.23.54h.63l.41-.51.28-1.62.51-1.1.88-2.56.21-.34v-.47l-.38-.83.86.5.45 1 .42.63.77-.51.23.29v.36l-1.39.62-.59.51-.24.68.06.46.2.22.3.08h.41l.18.2.56.92.36.2.69.07.91.24.85.42.49.56-.06.51-.59-.2-.76-.41-.54-.22-2.65 2.17-.74.14h-2.23l-2.45.67-1.53.72-.34.08-.25.21-.17.52 2-.26 4.05-1.14 6.34-.86h2.29l1.16-.2.9-.45.86.36 3.32-.36 3.17.19.48-.34v-.72l.05-.2.95.14.51-.16.51-.68.36-.16h.53l.53-.18.48-.24.42-.32.09-.35-.21-1.18v-.56l.35.62.4.45.39.07.28-.52.3-.24.39-.1h1l-.93 1.26-.18.7.56.6.72.09.56-.34.51-.46.58-.23.79-.09 1.77-.48.79-.09 1.73.3.82-.06.66-.6.5 1.26.53.45.72-.16 1.06-.53v.78l-.3.23-.2.22.23.71 1.24 1.35V28l.33.35V29l-.4.35-.72-.55-.41-.24L58.5 28l-1.11-.88-.58-.36-.56-.07-.52.28.1.34.49.26.63.11.19.13-.12.3-.26.32-.26.19-1.84-.5-.45-.4-.3-.53-.17-.54v.05l-.05-.07h-.19l-.23.48-.22.65-.3.55-.51.25-2.67-.62-3.28-.1-.65-.22v.35l1.06.7 4.9.56 7 1.93 5.18 1.59 4.73 2.48L72 36.96l4.91 3.6 1 .25-.31-.45-.26-.3.33-.09.52.55.31-.68-.69-.63-.74-.46-.33-.58.62-.89-.51-.51-.39-.53-.45-.42-.75-.17-.88.15-.54.24h-.46l-.63-.53-.29-.84.42-.62.74-.42.68-.19 1.29-.15.47-.34.47-.83.49 1 .53.76.37.69v.81l.49.16.28-.38.29-.51.46-.27.57-.2.6-.37.47-.06.19.63.72-.49 1-1.7.4-.37.41.23.36.56.52 1.14-1-.06-1.59 1.9-1-.39-.62.1-1.71 2.14-.87.5.33.47.28.32.34.25 1.42.7.39.31.31.55.7-.2.94.38.89.59.55.48.09-.24.11-.19.07-.21v-.32l.76.3.63-.21.64-.33h.77v.29l-.59.5-.16.72.29.42.73-.35.16.69-.08 1.59.36.79.61.29.33-.41.49-1.06.37-.21v.27l.17.2h.99l.28.14.19.51-.48.24-.65.18-.33.36-.65.37-1.44-.59-1.44-1.06-.65-1-.71-.69-2.66-.82v-.87l-2.48-.44-.32.1.34.54 2 2 .54.25 5.21 4.27h-.81l-.95-.61-.85-.86-.45-.79h-.32l.1.43.11.32.15.28.21.28 1.19 1 4.68 2.19.67.55.73.76.58.86.24.87.29.67 1.3 1.7.39 1-.18 3.29.05.54.14.19-.29.44-.47.43-.38.22h-.57l-.31-.19-1.02-1.55-.45-1-.29-1.06-.11-1.07.11-3.23-.11-.46-.61 1 .12 2.4.78 3.93.37.68.68.7.8.38 1.56-.7h.9l.95.16h.88L102.1 60l1.65-.07 3.24.35.54-.31.82-1.26 1-.15.71-1.19.54-.31.63-.23.52-.44.55-.25.66.31-1.21 2-.19.38.19.82.46-.16.6-.51.55-.3.79-.17.66-.39 1-.75.62-.19 1.1-.14.51-.28 2.05-2 1.23-.87 2-.56 1.69-1.39 2.22-1.29.46.48.67-.06.76-.27.8-.15 1.69.15 1.53.51v.29l-.17.17-.39.5 1.16-.7.53-1.08-.29-1-1.27-.45-2.51-.32-.39-.24-.05-.36-.14-.45h-.66l.52-.73.61.19.79.53 1.38.41 1 .43.57.1.09-.19-.82-1-.26-.43-.08.14-.3.31-.11.19-.18-.43-.12-.24.11-.37.06-.11v-.09l-.15-.39.3-.35.16.15.1.07.27.13v-.75l.26-.38 1.46-.81.48-.1 1.29.09.06-.22.24-.49.34-.53.36-.33h.22l.2.11.13.12v.07h.84l.24-.11.23-.43.27-.09h.24l.11.12.07.12.12.06.32.28.17.57.22.41.41-.17.84-.55 2.94-.25 1.31-.55.8-.08 3 2.46 3.84 2.44 1.83.79 1-.2.87 1 .5.41.71.17.5.28 1.79 1.36.38.46.35.59 1.53 1.61.35 1 .18.25.39.23.38.29.17.48.22 1.12v.48l.25.78.61.91.74.81.66.57 1.39.64.28.22.48.47.35.26.83.34.81.13.7.22.48.59.17 1-.06 1.08-.27.94-.43.53.24.45.19.68.05.66-.2.43 1 .77.53.27.41-.06 2.07 2.45 1.12.91 1-.17.85.71.7.76 1.25 1.71.7 1.38.11.08.06 1 .09.46.15.3.38.43.65.41.74.31.62.13.58.25.38.59.27.66.3.4-.47.45v.42l.31.31.59.12.22.26v.54l.17.54.69.25h.53l.28-.05.72-.27.61-.11h1.15l.47-.15.72.45.91.38h.93l.81-.57.18.26.48.46.18.25.32-.22.82-.41v.94l.1.71.32.54.7.38-.87.53.46.79 1.52 1.21v1.6l-.12.46-.2.48.23.37.48.22h.48l-.27.93.22.8 1.71 2.13.29.24.31.12.78.11.28.12.43.6.11.67-.3 2.24v.5l.3 1.37-1-1.28-.65-.37-.57.7.11.42.81 1 .2.61.14.17h.27l.29.07.13.38v1.67l.09.45.12.33v.31l-.33.46-.15.34v.41l.12.39.15.31-.4.81-.15 4-.43 1.38-.08.54-.05 2.5-.88 1.55v.62l-.48.55-1.47 3.89.29-.1.12-.07.16-.14.08.6-.33.65-.87 1.29-.32 1.3-.25.62-.54.6-.38-.26-.19.62-.05.9v.63l.22 1.15.24.7.38.67-.37.4-.11.57-.06 1.22-.89 4.2-1.36 3.7-.21-.66.09-.81.3-.79.39-.6-.43.41-.45.65-.36.71-.15.85.08.89.39 1.31.08.61.57 1.08 2.49 2.45.56 1.51.13.76.32 1 .46.82.52.11v-.58l-.28-1-.6-1.57-.48-.84-2.43-2.64-.32-.65.15-.63.77.77 1.59 1.26.72.85.74 1.1.49.31.88.12.08.2-.05 1 .09.39.23.2.28.08h.75l.66-.27.46-.68.14-.83-.29-.74.51-1.42v-.3l.11-.23.56-.71.17-.45v-.55l-.22-1-.06-.54 1.3-.79.36-.28-1.74.22-1.57-.62-1.52-.88-1.56-.64.64-.77 1.89-.53.5-.58h-1.4l-.38-.09v-.22l.24-.34v-.2l.2-.51.05-.36-.07-.33-.36-.72-.1-.4 1.65 1.61v-.63h.25l.34.49.5.43 1.14.62v.34l-.84.31v.35h1.28l1.07.24.73.59.26 1.17-.26 2.22.06 1.15.5.88.37.09 1.44.06.19-.46-.07-.47-.25-.65v-1.68l.17-.74.36-.54.84-.48.71.07.49.55.38 1.91.8 1.91.12 1.05-.33.7-1.33 1.48-.29.47-1.14.8-.19.31-.64 1.28-.29.19-.37.12-.32.24-.14.53-.12.36-1.13.9-.55.94-.29 1-.39.82-.88.59.17.44.1.17-.48.56.52-.22.65-.1-.25.55-.56.41-1.19.33-.64.33.59.13.5.18.44.27.42.37-.86.05-1.06-.53-1-.31-.71.79.25.28.28.21.3.05.29-.19h.25v.45l-.08.41-.19.37-.29.32-.45-.46-1.08-.5-.42-.32-.21-.36-.63-1.51h-.28l.15.73.78 2.07.47.66.64.28 1.51.26 1.58 1.19.77.4.58.6.45 2.21.85 1.74.05 1.15h-.28l-.13-.28-.13-.13-.15-.09-.18-.15v1l.51.89.68.9.48 1h.3v-.63l.42.3.28.5.14.65v.77l-.22-.23-.14-.23-.19-.51.22 1 1 1.89.41 1.62 3.7 7.37.26.9.17.17.21.16.49.29-.19-.69-.54-1.07-.14-.72 1.11 1.21 1.19 3.89 1.22.83h.37l.29.06.58.21.32.2.39.37.28.08.24-.05.12-.11.07-.1h.13l.2.09.38.46.13.08.26-.17.3-.33.24-.32v-.16l.34.49.15 1.29.36-.19.27-.61v-.67l-.36-2-.66-1.68-.21-.35-.25-.29-.57-1.4-.43-.51-.3.34-.45-.41-1.18-1.48-.48-.85-.12-.37.84.42.46.51.81 1.38.6.16.76-.28.41-.13-.14.78.74.87.45.39.19-.15.24-.43.51-.08.49-.16.18-.72.94.26.74-.15.7-.29 1.66-.34.89-.85.69-.22-.51 1.4-.23.33-.38.2-.9.19-2 1.22-.8.61v.59l.82.7.56.28.3.42.1 1.11-.09 1-1 5.28v1l.19.7.71 1.62.21.81-.06 1.06-.21.67-.07.55.34.79.63.71h.51l.57-.35.81-.35v.68l.4-.2.95-.28.33-.17.16-.24 1.23-3.52.45-.73 1.34-1.43.78-.65.67-.28.78-.11 1-.58.6-.24-.17.55-.21.41-.32.32-.4.3-.43-.24-.46.2-.36.39-.15.42-1.78 1.78-.47.58.16 1.15-.76 1.24-1.09 1.06-1.11.75-.18.21-.18.17-.31.07-.29-.13-.28-.51h-.17l-.24.41-.11.67v.63l.1.44.25-.33.23.23h.12l.55-.27 2.22 1.24h.84l.19.12.18.21.27.13.2-.13.16-.39-.15-1.13v-.67l.28.7.81 1.44.29.67.21.89.07 2.82h-.39v-.3h-.27l.14.74 1.22 2.23v.45l-.25 1.55.35 3.54.73 3.24h.3v-.97l.1-.45.17-.42.69 3.24.65 1.15 1.16.91-.35.42.11.56.39.52.44.34.39.1.92-.12h.61l-.14.53-.31.61-.4.5-.37.22-.46-.24-.45-.47-.48-.3-.57.23.26 1.32.16.35.4.47.15.1h.55v-.31l.23-.2.09-.1.15-.34.13-.25.28.39.41.22.48.09.51-.11.39-.25.31-.63.41-.33.23.53.39.37.46.17.34-.11.07.29.1.1v.14l-.17.33.33-.13.47-.4.17-.08.36.1.56.42.84.36.47.45.43.2.55-.58.42.38.53.74.47.4.5.21 1.2.21.52.22 1 .69 1 .87.78 1.2.31.35-1.07.81-.38.5.51.22.18.26.5 1.2.26.39.35.06 1.37.1.05.81.14.51.34.36v.63l.85 1.55.43 2 .16.44.48.19.92-.22.39.18.06.32-.16.35-.24.28-.76.51.46.89 1.32 1.49.58 1.73.05.43.22.93v.48l.31.47 1.88 1.51 1.55.3.23.1.71.44 1.43.24.75.4 2.32 2.46.27.79-.41 1-.71.54-.88.24h-.89l-.72-.3v-.22l.23-.07.38-.19.23-.07v-.31l-3.17-1.36-.53-.37h-.13l-.71-1.37-.28-.36-.41-.41-.48-.33-.49-.09.25-.65-.76.6-.67 1.48-.44 1.76-.06 1.4.47 1.37.68 1.41 1.91 1.84.64.15 1.93-.43 1.64-.16 1.33-.29h1.56l.76-.14.94-1 .17-.06 1.14-.74.61.57 1.21.26-.14.36v.2l.36.14h.19l.13-.13.15-.37.21.25.22.15.21.1.2.14.05-.21.06-.07.09-.12.09-.18.4.48.65.23h.69l.49-.09.81-.78.53-.24.61.38h.25l.24-.38v-.28l-.14-.29-.08-.41.23-.15 1.5-.32-.08.19h-.07l-.12.1.64.22.37-.65.29-1 .39-.73.63-.2h1.64l.53-.07.15.29.05.14.05.18-.36.08-.2.1-.11.17-.15.29.28.15.22.19.19.25.13.31.7-.45.8.11.62.56.13 1h.3l-.13-.9-.49-.71-.74-.41-.89-.09.5-.57.82-.39h.63v.68l.56.2.8 1.16.62.51v-.43l-.52-.5-.5-.67.12-.89v-.49l.7-.8.15-.4.07-.39.19-.34 1.84-2.1 1.49-1.3.06-.55-.3-.36-.53-.29-.32-.36.3-.84.33-.63-.16-.24-.29-.18-.18-.26-.13-1 .07-.83.35-.81.67-.95.26-.77v-2.2l.15-.87 1.19-1.17.84-1.92.07-1.09.15-.43.45-.4.42-.1h.4l.42-.17.61-.86v-1.88l.51-1.2.26-1.62 1.47-1.92h.33l.13.6v1.17l-.27 2v1.88h.27l.65-13.25-.65-1v-.34l.68-.51.38-1.36 1-6.67-.13-1 .25-.67.07-.76v-1.55l.09-.69.4-1.37.34-6.15.64-.09.23-1.31zm-24.58 72.3l.06-.43-.17-.55v-.09l-.15.14-.06.46.16.49zm-13.93-6.15l.25-.19.27-.05-.25-.33h-.23v.2l-.18.22zm.74 1.27l.38.11h.07l-.05-.33.31-.16.2-.12-.09-.07v-.17l-.28-.08h-.23l.11.14-.11.21zm-67.5-105.74l-.11.14-.21.39.76-.33-.29-.17zm.5.24l.07-.09-.13.05zm-11.13 132.24v-.25zm-2-.28l.18-.12-.13-.14zm2.34.1v-.16l-.05.13zm.59-.92l-.09.05v.06h.06v-.09zm-.46 1.1l.07-.11h-.08z" fill="#4e2564"/></svg>