<svg xmlns="http://www.w3.org/2000/svg" viewBox="0 0 569.16 326.11"><path d="M58.06 80.39l-.13-.39v-.69l-.06-.26-.27-.35-.43-.65-.23-.15-.38.13-.44.58.08.66.25.65.11.56-.32.72-1.14 1-.38.72.51-.13h.48l.41.19.58.54.41.29.38.19.17-.06.08.08h.17l.17-.08.08-.11.12-1v-.51l.23-.57v-.23l-.08-.42zm42.49-7.48l-.84-.46-.58-.21.23.29.1.15v.11l.07.08.36.11.13.07.68.57.4.21h.27l-.17-.38zm4.33-1.56l-.29-.05h-.26l-.15.21.1.71.15.23h.36l.32-.16.17-.31v-.38l-.13-.37zM2.81 65.32l-.27-.33-.79-.61-.17-.35.06-.21.2-.42v-.08l-.18-.13H1.1l-.24.1-.38.11-.42.49.06.15.13.16.08.18-.19.39.06.21.13.19.08.15.14.09.31.14.11.08.11.14.1.27.09.13.12.27.18.89.18.36v1.04l.1.21.12-.22h.51l.11-.07.08-.3.33-.52.07-.29-.11-1.67zm83.78-7.56l-.2.37-.15.35v.27l.8.94.61.95v.45h.45l.34.09.25.12.24.2.19.27.07.33.22.35 1.62 1.19 1.56 1.56.92.55.46.21.43.11.19-.16v-.12l.09-.2v-.2h-.2l-.07-.07-.3-.18-.15-.14-.21-.62v-.07l-.1-.54v-2.43l-.21-.13-1.27-.07h-.41l-.35.18-.18-.17-.26-.12-.3-.06h-.31l-.19-.15v-.33l.13-.51.21-.35v-.28l-.17-.27-.12-.45-.2-.29-1.21-1.13-.4-.3-.59-.33-.09-.08h-.36l-.14.16h-.07l-.24-.13-.11-.26-.1-.18-.23.09.25 1v.37zm67.95 95.16l-.66-.87-.64-1.11-.2-.58-.48-.45-.15-.19-.16.46.14.56.24.55.25 1.08.3.56.4.49.41.36.14-.13.15.13.2.1h.2l.18-.11v-.13l-.24-.44zm-31-3.29l-.31-.14-.33.1-.25-.25-.43-.07-.5.07-.42.13-.13-.11h-.12l-.09.12v.22h.37l1.16-.14h.41l.4.1.74.35.12-.12-.29-.12zm-4.4-1.64l-.22-.17-.58-.17-.2-.22-.14-.25-.16-.19h.26v-.15l-.08-.14-.11-.11-.14-.08v.26l-.51-.13-2.44.13.06.2 1 .33.26.26.16.23.39.22.81.34.27.22.33.33.38.31.83.28.4.33.33.38.17.26.17-.29.06-.32v-.7l-1-.8zm26.43-.06l.08-.25-.05-.15-.14-.19-.18-.16-.18-.06-.36-.27-.56-1-.37.05-.08.22.25.69.11.64.1.12.12.1.12.19v.45l-.11.17.24.09.09.21v.21l.06.1.28-.06.13-.14.1-.16.17-.12-.09-.25.1-.21zm-97.92-8.61zm90.76-2.53h-.06.06zm-.26.32v.32l.15.27.45.55.5 1 .16.2.1.05h.13l.22.1.18.14.45.47.2.13.28.11h.25l.11-.27-.79-2.41-.64-.11-.56-.26-1-.65h-.05zm.19-.38h.05zm-24.43 9.23l-.23-.36-.27-.28-.28-.11-.47-.15-.16-.35.12-1.16v-.22l-.09-.1-.26-.43-.3-.93-.1-.08h-.13l-.14-.08-.12-.15-.05-.35.29-2.47.1-.11.12-.1.11-.13v-.56l-.07-.16-.06-.07v-.2l.81-2.65.09-.74-.17-.59-.28.18v.22l.19.6v.29l-.19.56-.09.46-.53 1.64-.13.87-.9 2.73-.3.49-.36.46-.35.31.56.26.17.12v-.13l-.03-.17.1-.07h.11l.08.05h.42l.2.06.14.08h.15l.25.25.14.15.15.18v.81l-.05.16-.11.06h-.25v.07l.06.13v.19h.05l.31.4.49.27.14.11.17.33.33.95.18.2.62.12.09-.13-.16-.48zm22.5-20.08l-.25.37-.07.62.11.58.33.28.17-.26v-.58l-.13-.62zm-5.21-4.89l.22.11.29-.09-.08-.2-.45-.41v-.29l.36-.71v-.28h-.21l-.62.2-.27-.05-.18.1-.28.33-.1.07h-.2l-.09.07v.56l.1.35v.32l-.25.26-.32 1.61-.13.39v.24l.11.21.33.29.48-1.73.73-1.61-.06-.07v-.29l.32.16zm-36.79-12.77l-.28-.37-.21-.28h-.22l-.09.07-.06.06-.15-.06v-.1l-.15-.09-.16-.06h-.17l-.28.15-.24.12-.12.16.12.07.21.06.45.11.53.14.48.18.19.12.15.11h.14v-.14zm77.7 22.68l-.23-.1-.92-.3-.33-.06h-2l.09.26.26.1h1.4l.16.08h.13l.49.19.64.38.59.24.31-.2-.23-.15zm-20.9-29.76l-.48-.29-.42.06.36.29.39.2.35.26.23.47h.12l-.16-.51zm-9.76-4.18h-.33l.33.12zm-.64-.12l-.26-.35-.15-.48-.07-1-.15.27-.13.42v.42l.12.3.35.26zm-30.4-27.65l.87-2 .13-.87-.21-.75-.84-1.61v-.44l.06-.12v-.08l-.16-.2-.14-.38.14-.34v-.21h-.46l-.09.13-.09.08h-1.02l-.2.09-.21.47-.32.09-.77-.05-.26.16-.21.21-.16.23-.12.25-.21.67-.15.75-.05.78.06.75.19.17.06.17-.09.22-.08.16-.08.18-.08.15-.11.06-.37.11-.3.26-.16.32v.3l.25.23.41.25.43.19.32.07.17.07.44.32.18.1.63.13.61.43.08.12.4-.07.19.07.32.14.35-.07.75-.38v-.11l-.1-.07-.08-.11v-.3zM65.52 16.43l-.56-.1-.21.83.64.74.84.37.39-.27.11.15.17.13.22.09h.29l-.3-.56-.73-.77zm304.08 163l-.12.15-.27.28-.1.2.45-.18.39-.52.21-.57-.08-.34-.17.22zM65.19 257.74l-.41.22v.21l.3.11.62-.07h.24l.12-.08.06-.09.05-.13v-.11l-.07-.05zm69-7.89l-.24-.1.09-.39-.28-.39-.43-.31-.36-.14-.68.59-.27.35-.15.41-.09.32v.13l.79.32.27.15.24.2.28.26.32-.18h.67l.23-.31v-.32l-.15-.32zm2.22-9.83l-.15-.11v.25l-.09.18-.24.4-.06.15v.18l.05.13v.05l.08-.19.2-.18.46-.32-.2-.35zM219 204.17h-.21l-.27.06-.36-.12-.44.31.26.65.6.54h.59v-1.11zm-2.42-3h-.17l-.68.26-.23-.2-.41-.12-.46-.06h-.38l-.35.37-.29.4-.06.38.34.32.34.07 1.26.05h.25l.11-.06.26-.26.59-.37.14-.13-.19-.51zm-5.53-3.32v-.11zm2.65 2.51v-.11l-.09-.07h-.07v-.2l.09-.24.41-.49-.38-.17-.3-.36-.14-.43.08-.4-.64-.24-.53-.12h-.5l-.5.29.09.38.11 1.18.09.37.23.33.32.27 1.09.6h.27l.1-.34.07-.08.14-.08zm-2.53-4l-.16-.17-.19-.46-.14-.23-.06.17-.08.1-.1.06-.14.05.06.21.05.51.08.19.18.06.2-.12.18-.21zm266.12 56.1l.55-.1.55-.23.94-.54-.37.62.62-.12.51-.41.71-.94h.27l.61-.24h.36l-.16.06-.14.08-.11.1-.08.13h.24l.21-.08.39-.26.06.07.08.06v-.53l-.09-.15-.12-.14h-.3l-.8.35-.84.24-.26.12-1.41.87-.5.11-.79.32-.2.11-.27.28-.08.12h.12zm-104.7-56.35l-.17-.35-.07-.39-.1-.35-.27-.24.11.7.28.8.42.6.53.09.16-.21-.24-.22zm175.43 64.26h-.11v.07l-.07.11v.21l.29-.15v-.24zm9.71-4.84l-.11.46-.09.18-.18.23-.3.35-.07.14h.12l.69-.93.22-.63-.17-.77zm.12-1zm.12-.31l-.07.15v.15l.37-.61-.15.16zm1-3.39l.19 1.47-.08.5.23-.4v-.45l-.14-.86zm9.44-33.32h-.09v.07l-.13.26-.28.21-.32.11h-.22l-.4.23-.24.05h-.16l-.45-.17h-.26l-.09-.05-.11-.05h-.15l-.15.07-.29.24-.13.06-.56.73-.71 1.26-.21.69-.06.76.07.41.24.76.06.36.12.17.29-.13 1-.82.17-.2.07-.12.08-.18.17-.13.17-.09.07-.1.09-.3.45-.81.21-.29.54-.43.3-.29.23-.58.64-1 .2-.26v-.19zm.26-11.61l-.2-.43-.05-.38-.15.27.18.54.35.54.35.25zm-2.65 7v-.19l.43-.94.32-1v-.75l.08-.14.1-.08.28-.09.11-.07h.17v-.24l-.09-.17v-.11l.23-.48.08-.13.38-.81.07-.09.06-.1v-.17l-.89.11-.43-.84-.14-1.16v-1.09l.16-.44v-.5l-.27-.91-.2-.08h-.46l-.37-.12h-.17l-.07.22-.19-.06-.17-.08-.11-.12-.08-.36-.08-.16-.12-.14-.08-.18-1-1.31-.5-.48-.31-.17-1.22-.38-.41.07-2 .91-.51.14-.37-.08-.17-.07-.57-.09h-.56l-.12.09-.19.2-.55.43v.23l.07.16.15.05.18-.07h-.07v-.08l.36-.11.47-.36.28-.14v.12l.1.25.13-.12.35.13.43.1h.43l.33-.17.3-.24.39-.21.43-.12h.41l.26.09.07.09v.38l.08.15v.16l-.1.17-.13.16-.24.35-.18.16-1.3.53h-.33l-.28-.14-.3-.11h-1.11l-1-.32-.39-.05-.79.1h-.34l-.16-.21h.11l.06.1h.09l.11-.05.12-.07h-.23l-.13-.12-.07-.13-.06-.07h-1.06l-1-.35-1.21-.14-.09.09.29.18.37.09h.76l-.3.13h-.3l-.57-.12h-1.07l-.59-.07-.6-.19-.54-.27-.43-.33.38.11 1.26.21.27.12.17.1h.44l.19-.06.15-.12-.06-.06-1.08-.29-1.58-.2-.75-.2-1.12-.45-.42-.05h-1.54l-.79-.2h-.42l-.4.17-.49.08-.4.13-.36.2-.08.14h.14l.73-.15.61-.32h.43l.43.09.36.13h-1.16l-.26.09-.24.16-.33.1-1 .1-.58.16h-.32l-.31-.06-.62-.25-.3-.06h-1.41l-.36.09-.65.29-.35.1-1.12.12-.35.14-1.12 1-.63.39-2.17.48-.64.25-.35.08-.79.08-1.19.34-1.54.24h-.12l-.38.17h-.37l-.43-.12-.71.08-1.47.41-3.41.32-2.5.42h-1.43l-1.94.31-1.8.62-.33.06-.31.11-1.08.75-1 .33-.56.06-.21.06-.39.17-.61.49-1.18.41-.37.28-2 1.18-.31.29-.19.29-.84 2.44-.27.79-.36.45v.12l.44-.17.35-.43.23-.51v-.54l.32-.67.25-1h.13l-.05.6-.45 1-.1.45-.12.53-.22.37-1 1.11-.18.47-.14 1.74-.41 1.52v.78l.27 1.48v.71l-.23 1v1.39l-.17.9v1.36l-.05.36v.16l.06.22.54 1 .08.31v.32l-.08.25-.15.25-.73.94-1.62 1.15-1 .94-.35.51-.34.75-.12.43v.29l.06.29v.78l-.17.75-.28 3.48-.22.59-.49.61-.6.47-.59.19-.37.25-1.42 1.71-1.4.89-.81.29-.37.18-1.48 1.28-4.52 1.85-.34.25-.71.76-.18.25-.42.47v.13h.7l.22-.06.41-.27.09.09.17-.09v-.42l.46-.38 1.17-.57 1.17-.89.43-.09-.22.55-.49.45-.55.38-.84.27-.41.29-.36.4-.25.43.35.12.51.64.36.09.13-.07v-.12l.07-.11.18-.06h.22l.15.06.3.27.36.54v.57l-.58 1.35.25-.14.86-.22.44-.22h.24l.31.12-.27.18-.71.2-.14.19-.13.09h-.3l-.6-.05-.1.11-.3.56-.16.2-.22.14-.3.13-.31.06-.28-.1-.43.25-1 .36-.42.22-.14.12-.4.44-.09.17.09.1.47-.2h.19v-.13l.06-.14v-.09h.12v.24l.13.54v.21l-.16.12-.16-.06-.13-.18v-.26l-.31.16-.42.11-.87.11h-.45l-.81-.2-.34.1-.53-.22-1.1-.28-.45-.23-.13.28.16.24.26.22.18.24h-.41l-.18-.09-.14-.15.12.35.17.27.07.26-.17.29-.22-.06-.35-.25-.34-.31-.14-.24.11-.27.45-.52v-.25l-.19-.21-.72-.2-.31-.21h.08v-.06l.25.12-.07-.22-.18-.18-.24-.14-.24-.08.23-.37-.43.16-.23-.06-.2-.16-.36-.17.11.57.38.36.5.29.48.36-.33-.07-.36-.16-.28-.2-.12-.24-.11-.08h-.24l-.4.12-.23-.05-.18-.08-.32-.25-.29.17-.09.07v-.19l.08-.16.11-.14.15-.12-.07-.1v-.26l.19.14.22.07h.23l.23-.06v-.23h-.26l-.11-.1.06-.09.24-.05h.17l.08.05h.08l.36-.28h.24l.1.15-.06.21v.19l.18.08h.71l.21-.08v.12l-.08.12h.21l.18-.15.11-.21v-.21l-.12-.12-1-.6-.64-1-.55-.23-.48.05-3.1.75-1.9.17h-2.3l-1.15.27-.3.07-1.57.63-.39.06-.82-.05h-.44l-.27.13v.23l.45.83.1.37-.12.75v.38l.14.28-.12.5-.23-.48-.15-1.74-.23-.56-.08-.12h-.17l-.16.08-.08.19-.14.23-.32.29-1.77 1.2-.72.32-.76.23-2.94.14-.38.09-.28.16v.16l.38.07.4.13.14.29-.12.1-.36.06.14.11-.13.13-.25.37h-.12v-.25l.2-.34v-.27l-.16.12-.26.14-.28.1h-.17l-.12-.16v-.41l-.08-.15.17-.09.14-.14.18-.27v-.11l-2.69.09-2.5-.07-1.93.22-.8.17-3.32 1.2-.21.16-.15.19-.34.11-.34.16-.15.34.2-.17h.41l.19-.09.62-.43.79-.12.11-.08.16-.2.11-.1 1.28-.39.2-.15.1-.11.24-.11.24-.08h.16l.07.08.17.41-.26.58-.21.2-1.15.22-.37-.06-.12-.33-.22.15-.25.12-.26.05-.25-.07-.09.09-.22.12-.12.06-.08.17.06.12.08.12v.16l-.15.2-.25.15-.3.1-1.44.19-.19-.1.06-.25.14-.19.17-.16.12-.19-2 .62-.34.17-.29.25-1.38.29-.48.21-.42.22-1.26.32-2.63.38-.62.23h-.39l-.51.12-.51.05-.6-.24h-.54l-.23-.1-.57-.4h-.11l-.85-1.71-.43-.51-1.18-1.1-.37-.57-.54-1.38-.32-.51-.38-.21-.84-.08-.31-.14-2.34-.35-.39-.16-.17-.23-.09-.37-.23-.26-1.56-1-.63-.54-.3-.15-.33-.06h-1.2l-1.61.12-2.34-.08-1.59-.26-1.44-.52-1.23-.88.08.77 1 .5 1.18.39.72.43-.3.25-.38-.21-.4-.34-.33-.19-.4-.06-1.9-.54h-.34l-.06.06v.09l-.06.07-.42.19-.2.05h-.29l-.18-.12-.2-.26-.08-.26.2-.12.27.06.48.19h.31v-.13l-.78-.5-.4-.34-.17-.33-.33-.1-.64-.28-.4-.32.38-.22.41.11.64.61 1 .27.84.63.45.22v-.61l-.22-.19-.38-.15-.4-.1h-.29l-.36-.12-.41-.29-.65-.58-.36-.46-.32-.57-.27-.66-.25-1.26-.12-.22-.25-.05h-.47l-.43-.09-.36-.23-.29-.32-.2-.34-.26-.91-.17-.25-.11-.33-.06-.43-.18-.24-.46.18-.25-.15-1.49-1.21-.42-.24-.22-.32-.15-.39-.11-.68-.26-.58v-.26l.19-.43-.09-.35-.61-.67-.19-.31-.61-2.1-.2-1.58-.63-1.72-.29-.56-1-1.09-1.17-1.74-1.19-1.32-.62-1-.15-.16-.2-.06-.11-.07-.18-.15-.18-.18-.23-.51-.34-.35-1.1-.89-1.3-1.5-.49-.44-.27-.31-.26-.69-.35-.29-.72-.37-.62-.52-2.08-2.38-.86-1.65.18-.23.09-.08.1-.06-.17-.31-.18-.6-1.27-2.11-1.3-2.23-1.06-2.7-.14-.65-.14-.24-.28-.1v-.2l-1.18-2.36-.07-.37.18-.74v-.33l-.2-.22-.27.2-.27.1h-.26l-.3-.15-.28-.28-1.43-2.43-.27-.69-.28-1.54-.37-1.2-.07-1.5-.13-.73-.44-1-.13-.34-.16-.2-.3-.66-.07-.4.24.57 1.47 2.5.48.31.2.41.3 1.21v.23l.09.18.41.31.83 1.15 1 .94.26.43.87.74.71.44.36.29.15.31v.32l-.06.27-.11.28-.19.29-.18-.14-.33.07-.36.18-.29.2-.29.32v.13l.13.11.14.57.44.9.24 1.24h.13l.12-.82.11-.41.2-.31.2-.26.5-.8.1-.3.16-.78.26-.74.05-.74-.47-.76-1.28-.78-.2-.26-.18-.07-1-.86-.32-.18-1.84-2-2.69-4.67-.2-.65v-2.18l-.14-.36-.31-.82-.11-.18-.07-.2-.15-.91-.08-.24v-.52l-.54-1.82.36-1.47v-.78l-.06-.17h-.1l-.18.23-.06.25.07.55v.18l-.15.17-.21.1h-.31l-.16-.14-.05-.26.07-.27.62-1.31v-.36l-.35-.38.48.13h.13l.08-.11v-.25l.06-.14.6-.58.13-.26.55-1.86.18-.21v1.29l.2-2.2-.47-5.17.19-3.24.29-1.72.35-3.65-.19-.63-.16.53-.09 1.18-.12.49h-.12l.12-1.64-.09-.46-.25-.25h-.89v-.11l1.28.12.32-.12.14-.31.15-3.63.09-.74.07-.62 1-7.75 3.45-11.92 2.5-3.78 1.05-2 .65-1.53.48-1.12.22-.72.21-.31.16-.34v-.83l.12-.29-.18-.7.51-2.46-1.19.09-.87-.06-.23.06-.05.29-.23.19-.1.09-.42.12-.31-.2-.41.26-.07.1v.33l.13.41v.35l-.36.15h-.19l-.07-.12v-.13l-.13-.09h-.14v.19l-.07.07-.38-.07-.19-.26-.1-.28-.12-.13h-.69l-.28-.11-.32-.2-.81-.75-.52-.21-.19-.24-.15-.29-.17-.23-.34-.25-.33-.14-.35-.07-1.57-.09-.24-.07v-.27l-.35-.09h-1.37l-1.14.13-1-.14h-.25l-.56.26-.38.12-.18-.08-.14-.43-.36-.08-.84.21h-.63l-.67-.19-1.4-.64-.17-.17-.41-.58-.12-.12h-.47l-.21-.06v-.18l.14-.36-.5-.13-.56-.3-.5-.15v.06l-.23.27-.37-.41-.51-.19-.56-.13-.52-.25-1.06.37-.23-.05-.2-.11-.37-.32h-.3v-.09l.23-.24-.18-.16-.21-.08h-.48l.07-.31-.18-.21-.63-.35-.26-.3-.1-.07h-.16l-.13.07h-.13l-.2-.1-.12.11h-.32l-.18-.1-.41.07-.66-.43-.28.25-.15-.28-.16-.1h-.43l-.31.11h-.22l-.12-.16-.09-.05h-1.03l-.38-.27v-.21l.11-.22.16-.23.08-.21v-.23l-.21-.5-.21-.25-.47-.1-.43-.16-.11-.42-.13-.9-.05-.29-.97-2.13-.23-.86-.25-.78-.27-.3-.3-.28-.25-.3-.58-.63-.19-.24-.72-.52-.17-.15-.08-.2v-.37l-.05-.2-.11-.14h-.31l-.15-.05-.28-.2-.07-.1-.31-.4.35-.59v-.32l-.08-.13-.08-.1v-.45l.26-.77.07-.35v-.35l-.12-.32-.2-.29-.25-.28-.21-.09v-.25l-.12-.07-.51-.18.12-.19.29-.29.06-.17v-.19l.09-.24.05-.35.17-.42v-.96l-.06-.25-.07-.15-.14-.07h-.28l-.1-.08v-.19l.05-.41v-.72l-.14-.27-.36-.29-.36-.16-.31-.08-.11-.08-.21-.35-.18-.08h-.22l-.38.19h-.2l-.07-.08-.18-.3-.11-.1h-.64l-.09-.07-.09-.11-.23-.32-.13-.08-.06-.19v-.2l-.07-.16-.12-.07-.32-.09-.17-.08-.22-.23-.16-.24-.19-.16-.45-.08v-.09l-.21-.21-.24-.18h-.09v-.17l.05-.39v-.17l-.14-.16-.17-.09-.14-.1-.05-.2.15-.28.07-.18-.05-.08-.27-.12-.32-.27-.28-.33-.18-.26.21-.27-.22-.13-.38-.08-.27-.09-.26-.27-.17-.23-.12-.24-.12-.3v-.12l.06-.12v-.25h-.14l-.24-.19-.25-.24-.05-.13v-.25l-.13-.39-.33-.3-1.76-.79-.29-.05-.15-.1-.07-.24v-.25l-.05-.15h-.13l-.5-.09-.31-.19-.31-.3-.16-.35.11-.33v-.29l-.28-.4-.51-.6-.16-.63-.35-.74-.08-.1-.14-.11-.13-.14v-.2l.09-.13.52-.25-.74-.25-.36-.23-.25-.36v-.63l-.09-.18-.17-.12-.43-.18-.22-.12v-.31l-.66-.76-.23-.4-.45-1.73-.1-.18-.08-.09-.09-.19-.08-.09-.12-.06h-.19l-.13-.06-.05-.12.11-.23-.06-.14-.09-.06-.27-.12-.05-.06-.1-.29-.21-.19-.22-.14-.1-.12v-.43l-.07-.15-.13-.11.16-.38-.07-.38-.35-.71-.15-1-.15-.24-.16-.06h-.23l-.2-.05-.09-.11-.05-.1-.95-.68-.13-.25.14-.38-.38-.62-.23-.26-.36-.24-.85-.35-.15-.11-.35-.39-.42-.33-1.3-.53-.2-.11-.17-.15-.15-.17-.11-.18-.06-.25-.07-.52-.15-.3-.54-.17-1.2-.33-.52-.24-.34-.38-.15-.1h-.39l-.18-.16-.06-.25.15-.53v-.47l-.27-.22h-.44l-.45.23-.31.24-.2-.07v-.26l.15-.38v-.28l-.16-.09h-.54l-.24-.1-.15-.14-.12-.16-.22-.43-.12-.32-.29-.4-.13-.22-.05-.23.08-.23-.16.07-.18.06h-.42l-.17-.09-.12-.24h-.15l-.35.1-.28.21-.28.15-.39-.09.06-.15.17-.31v-.09l-.06-.17-.13-.13h-.13l-.06.08-.07.34-.2.19-.27.09-.94.1-2.91-.36-.16-.1-.05-.19h-.12l-.2.12h-.6l-.36-.1h-.18l-.14.07-.13.1-.15.06h-.34l-.23-.11-.26-.19-.27-.07-.29.23-.47-.1-1.71.16-.65-.25-.2-.16-.84-.38-.65-.06-.24-.11-.09-.32-.32.07-.23-.16-.24-.2-.33-.08-.17.09-.17.33-.2.07h-.22l-.13.12-.07.17V52l-.06.18-.44.55v.06l-2-.13h-.14l-.14.22-.19.13h-.27l-.08-.18h-.07l-.34.11-.64.31-.31.06h-.81l-.13.13-.05.13v.16l-.06.2-.52.81-.08.25h-.07l-.29.48-.18.3-.11.11-.21.09.11.23v.07l-.16.07.1.24-.11.14-.16.11-.57 1.32-.12.16-.09.17v.45l.07.2v.22l-.17.23v.11l.14.25v.08l-.16.08h-.33l-.21.16-.11.12v.52l-.26.7v.22l.13.17.44.25.16.2-.19.08-.49.08-.81.54-.1.15-.4-.2-.12.11-.21.17-.49.9-.16.19-.15.11-.71.33-.15.11-.09.17-.1.31h-.23l-.08.62-.24.48-.46.2-.7-.09-1-.24h-1.07l-.27-.13.08-.27v-.11l-.26.07-.1.06-.22-.31h-.16l-.16.17-.21.11-.26-.09-.5-.42-.16-.1-.22-.06-.77-.38-.92-.8-.11-.15v-.13l-.06-.11-.16-.11h-.62l-1.58-.34-.53-.26-.84-.63-.18-.07-.21-.05-.12-.1.15-.4-.09-.18-.17-.13h-.19l-1.25-.07-1.15-.2-1.63-.49-.69-.34-.87-.84-.61-.27-.39-.29-.59-.57-.32-.64-.12-.1-.15-.06-.43-.27-.29-.33-.46-.11H253l-.33.15-.19-.24-1.46-.82h-.13l-.11-.07-.08-.15-.07-.17-.05-.11-.26-.22-.84-.52-.26-.24-.08-.18v-.33l-.12-.25-.32-.53-.16-.75-.24-.27-.31-.22-.33-.33-.08-.15-.25-.83-.33-.37-.08-.18v-.08l-.23-.25-.08-.1v-.61l-.33-1v-.43l.06-.36.25-.64-.18-.39v-.65l-.06-.41-.25-.28-.35-.64-.17-.14-.31-.14-.13-.08-.22-.36-.23-.49-.26-.44-.34-.18-.1-.08v-.54l-.11-.12-.24-.12-.13-.12-.15-.2v-.66l-.18-.24v-.32l.1-.2v-.11l-.06-.09-.3-.16-.05-.18V39l-.05-.18-.21-.32-.54-.54-.1-.19-.13-.07-.57-.07-.17-.05-.12-.16v-.39l-.05-.18-.23-.28-.34-.23-.39-.17-.34-.06-.34-.13-.83-.86-.12.13-.23-.22-.08-.05h-.06v-.2l-.09-.11h-.32l-.18-.06-.17-.26-.13-.06h-.11l-.2-.06h-.07l-.12.14h-.16l-.19-.07-.12-.1-.08-.1-.11-.09-1-.44-.53-.12-.23-.17-.7-.77-1.46-1-.61-.63-.45-.19-.18-.26-.23-.63-.22-.35-.27-.19-.32-.15-.36-.24-.44-.43-.13-.07-.3-.11-1.36-.76-.18-.23-.12-.32-1.38-1.39-.33-.23-.3-.09v-.06l-.21-.14-.34-.17-.12-.16-.13-.3-.12-.16-.23-.17-.78-.47-.29-.1h-.45l-.35-.11-.61-.32-.75-.19-.41-.15-.19-.23-.62-.3-.11-.12v-.19l-.07-.18-.18-.28-.75-.77-.21-.31-.47-1.23-.34-.6-.49-.64-.6-.51-.67-.22-.79.06-.35-.07-.24-.2-.2-.07h-30.81v8.09h-50.1l-1.09-.11-.49-.16-.93-.3-.92-.3-.93-.3-.92-.29-.92-.3-.93-.3-.92-.29-.93-.3-7.34-2.27-7.35-2.27-7.34-2.28-7.35-2.27-7.35-2.27-7.34-2.27-7.38-2.37-7.35-2.27-.65-.21h-.06l.23-.2.25-.73v-.39l-.15-.37.28-.48.1-.12.41-.3.13-.14.21-.3.15-.31.14-.45h-.73l-1.32.1-1.32.1-1.32.07-1.32.1-1.32.1-1.32.1-1.32.1-1.32.1-1.32.1-1.32.1-1.32.1-1.32.1-1.32.1-1.32.1-1.32.1-1.32.1-1.32.1-2.64.2-1.32.1-1.32.1-1.32.1-1.32.1-1.32.1-1.32.1-1.32.1-1.32.1-1.32.1-1.32.1-1.32.1-1.32.1-1.32.1-.06.11v1.28l.2.3.34.59.27.64.87 1.66.27.21.78.15.33.17.27.24.19.26.31.74.33.83.15 1.13.06.62.18.39.41.47.69.14h.61l.22.23v.54l.23.33.32.13.38.09.28.22.24.24.26.19.74.19.26.18.1.43v.41l-.35.5-.18.36-.23.33-.32.19-.31-.06-.54-.31-.43-.07v.14l.56.48.15.1.27.1.12.1.24.34.13.34-.14.48-.11.28v.28l.35.39h-.65.06l-.07.2.1.25.42.26.1.17.68.49.12.18.05.13.06.11.19.12.24.08.35.26.25.09.16.13.28.31.11.06.19.23.89 1.2 1.91 2.16.58 1.27v1.59l-.28.79-.11.45.07.31.33.17h.81l.33.13.42.54.14.24.31.39.17.13L42 34.01l.18.19.06.34.32 1 .1 1.85-.19 2.79.12.71.34.67.36.33.09-.22-.09-.39-.18-.21-.15-.07v-.15l.09-.16.13-.11h.39l.2.06.15.07v-.29l-.13-.22-.17-.21-.16-.27.3.08.31.24.26.29.12.25-.06.26-.18.21-.51.4h.77l.66.1.57.25.47.47.3.56.25.7.16.79v.8l-.11.58v.36l.17.25v.1l.07 1.13-.07.41-.37 1.25.07.22h.8l.33.11.28.22.14.26.24.64.18.27.12.33v.43l-.11.42v.35l.17.3 1.27.92.72.29.29.22.29.63.22.33.3.14h.75l.26.14.4.33 1.24.77 1.33.55 1.17.65.81 1.11 1.49.17 2.37.74.28.11 1.39 1.51.12.29.13.15 1.79 1.15.24.11.15.09.07.22.09.43.13.19.13.16.16.13.19.13.74.26.51.16.14.25.1.31.17.3.11.29-.13.25v.14l.23.18.19.21.2.13h.24l.1.19.31.4.11.23.05.18h.12l.13-.08.25-.05.46.06.46.19.33.42.17.26.33.05.13.25v.4l.08.32.35.2.16.32.27.15.11.35.07.36v.23l.78.33.42.37.17.25-.16.11h-.07l.15.08.35.13h1.1l.16.07.17.2.26.5.06.28v.21l-.07.25v.18l.11.09h.59l.25.18.18.19.06.16.1.15.17.1.09.21v.22l.08.2.13.16.15.28-.05.64-.09.22-.4 1.16-.35.79-.24.38-.15.2-.06.13.05.16.13.15.16.05.17-.08h.19l.15.14.09.28.06.21.07.1.07.12-.14.09-.15.16-.15.34-.19.39-.24.25-.15.1v.31l-.13.09-.14.12-.1.23-.37.38-.55.71-.38.41-.08.08-.28.27-.12.22-.36.29-.15.14-.09.27v.51l.07.14h.18l.17-.16.14-.2.35-.13h.2l.2-.09.13-.1h.15l.07-.13v-.14l.16-.09h.12l.15.07v.15l-.07.12.07.11.11.09.16.06.08.06v.11l-.12.06-.14.07v.06h.26l.07.08-.06.21-.21.23-.28.34-.09.2-.12.13v.68l.19.26.15.16.13.18.06.24v.2l.17.14.11.16.15.09h.22l.24-.08.21-.13.13-.1h.18l.12.07h.07v-.23h.21v.2l-.07-.2-.12-.17-.15-.09v-.19l-.15-.27-.08-.16v-.07h.13l.16.16.09.15.15.29.21.32h.56l.12-.12h.15l.13.09v.13h.27l.26.12.08.11h.19l.19.13.08.16-.06.24-.24.17-.09.16-.12.16-.13.18-.06.07h-.27l-.47-.08-.31-.11-.15-.11v-.15l-.16-.06-.22.06-.08-.09v-.11l-.12-.06h-.35l-.09.07v.11h.12l.12-.06v.06l.06.06v.12l.13-.07.12.1-.07.27-.16.21-.32.22v.12l-.13.15-.21.12-.17.1v-.34h-.16l-.15-.09v-.18l-.12-.13-.18-.26-.27-.22-.46-.18-.34-.22-.5-.09-.3-.16-.39-.37-.37-.17-.4-.52-.13-.26.07-.18.12-.22.11-.29.08-.28-.07-.34v-.28l-.1-.08h-.39l-.16.09-.19.12-.36.22-.36.21-.16.19-.19.19-.51.32-.55.2-.29.11h-.32l-.32.05-2.75-.08-.36-.08-.28-.15-.35-.26-.3-.13h-.75l-.43-.05-.7-.26-.3-.06h-1.06l-1.12.14-.32-.07-.73-.47h-.25l-.09.26.07.38h.07l.13.05.12.08v.62l.16.23v.58l.15.32.34.11h.38l.23-.08.24.22.41.63.27.13.22-.07.09-.16.11-.14h.39l.2.09.14.15.11.18.05.21h-.09l-.18.06h-.09l.21.19.91.3.36.25.06.14.17.54.06.09.25.3.06.1.18.21.41.15.77.2 1 .53.28.08.12.08.56.52.46.26.15.13.45.55.23.6.13.69v1.52l.09.22.22.09h.44l.15.07v.54l.08.09.4.29.36-.11.56.13.58.25.41.27h.19l.57-.25.3-.07h.26l.25.06.47.18.62.29.59.32.37.13.16.1.38.75.17.25.88 1.07.2.1.18-.08.14-.14.1-.07 1.09-.08h.38l.7.24.58.39.55.38.59 1.31.3.57.06.27.16.24 1.06.55.88.85.3.12.81-.05.29-.14-.06-.29.28-.2.28-.3.31-.25.35-.11v-.33l.4-.12h.53l.39.2.58-.06.44.17 1.18.76.24.11.09-.2-.07-.26v-.67l.1-.24.24-.22.22.14.77-.77.06-.18v-1.12l.12-.4.28-.14.33.08.25.27.1.31v.92l-.13.19-.1.33-.01.36-.26.13-.16.23-.21.22-.15.1-.26.17-.15.13h-.34l-.12.09.12.11v.25l.1.21.15.19.18.1.24-.09v-.13l-.07-.16h.46l.06-.22.05-.21.26-.11.24-.07h.14l.17.07-.12.09-.27.13v.43l.1.2.19.29.2.24.22.15.28.34.19.27.24.32.12.12v.2l-.07.19.07.29.12.23.2.15.37.48.26.26.3.12h.44l.07.06v.2l.81.49h.18l.32.21.34.32.59.39.11.18.13.12.24.14.28.27h.26l.51.27.38.28.64 1 .24.06h1.06l.07.06.22.13.08.12.22.14h.19l.24-.14.1.18v.33l1 .68.3-.06.16-.18.13-.18.22-.09h.19l.72.37.42.36.64.76.4.84.15.52.07.58.36.15.44.13.46.24.33.36.11.3.31.38.44.28 1 3.63.13.67v3l-.08.41v.17l.09.1h.18l.1-.12.09-.36v-.79l-.13-1.55.21-.73.14.63v2.4l.18.69v.33l-.07.28-.09.22v.19l.09.17v3.13l-.05.33-.12.21-.38.33-.32.44-.17.48v2.25l-.14.6-.4.34v.09l.06.21v.08h-.24l-.06.13v.59l-.17.27v.37h.09l.13-.06h.19l.05-.09.13-.44.14-.32v-.39l.06-.18.09-.1.18-.29v-.44l.09-.06h.21l.07.09v.78l.18.24v.12l-.06.12-.24.16-.07.07v.15l.06.09.07.07.11.4-.09.13-.32.27-.19-.12.13.51.1.05h.14l.1.12v.73l.06.33.11.25.18.2.26.19h-.19l-.13.1-.09.16-.07.21.35-.11.23-.27.12-.37v-.37l-.09-.56.05-.24.59-.08.11.19v.17l-.08.15-.17.11.32.9.25.29.3-.33.08.17.12.1h.3l-.1-.08-.18-.21-.11-.08.29-.2.1-.05-.37-.33-.15-.4-.07-.48-.16-.51.23.15.2.34.14.38v.3l.11.26.27.36.36.33.36.22h-.37l.18.24.79.75.57.3.14.11.24.31.16 1.49.16.55-.14.11.08.05v.19l.09-.15.17-.09h.47l-.28-.28-.11-.15-.09-.17 1.07.16h.49l.41-.26-.19-.13v-.19l.16-.12.27.07.15.15.09.23.13.47.44 1 .37.53.4.36.77.27.22.1.19.14.85.89.49.37.55.29.64.16v.13l-1.34-.51-.39-.24-.12.12 3.58 1.81.55.47 1.67.61.21.32.47.26.9.36 1.07.78.59.59.56.39.24.32.48 1 .2.13.35.07.41.16.67.38 1.18 1 1.84 2 1.16.88.56.29 2.71.92.29.18 1.2 1 .26.33.92 2.32.44.63.61.44.27.28.11.33.05.38.67 1.9.38 2.21.43 1.17.07.37.06.17.43.64.24.48.22.2.54.34.29.26.14.06h.65l.22-.07.25-.2.15-.08.81-.14h.14l.25-.17.47-.17.32-.28.3-.33.3-.24.75-.35.25-.25.1-.45.14-.27.34-.28 2.5-1.26.46-.34.57-.6.22-.3.08-.26.05-.09.24-.29.08-.18v-.83l.07-.07.15-.22.08-.23-.19-.2.23-1 .16-.33.05-.3-.19-.28.16-.34v-.32l-.11-.29-.16-.26-.68-.69-.13-.2-.08-.41-.11-.2-.26-.21-.61-.23-.3-.22-.24-.14-1.85-.46-.39-.15-.16-.24-.05-.36-.19-.63v-.41l.08-.77-.09-.3-.29-.35-.34-.3-.84-.51v-.08l-.07-.24-.07-.05h-.19l-.08-.06-.08-.08-.11-.16-.06-.17v-.41l.07-.35.16-.42.2-.4.19-.24-.33-.42-.09-.06-.06-.06-.05-.11v-.07h-.09l-.25.16-.88.37h-.29l-.76-.21-.41-.48-.23-.63-.06-.71-.09-.18-.18-.21-.41-.36-.31-.2-.63-.22-1.51-.72-.13-.24-.1-.32-.21-.25-.43-.35-.16-.26-.09-.24-.16-.17-.39-.07h-.2l-.4.06-.39.16-.09.07-.09.32v1l.6 1.15-.07.77-.11.11-.35.22h-.1l-.16.09-.08.2-.05.23-.07.16-.4.21-.34-.09-.27-.29-.3-.76v-.17l.19-.07.54.18.12.24.26-.06.32-.16.3-.23-.1-.19h-1.29l-.92-.19-.58-.07h-.24l-.23-.08-.49-.25-.21-.05-.3-.15-.7-1-.11-.25-.29-.16-.34-.39-.54-.81-.3-.7.16-.91-.24-.59-.29-.45-.36-.95v-1.71l.23-.71.47-.58.2-.31.08-.41v-1.41l-.12-.57v-.16l-.06-.17-.12-.12-.13-.09-.05-.1-.09-.38-.2-.31-.24-.29-.22-.33-.14-.21v-.18l-.06-.18-.17-.21-.15-.13-.15-.09-.16-.07-.35-.07-.2-.11-.76-.56-.75-1.11-.12-.32-.07-.45-.18-.35-.21-.3-.16-.31V133l-.29-.59-.65-.87-.17-.31-.12-.32-.06-.37v-1.39l-.17-.33-.46.13-.09-.25-.3-.1h-.76l-.3-.15-.6-.68-.22-.16-.13-.14-.35-.68-.1-.42-.17-.36-.08-.42h-.24l-.16-.1-.72-.94-.06-.13v-.91l-.1-.17v.05l-.11.05h-.22v-.07l-.14-.47-.06-.56-.06-.16-.19-.32-.14-.34v-.34l.11-.34.33-.34v-.57l.19-.78.07-.69-.41-.3-.22-.34-.83-2.11v-.5l.07-.17.08-.08v-.38l-.22-.3-.32-.23-.23-.21v-.24l-.63-.51-.18-.31.06-.52.24-.41.27-.36.08-.31-.34-.27-.29.14-.39-.08-.38-.21-.3-.22-.21-.22-.1-.22v-2.28l-.14-.37-.24-.13-.31-.07-.37-.22-.5-.39-.53-.57-.12-.09-.69-.35-.3-.21-.13-.24-1.24-.8-.56.19.17.72.21.69.1 1 .26.84.15.16.34.11.31.33.59.59.62.56.17.32v.21l-.66.59-.33.06-.43-.21-.2-.23-.42-.86-.26-.3-.2-.12-.44-.2-.16-.1-.08-.13-.09-.33-.08-.16-.27-.3-.28-.21-.06-.21.27-.51v-.17l.11-.08.12-.07.09-.11v-.55l-.06-.19-.9-.8-.26-.31-.19-.13-.34-.17-.14-.13v-.26l-.05-.15-.17-.08-.32-.2-.28-.47-.18-.54v-.39l.25-.4.36-.18.42-.11.45-.17-.1-.26-.07-.13-.09-.11h-.49l-1.28-.41-.46-.09h-.11l-1.12-.64h-.36l-.22-.18-.53-.26-.23-.19-.18-.37.05-.25h.18l.2.29-.09-.49-.28-.34-.35-.33-.27-.45-.06-.11-.16-.15-.21-.14-.19-.2v-.64l-.13-.09v-.22l-.07-1-.07-.28.12-.24-.49-1-.19-.15h-.37l-.83-.27-.34-.18-.44-.42-.28-.22-.33-.09v-.05l-.14-.24-.1-.08h-.1l-.06.11h-.09l-.57-.07h-.17l-.24-.16-.24-.25-.19-.3-.07-.34-.17-.25-.39-.15-.45-.11-.34-.16-.17-.2-.11-.29-.07-.34v-.35l-.14-.27-.64-.37-.21-.28v-.23l-.15-.34v-.14l-.11-.16v-.3l.11-.15.11-.35-.14-.73.24-.26-.09-.1-.1-.1-.15-.12h-.28l-.27-.12-.11-.22v-.25l.07-.25v-.32l-.3-.68.09-.56.26-.42v-.22h.11l-.19-.6-1.08-.88-.24-.65.21-1 .1-.65-.13-.42v-.18l.05-.15v-.16l-.09-.09h-.14l-.1.06h-.11l-.14-.06.12-.13-.57-.15h-1.8l-.22-.08-1.13-.71-.18-.19-.09-.25-.32-1.45-.07-.3-.34-.47-.08-.35-.19-.24-.33-.79v-.92l-.22-.17.07-.28-.15-.24-.28-.16-.32-.07-1 .31-.19.15-.27.15-.31.08-.28-.07-.08-.16-.09-.52-.08-.18.15-.22.08-.22v-.21l-.2-.22.12-.19v-.19l-.13-.15-.21-.08.09-.29v-.08l-.4.13h-.23l-.11-.08v-.36l-.44.01-.48.19-.16.11-.09.17v.15l.08.15.07.29v.07h-.52l-.48-.11-.14-.14-.53-1 .22-.09v-.23l-.13-.29-.07-.29.05-.25.24-.56v-.11l-.31-.87-.19-.24-.2-.12-.21-.09-.25-.17v-.38l-.05-.11-.12-.05h-.29l-.15-.09-.23-.25-.08-.16v-.94l-.07-.19-.19-.25-1.78-1.87-2.83-2.2-1.74-1.35-.63-.2-.18-.23-.15-.28-.19-.26-2.29-2.21-.14-.1-.45-.07-.16-.09-.11-.08h-.11l-.22.06-.25.25-.2.06h-.24l-.17-.13-.15-.16-.19-.16-.19-.09h-.17l-.18-.04-.17-.14-.13-.19-.05-.17v-.24l-.1-.81-.11-.39-.16-.23-.35-.1h-.36l-.28-.09-.25-.73-.33-.22-.77-.33-.14-.22-.4-.83v-.19l-.68-1.1-.15-.09h-.11l-.08-.07v-.25l-.27-.58-.09-.11-.09-.14v-.29l.17-.27.05-.15v-.26l-.11-.33v-.35l.09-.27.06-.59.16-.68.15-1.76v-.25l-.21-.34-.09-.2v-.76l-.18-.3-.47-.43-.1-.31-.12-1.11.12-2v-.44l-.33-1v-.99l-.08-.13-.08-.09v-.09l-.2-.19-1.28-.35-.33-.22-.19-.32v-.37l.22-.39v-.28l-.29-.32-.39-.31-.26-.26-.16-.56v-.72l.59-6.13.17-.72.31-.6.64-.64.14-.35-.22-.42-.26-.35-.16-.37-.21-1.27-.13-.22-.26-.07h-.69l-.44-.39-.24-.32v-.25l-.18-.22-.23-.2-.27-.18-.32-.13-.46-.08h-.14l-.17-.1-.08-.08-.26-.41-.07-.23v-.2l.06-.05.16.09.06.21v.22l.07.09h.11l.26.18h.41l.22.06.4.16 1 .64.38.09.22.11.46.56.24.2.18.05.62.06.21.06.36.26.17.06.06.06.33.32.17.1h1.48l.32.09 2.69 2 .33.07 1.58.74.17.16.07.21.08.13.2.08.23.07.16.08.33.27.34.2.75.33 1.47.4.84.07.77-.1.18-.11.07-.12.08-.1h.22l.17-.06.18-.15.14-.19.14-.4h.21l-.16-.21h-.23l-.13-.13v-1.4l.28.15.08.7.33.28h.24l.24-.06.5-.18.17.33.44.18 1 .24 2.64 1.18.32.35.13.55.08 1.35.15.5h-.47l.29.23 2.28.88h.98l2.9.75 1 .12-.3-.14-.26-.08-.22-.12-.21-.28h.26l.28-.11h.23l.2.49.24.22.53.32.51.39.27.16.26.06.23-.08-.14-.2-.29-.21-.22-.12.66-.17.47.43.37.55.34.17.1.71-.1 1-.25.93-.37.6-.07-.32-.25-.5-.05-.36v-.16l-.13-.13h-.17l-.14.14v.14l.54 1.39.14.73-.06.75-.42 1.53.06.68.81 2.21.46.69 2.15 2.3.87 1.16.26.5.22.69v.74l-.38.64.19.1.08-.06v-.1h.21l.22.16h.06l.26.1.24.23.55.84.11.48v2.27l.14.3.16.25.13.26.06.36-.35.91v.24l.19.21h.23l.24-.08.21-.18v.1l.12.16.07.12h.25l.25.45.36 1 .21.29.29.32.26.37.16.7.12.26.18.2.47.16.15.18.09.21.85 1.32.3.31.62.44.18.27.06.45.1.06.49.16.14.09v.73l-.13.35-.4.7-.08.37.08.45.22.3.69.42.28.32.15.08.06-.21-.05-.15-.07-.14v-.11l.18-.05 1.15-.1.39.1.49.46.2.66-.08.75-.37.73.32.13.32.2.24.23.1.23.11.43v.34l-.17.33-.05.19.07.34.32.85v.17l-.16.05v.11l.1.12.12.09.17.05h.57l.09.12.11.21.15.2.29.12.4.27.1.16.1.33.1.18.15.15.35.26 1.2.64.33.25.36.15.34-.06h.53l.2.34v.4l-.06.16-.11.07-.16-.06-.11-.15-.09-.18-.13-.17-.32-.15-.28.14-.17.27v.3l.34.53 2.86 2.44.42.51.32.57.29.76.21.33.3.14h.38l.4.13 2.07.92.77.23.63-.11-.07.32-.18.19-.11.21.12.39.23.3.8.62.11.19.06.39.13.25v.1l.05.08h.43l.15.19.48.7.21.51.57.8.14.11L130 84.6l.68.47.49.07v.36l-.07.13h.45l.68-.36.4-.09.45.09.42.21.37.28.3.29h-.16l-.1.05-.23.18.14.07.08.1.06.1.08.09.12.05h.38l.41.51h.08l.08.18.17-.14.17-.29.08-.24v-.24l-.07-.16-.15-.06h-.27l.36-.37.18-.26.07-.3v-.5l.1-.17h.21l.21.12.09.19v.52l.07.17.14.24-.54.2h-.19v.23l.66-.15h1.26l1.27.28.3.12.55.34h.27l.08-.09-.22-.19h.45l1 .39.36-.13.09.35-.23.16-.9.12h-.27l-.09.35-.1.08h-.13l-.1-.17-.1.22v.2l.17.14h.25l-.22.43v.27l.32.13h.61l-.1.18-.18.06h-.22l-.24.1-.1.15-.15.59.13-.22.25-.12.21.05v.29l-.19.23-.37.07-.39-.05-.28-.12.15.86.68 1.36.24 1.41.33.67.08.44v.45l.07.14.18.09h.19l.21-.1.34-.26.13.15.09.07.25.08v.12l-.07.12v.08l.15.23.47.51-.23.22H142l-.35.09.29.13.64.14.3.1.84.52.46.41.65.73.28.47h.73l.37.06.71.33.37.12.83.08.4.09.77.25.34.21.24.06.21-.09.1-.11.12-.09.14-.08h.75l.29.12.24.18.43.61.81 2.22-.37-.24-.51-.71-.36-.16.15.33.59.58.13.26.06.26.25.56.06.42.14.54.35.67.44.64.85.83.44.32.53.2.15.11.43.23.4-.18.36-.31.28-.17 2.46.37v-.06l-.11-.12-.2-.09h-.27l.06-.07v-.06l.05-.05.1-.06v-.11l-.33-.11-.33-.06-.15-.13.19-.33.3-.18h.3l.18.2v.33h.68v.05l.22.11.25.1h.1l.15.33-.19.06h-.3l-.15.15.1.05.63.14.2.13.42.49 1.83 1.6.4.44.3.61.19.71.11.7-.26 1.26.07.27h.17l.51-.53h.38l.36.1-.05-.12-.06-.1-.07-.07-.07-.06.5.25.31.59.42.77h.49l.1.24-.12.1-.2.05-.14.11v.24l.26.43v.19h-.26l-.83-.69-.38-.14v-.11l.22-.15.14-.28v-.35l-.14-.35-.22-.12-.38-.1h-.35l-.16.17v1l-.07.31-.54.94-.11.54-.09.22-.14.13-.18-.05-.09-.17v-.19l.07-.2.05-.18v-.39l.07-.25.06-.12.09-.14.11-.13.12-.1.2-.38-.06-.23h-.14l-.07.19-.06.29-.34.6-.08.13-.66 1.11-.23.72-.3.38-.67.66-.66 1-.08.29v1.13l.12.4.16.28.06.16v.61l.14-.07h.18v.13l-.09.15-.12.06-.06-.09V123l-.09.15-.21.7-.06.36.1.31.37.13.15.17v.87l-.09.32.19.26.07-.13v-1l.11-.23.2-.09h.34l.28.08.39.18.35.23.14.2v.3l-.17.14-.05.09v.61l-.51-.16h-.45l-.5.14-.42.26.66.17h2l.63.19.47.44.39.5.42.35.07-.35-.3-.39-1.23-1-.14-.15-.11-.2-.05-.2.08-.09.46.31.56.25h.22l.18.08.12.18.14.37.22.42.23.2h.32l.45-.24.47.14.37-.26.58-.81.36-.24.87-.25.43-.18.29-.24.27-.57.25-.36.39-.73.21-.21.18.27-.09.37-.71.58-.18.35v.7h-.23v.36l-.18.25-1 .87h-.14l-.07.08v.38l-.13.23v.11h-.05l-.17-.09-.1-.34-.13-.17-.19.07h-.14l-.61-.21-.23.07-.12.18-.08.21-.12.17-.11.07-.38.17.89.92.56.35h.52l-.23-.27.06-.19.25-.12.89-.07h.14l.12.13-.05.1h-.2l.18.25.21.13h.25l.29-.19.13-.11.08-.1.06-.12v-.42l-.08-.11-.09-.12-.06-.19v-.3l.12-.06.23.07h.41l.17-.08h.21v.18l.63.24h.17l.16-.07h.1l.05.26v1.09l-.18.57.15-.06.21-.16h.23v.25l.07.14.22.3-.16.13h-.74l.25.31h.45l1-.28.54.11.7.55.44.19-1.32-.35-.74-.06-.42.28h.64l.75.08.73.19 1.07.64 1.86.69.28.15.29.21.25.28.16.35v.28l-.08.79v.17l.24-.3.44-1.93.15.14.43.18.16.18.05.23v.52l.05.24-.19-.08-.42-.25h-.13v.12l.08.55.32.16.5.07h.47l.24-.13.25.1.19-.09.18-.12h.25l.1.12.39.63.32.32.19.13h.45l.14-.07v-.11l-.14-.15h.29l.23.11 1.86 1.54v.19l-.06.2-.15.14-.6-.24-.76-.08-.29-.13-.37-.35-.13-.18-.07-.06h-.07l-.15.13-.06.08-.18.31v.11l.18.11.2-.05h.22l.07.25v.51l-.16.05h-.09l-.34-.21-.1.05-.1.05h-.11l-.06-.1-.2-.51-1.1-1.17-.13-.3-.31-.17-.41-.09h-.39l.1.21.18.12.35.16.63.49.43.5 1.41 2.61.56.69.66.39.08-.05v-.21l.14.07.08.09.08.06h.2l.11-.08v-.82l.12-.57v-.34l-.05-.1-.23-1v-.33l.22.05.71.55.2.26-.26.46-.07.23v.29l.11.63v.29l-.23.19.22.15.24.25.2.32.09.33-.13.38h-.29l-.29-.18-.14-.12-.31-.18-.17-.06h-.2l-.06.06v.12l.07.13.08.06.2.1.2.26.16.33.1.3.09.66.06.28.18.23 1.55 1.27 1.34.77.49.11-.23-.28-.76-.4-.3-.24-.56-.55-.27-.18-.14-.14-.08-.18.44.07.42.2.39.27.35.33.27-.15.22.06.74.7.12.06.26.09.11.09.07.13v.36l.1.15.37.27.13.05h.27l.35-.21.36.22.26.34.33.22.53-.17.18-.13.48-.44.08-.16-.14-.12-.48.17-.25-.05.16-.21.24-.14.29-.05h.3l.3.13.19.18.67 1.41.08.25v.34l-.13.18-.18.14-.18.21h.24v.07l-.06.11v.05l-.59-.4-.34-.14-.06.18.26.15.54.3.19.16-.3-.15-.2-.11-.28-.12-2.49-1.47h-.18l-1.42-.72v-.3l-.05-.08-.12-.11-.14-.09h-.12l-.05.19.13.33.31.29 4.16 2.36 1.12.95.67.45.7.28.21.2.07.43.2.19 1.16.73 2.57 1.61.95.85.23.13.34.12.89.62 2.4 2.41.51.87.23.77.29.35.33.32.23.32.17.85.19.36.77.25.32.22.52.53.4.56.26.3.48.22.14.21.19.44.1.12.08.08.73.61.33.21.31.1.23.19.65 1.21.07.09.05.1v.11l-.22.14v.12l.29.23.64.91.09.25v.81l.19.1.17-.07.18-.12h.21l.31.15 1.68 1.8.35.27.2.09.32.11.16.1 3.38 4 .18-.19.21-.14.22-.1h.24l-.35.48v.13l.08.08.08.06v.06l.12.11.75.44.31.27.79 1 1.46 1.34.59.86.17 1h.12l.16-.21.18.08.15.24.13.26-.14.08-.15.1.22.56.67 1 .64 1.52.12.58-.25 5.38.09.37.21.34 1.54 1.77 1.77 3.32.31 1 .17.31.26.21.38.07 1.3.62.68.47.29.11.84.09.22.17.1.27.08.36.16.35v.18l-.23.15-.39.49-.2.34-.06.38.16 1.49v2.58l-.18.75v.47l-.21.34-.12.11-.13.06h-.49l-.32.18-.16.24-.12.25-.2.25-.84.71-.9 1.25-.12.22v.2l-.05.23-.08.21-.1.16-.22.14h-.52l-.18.1-.39.32-.1.07-.05.07.16.12h.21l.1-.17 1.47.56h.42l.61-.19.28-.05h.47l.28.14.94 1.17.32.4.26.56v.75l-.12.34-.21.23-.28.14h-.32l-.27.12-.64.56-.36.19-1.25.12-.31.17-.27.12-1.28-.13-.79.22-1.93 1.19.05.27v.41l.06.38.37.34.47.82.35.49.29.49.16.14.31.19.14.16.1.3.14 1.18v.99l.17.34v.2l.11.33 1.06 1.47.45.79.23.31.52.43.2.23.12.33.54.53 1 1.54.85.94 1.1.92.34.23.34.32h.16l.23-.06h.2l.59 1.46.09.12.12.11.11.14v.18l-.09.34v.15l.56.22.19.37.2.83.43.48.64.43 1.39.7.14-.16h.55l.29-.16h.18l.26.09v.21l-.11.49v.48l.13.08h.38l.49-.11h.13l.18.07v.19l.14.11h.41l.14.05.06.24.08.2.2.12.67.31.78.17 1.59.36.31.2.3.25.26.06.61-.13.1.05.08.12.1.08.14-.06.25-.25.19-.07.15.12.1.17.06.09h.44l.16.1v.23l-.12.89.09.25.29.1h.19l.36.17.58.11 1 .47 1.76.59 1.91.72.37.19.16.23 3.69 3.21.66.58.45.69-.38.39v.11l.23.14.75.35.13.13.06.12.08.09.36.08.15.1.64.7 1.44 2.52.44.48.84.27.75.34.22.16.28.15.7.06.31.09 1.05.31.19.13 1.4.42h.32l.56.17.69.09.69.27.9.19 1.71 1 2.46 1 .92.18 2.15.19 1 .32.76.11.94.43 3.08.74.36.16.65.38.41.07h.36l.24-.09.39-.35.67-.51.7-.23h.71l.76.23 1.29.74.24.08 1 .53.48.48.27.36.24.7.29.32.7.6 1.8 1.98.68.53h.34l.78-.1.3.1.84.72.2.31v.43l.06.22.89.28.3.22 2 .84 2.07 1.16.85.56.53.55.29.49v.55l1 .09.88.28 1.22.76.95.18 1 .33.88.16 1.39.67 1.42.32 4.53 1.7 2.54 1.17.37.09h1.18l.39.1 1.14.64.75.17.35.13.31.25.11.19.19.47.15.16.22.06.06-.13-.07-.46-.07-.11v-.09h.38l.15.09.11.1.05.1v.44h.18v.27l-.08.11-.21.11.27.21.85.28 1 .74.42.18.54.18.59.12.41.13h.87l.61.21h.2l3 .17.4.08.38.15.6.35.37.12 1.91.16 4 1.08.92.52.37.08h.34l.22-.12v-.29l.07-.09h.06l.18.13h.9l.58.35 1.74 2.19 1.07.85.54.7.13.16.24.13.4.05 1.15.44 2.33.4 1.79.56h.47l.12-.09.09-.08h.1l.08.09.05.08.38.1.36.15.23-.17.24.13.25.19h.27l-.25.23-.55-.06-1.06-.29.32.34.59.25.65.2 2.1 1 .41.31 1.23.87.1-.28v-.1l.21.44.05.18h-.26l.12.19.14.08h.18l.19.07.43.48.17.13.35.14 1.13.12.59.2h.38l.36-.16h.21l7.69.85.8.2.7.29 5 2.78.72.09 1.95.42 1.41.57.77.2 1.48.43.36-.1.22-.23.19-.29.28-.25.29.13.32.07 2 .18.56-.06 1.21-.35 1.68-.89 1.15-.46 1.17-.69.63-.27.9-.25.26-.17.33-.16.78-.08.31-.07.38-.18.17-.12.07-.13.07-.06.35-.12.4-.2 1.14-.16 4.29-1.26.56-.34-.05-.38.34-.51.57-.35.62-.26.43-.25.59-.66.28-.18.33-.09.7-.07.32-.1-.07-.16v-.34l.09-.1h.2l.17.09.15.12.16.05 1.42-.23h.2l.4.08h.3l.33-.17 1.09-.15h1.4l.93.26.1-.09-.26-.41-.53-.19-1.63.05-.61-.17h.52l.77-.18.55-.25-.11-.28h-.14l-.31.34-.18.13h-.23l-2.91-.04-.36-.09v-.17l.21-.31.11-.1h.21l.15-.11-.11-.32h1.05l.18-.12.78-1.12.35-.31.42-.21.48-.08.19.08.26.18.22.21.13.14.08.27v.19l.07.2.26.27.19.29-.15.19-.28.15-.19.17v.22l.07.2.2.32.24-.19.3-.46.26-.09.5-.25v-.05l.12-.14.2-.17h.07l.21-.06h.1l.05-.09.06-.28.12-.06h.29l.15.12.28.16.69.2.19.19-.11.79-.69.47-1.54.47-.23.16-.08.22.11.17.39.07h1.1l.31-.12.3.16.47.06h2.51l.85.16.61.35.26.19 5.05 2 1.77.69-.12-.21-.27-.15-.6-.24-.2-.15-.47-.65-.46-.34-.17-.06-.38-.14-1.27-.26v-.12h.24v-.13l-.61-.36-.28-.13h-.65l-.34-.06-.73-.27h-.46v.11l1.34.35-.48.13-1-.4-1.64-1.07h.24l.16-.08v-.1h-.23l-.15-.06v-.11h.07l.16.08h.13v-.28l-.07-.32v-.27l.32-.11.39.06.25.15.41.42.61.46.73.41.76.21.73-.1.38-.19.36-.13.26.1.1.52.1.23.25.28.34.27.18.14.55.28 2.15.46.45.2.23.32.21.4.35.43-.2.22-.23.13h-.19l-.12-.2-.21.05h-.43l-.22.1 3.3 1.88 1.86 1.2 3 2.34.31.14 4.35 3.57.52.2.21.24.32.51 1.65 1.8 1.43 1 .28.5.34.22.74.29 1.06.83h.3l-.23-.22.11-.13.19.05v.3l.29-.07.38.08.37.15.25.16.22.31.14.74.2.36-.29-.1-.19-.26-.11-.34v-.33l-.16-.16-.77-.25-.29-.16v.37l.29.46 2.24 2.45 3.45 3.45 2.25 2.19 1.37 1.25 1 1.16.09.08.67-.44.39-1.06.26-.47.12-.23.07-.27v-.42l-.32-.88v-.52l-.17-.45v-.53l.08-.21.37-.42.2-.53-.05-1.12.06-.59.21-.2.23-.07h.23l.24-.1.18-.21.06-.17.28-.65-2.28-2.97-.14-.29v-.34l.12-.31.33-.55.87-1.47 1.83-3.05.83-1.38 1.41-2.37 1.24-2.07.87-1.46.34-.55.3-.54.08-.14.21-.27.29-.14h22.57l.33-.12.07-.09.12-.26.05-.15-.1.05h-.08l-.06.07h-.14l-.07-.31.43-.35-.23-.21v-.11l.39-.16-.12-.18-.52-.29-.07-.34.13-.24.22-.17.21-.09-.24-.09-.18-.13v-.18l.2-.22.08.08h.29l-.06-.09-.11-.2-.07-.1h.08v-.1l.11.07h.26v-.19l-.11.05-.26-.1-.18-.13.12-.07.33-.1.27-.24.1-.29-.15-.23h-.12v.13h-.07v-.26l.16-.08h.25l.27.07-.2-.33v-.6h-.1l-.16.07h-.31l-.13-.08-.19-.08-.59-.08-.05-.11v-.15l-.1-.2-.1-.1-.17-.11-.2-.06-.43.2-.12-.16-.08-.38h-.17l-.47.13-.09.05-.11-.06-.25-.05h-.29l-.22.06.09-.17.16-.13.12-.13v-.19l-.2-.13h-.32l-.15-.07.15-.27-.07-.29.12-.31.06-.25-.25-.14v.12l-.06.06h-.25v-.16l.24-.42-.25-.65-1.21-1.68-.26-.21-.64-.3-.27-.22.07-.21v-.12l-.25-.14-.17.14h-.21l-1.24-.37-.33-.19-.52-.5-.37-.18.26-.26v-.15h-.56v.08l.06.16v.17l-.18.07-.09-.05-.23-.23-.1-.08-.68-.24-.22-.18-.08-.38-.1-.19-.63-.73-.07-.16-.09-.34-.1-.12h-.19l-.43.05-.18-.07-.64-.68-.17-.24-.07-.19-.1-.32-.07-.12-.16-.09-.37-.09-.07-.12v-.28l-.1-.32-.16-.29-.19-.16h-.49l-.48.07-.37-.06-.15-.43-.27-.14-.56-.11-.41-.18.08-.29h.13l7.87.06v-9.87l.14-.15.37-.1h32.34v-1.57l.13-.71.15-.2.23-.32 1.48-.52.39.13.29.25.27.29.3.22h.59l.25.51.23.16.72.41.16-.05.11-.14.08-.4.08-.13.92-.65.16-.19.26-.7.09-.16.26-.21.22-.22.21-.16.17-.26v-.19l.06-.41v-.18l.44-.72.07-.2-.07-.25-.06-.05.4-.28.11-.08.67-.22.21-.16.18-.27.07-.27v-.28l.06-.31.18-.29.55-.61.22-.34.07-.2.07-.46.16-.43.09-.54.1-.2.13-.13.4-.29.16-.12h.18l.17.09.19.05h.15l.36-.13.2-.09h.21l.17.16.14.08h.1l.11-.05h1.36l.08-.06h.29l.16-.33.38-.56.08-.28.5-.88.42-.53.43-.87h.1l.2-.12.11-.13-.17-.09h-.19l-.18.14-.15.16-.1.15v-.34l.14-.24.08-.23-.11-.31-.21.36-.31.34-.35.27-.35.15v-.2l.08-.16.11-.13.77-.65.14-.09h.43l.32-.09.21-.21v-.14l-.1.37v.31l.12.14.16-.11.14-.26.1-.3v-.26l.14-.48.36-.51.44-.46.41-.33.11.71.13.31.19.26.15.31v.38l-.1.74v.07l-.05.11v.21l.09.11.09.08v.22l-.18.29v.16l-.14.3-.28.34-.19.39.12.4-.6.67v.67l.19.13.42.11 1 .5.47.12h.36l.17.11.09.19.07.29h-.06l-.07.14v.15l.09.07h.05l.5.11.07.14v.41l.26.29-.05.29-.1.2-.06.17.1.21.1-.11.11-.16.09-.18.06-.18v.24l-.05.47-.11.46-.14.2-.15.14.06.24.22.08.29-.35.09.39v.48h.13v-1.18l.06-.28.24-.56.05-.27.1-.26.86-1.22.16-.41.08-1.26.1-.28.24-.37v-.38l-.09-.79.09-.79.24-.65.36-.55.42-.48.32-.51.65-2.2.36-2.35.4-.59.38-.87.25-.56-.15-.42.22-.33.2-1 .19-.43.47-.66.29-.28.35-.17v-.12h-.35l-.24.19-.18.23-.21.17.36-.73-.85.06-.43.12-.19.25-.08.31-.19.32-.46.54-.37.31h-.18l-.18-.13-.32-.08-.2-.18.12-.41.38-.75-.28-.08.11-.21.26-.29.15-.28h-.11l-.13.37h-.12l.2-.7.68-.58.83-.4.63-.17-.11.24v.22l-.13.18-.33.09.65-.1.16-.08.49-.49.12-.06.3-.09.3-.23.26-.31.2-.35.17-1.19.13-.17.06-.18-.15-.4-.35-.65v.31l-.13.44v.24l-1.11-.13h-.36l.25.11.23.06.5.08h.55l.17-.06v-.13l-.11-.19h.27v.33l-.27.36-.46.16v-.14l.24-.11h-.15l-.12.13h-.1l-.12-.09H555l-.07.08v.23l-.11.07h-.12l-.37-.22-.51-.13-.25.11-.51.16-.2.11-.23.24-.19.27-.23.19h-.35l.08-.32.06-.52.11-.27h-.59l-.14-.06v-.17l-.51-.31-.19-.26v-.66l.05-.36.12-.22h1.38l.11.23-.09.28-.18.24-.2.11h.23l.16-.2.21-.58.32-.56.19-.51.32-.62.37-.49h.27l.14-.26h.13l.14.09.16.16h.14l.14-.12.12-.14.09-.07.16-.15.76-1.07-.51-.09-.09.09v-.42l-.07-.57-.06-.13-.15-.15V229l.06-.15h.13l.12.05.06.14v.29l.08.17.32.27v.93l-.09.17h-.15l-.11.13h-.21l-.06.09v.2l.06.74.1-.23.23-.8.12-.1h.12l.1-.08.14-.64v-.19l-.09-.39-.41-.74-.13-.4-.06-1.51.09-.77.4-1.43.24-.53.37-.45.55-.37-.1-.15v-.16l.11-.12.24-.06.2-.59 2.14-3 1-1 .76-.45.28-.26 1-.58.19-.21.36-.59 1.68-1.78zm1.24-11.86l.06.2v.08l.11.21.07.33.06.11v-.55l-.07-.27v-.38l-.1-.07v.29z" fill="#4e2564"/></svg>