<svg id="Nevada" xmlns="http://www.w3.org/2000/svg" viewBox="0 0 216.24 323.46"><defs><style>.cls-1{fill:#4e2564;}</style></defs><path class="cls-1" d="M468,293.09q0-13.12,0-26.25,0-12.69,0-25.38,0-13.94,0-27.86,0-12.66,0-25.34,0-13.5,0-27,0-13.08,0-26.15,0-13.29,0-26.57H251.82v36.08q0,13.28,0,26.55v26.38q0,13.32,0,26.65c0,9,0,18,0,27l8.5,7.6q9.54,8.5,19.11,17,10.49,9.31,21,18.59,9.66,8.55,19.37,17.07,7,6.62,14,13.23,9.71,9.12,19.43,18.25L373,361.4l16.8,16.32q9.12,8.83,18.25,17.65c6.23,6,12.4,12.07,18.72,18q9.94,9.33,19.92,18.64l0-.52-.35-1.43.85-1.11.14-.42-.14-.61-.69-.79-.16-.41.12-.6.37-.17h.49l.5-.11.43-.21.16-.14.34-1.76,0-.94-.18-1.78-.47-2.11-.09-1.14.05-1.18-.35-1.05-1.16-2.32-.66-2.13-.61-1.78.76-2.15-.22-1.93.27-1-.24-.72-1.27-3.23-.17-.9-.11-1.22,0-2.47.19-.66.64-1.14.14-.49-.09-.51-.22-.4-1.43-1.86-.53-1-.37-1.19-.07-1.24.62-.63.16-.49v-.51l-.11-1V384l.05-.38.11-.2.26-.37.14-.14.16-.15,1.21-.57,1.18-.74,2.11-.55.56-.23.31-.08.33,0,1.95.57.13.06.2.11.31.25.37.24.49.17.28,0h.26l.25,0,.22-.08.93-.57.19-.08.22-.07.24,0H456l.24,0,.33.13.33.19.39.41.35.45.27.43.81,1.82.35.55.45.55.68.59.83.37.94.05,1.78-.29,1.26-.72,1.44-5,.68-.92.73-1,.09-.43,0-.43c0-1.82,0-3.64,0-5.45q0-13.2.05-26.41c0-8.47,0-16.94,0-25.42Q468.05,306.89,468,293.09Z" transform="translate(-251.82 -108.54)"/></svg>