<svg id="Quebec" xmlns="http://www.w3.org/2000/svg" viewBox="0 0 328.91 366.62"><defs><style>.cls-1{fill:#4e2564;stroke:#4e2564;fill-rule:evenodd;}</style></defs><path id="Quebec-2" data-name="Quebec" class="cls-1" d="M401,381.22l.23,0,.23-.16.17-.32.31-1v-.22l-.22.09-.39.17-.25.2-.21.29-.12.27,0,.22,0,.21.09.2.15.05M366.9,442.05l-.07.13-.07.11-.38.34-.15.09-1.14.3-.09.07-.15.18-.13.21-.08.2v.19l.09.19.15.18.11.06.12,0h.11l.83-.32.44-.26.23-.23.34-.22.11-.12.11-.16.12-.33.21-.36.09-.22,0-.07.05-.12,0-.13v-.12l0-.14L367,442l-.05.05m130-148.73-.05-.26,0-.19.15-.38v-.26l-.44-.13-.5-.21-.73-.53-.27-.15-.38,0-.1,0-.11-.1-.25-.27-.09-.07-.49-.07-.17-.11,0-.31-.9-.27-.39-.22-.25.15-.4.35h-.16l-.4-.14-.6-.11h-.19l-1.48.6-.68.05-.19.05-.18,0-.18-.08-.16-.09-.1,0-.62-.36-.21-.08-.17,0-.3.13-.18,0-.52-.18-.2,0-.23.22-.14.07-.2-.06-.94-.45-.06-.07-.14-.21-.09-.09h-.1l-.21.06h-.1l-.76-.36-.39-.11-.76.21-.41,0-1.2-.19H479l-.32.07-.33.15-.28,0-1.16-.13-.55.32h-.19l-.7-.32-.4-.07-1.14.27-1.28-.09-1.09.4-2.43.3-1.84.55-1.17.49-1.31.25-3.3,1-.78-.1h-.13l-.35.11-1.58.08-1,.45-.17.15-.05.16,0,.19-.09.2-.12.1-.32.13-.66.42-1.06,1-.29.61,0,.58.27.1.38,0,.3.18.27.26.43.16.44,0,.31-.08-.42-.4.21-.26h.49l.44.38.32.14h1.91l1.73-.22,2-.05,2.71.44,1.68.65.72.33.33.21.26.24.2.29.2.38.29.24.38.16.28.21v.38l1.84-.19.78-.25.31,0,.32,0,.52.12.79-.17,1.23.42.69-.12,1.18.14,2.95-.64,3-.37,2.26-1,1.37-.06,1-.3.36.07.35.12.42,0,.39-.11,1.29-1.07,1.06-.38,2-1.3.21-.08.64,0,.16-.06.37-.92.14-.09.25-.09.22-.17,0-.12-.13-.15M366.47,440.47l.14.12.31.19.14.1,0,0h0l.27,0,.24-.06.12-.07.07-.06.24-.33.08-.06.19-.09,0-.08,0-.07h-.07l-.23,0h-.2l-.07,0-.18-.08-.09,0-.16,0-.85.16,0,0,0,0,0,0v.17l.1.14M396.9,395l.82-1.09.55-1.08.19-.2.1-.25.13-1,.08-.31,0-.33-.16-.18-.22-.06h-.23l-.52.36-.34.69-.53,1.47-.9,1.4-.31.8.28.31.59-.2.51-.31m-30.57,44.59.06.05.19.08h0l.17-.08.27-.06.93-.76.45-.51.14-.11.08,0,1.13-.33,1.55,0,.16,0,.14-.08.1-.15,0-.09.05-.3,0-.09,0-.07.22-.25,0-.07v-.2l0-.11-.3-.67-.07-.22-.05-.25,0-.24v-.22l0-.21.14-.5v-.12l0-.19-.09-.38-.08-1.18,0-.24v-.38l-.08-.15-.13,0-.25.19-.12.1-.08.11-.08.13-.15.38-.68,1.15-.11.23v.19l-.09.52v.25l-.12.58-.22.56-.25.33-.6.61-.16.12-.09,0-.17,0-.07,0-.27.16-.3.1-.07.07,0,.12-.09.49,0,.09-.26.3-.68,1.06-.13.14,0,0,0,.06M310.2,136.84l.44.44.67.44.25.23,0,.11,0,.12.1.41,0,.13,0,.12v.09l.2.38,0,.1v.29l0,.48v.24l.33.19.21-.12.06-.34-.1-.45.61.31.26,0,.1-.27-.29-.28v-.34l.24-.51,0-.13-.14-.37,0-.17,0-.1.13-.25,0-.06-.23-.23-.22.07-.2.12-.17-.1-.14-.34-.28-.88-.06,0-.2-.24-.42.07-.58.29-.09.2-.29.1-.12.19m59.43,296.7.2-.51.21-.3.24-.28.08-.17-.06-.13h-.16l-.15.07-.67.5-.1,0H369l-.09,0-.13.08-.49.51-.25.35-.17.34-.4,1.05-.22.36-.18.46-.1.41v.16l.07.13.14.07h.24l.88-.33.43-.27.19-.18.15-.18.12-.2.19-.49.2-1.08v-.29l0-.15m-2.75,3.84-.07,0-.46.43,0,.06-.05.1,0,.1,0,.11.07.07.07,0,.08,0h.07l.17-.14.21-.27.12-.31-.1-.23h-.07M471.66,321.21l-.54-.16-.45,0-.12-.14-.14-.41,0-.74.32-.32.45-.17.32-.33-.31-.21-.31-.17-.28-.09-.24,0-.26-.06-1-.67-.93-.29-.39,0-.42-.13h-.18l-.13.09-.08.13-.1.08-.21,0,0-.28.12-.1.34-.05.09-.14-.11-.15-.17-.11-.09,0-.21-.15-.32,0-.54.23-.66.61-.26,0-.09-.17.72-.5-.06-.12-1.09-.32H464l.38-.18,3.35-.38.87.17.37-.06.29.1.46.22.37.09.05-.33-.35-.08-.36-.2-.6-.41-.28-.9-.43-.39-1.15-.43-.12-.08-.25-.24-.09-.07-.21,0-.41.07-.19-.05-.62-.33-.31-.1-.7-.08-.18-.05-.45-.23h-.13l-.11,0H463l-1-.38h-.42l-.42-.13H461l-1,.28-.37,0-.74-.08-.77-.22-.34,0-.75.21-1.31.05c-1.39.47-2.77.95-4.16,1.41l-1.65.39-2.19.92-.56.43-.69.77-2.33,1.55-2.17,1L440,319.94l-3.2,3.32-1.11.78-2.56,3-2.27,3.08L429,332l-.71.82-.54,1-1.46.93-.46.94-.49.38-.25.29-.36.59,0,.12-2.31,3.32-.23.18-.66.31-.31.23-.21.31-.2.7-.16.24-.63.39-.22.24-.92,1.73-.25.86-.26.25-.59.33-.34.59-.28,1.52-.32.61-.84.83-.05.3-.08.23-.53,1.09-.26.2-.75.33-.19.24-.06.59-1.11,1.79-.7,1.63-.56,2.3-.88,1.67-.4,1.65-.16.32-.19.25-.52.5-.24.15-.17.25-.5,2.66.05.39.14.3.11.14.05.12V367l0,.17-.25.44-.62,2.3-.63,2.8-.68,2.11-.38.37,0,.2,0,.22-.07.22-.11.13-.23.22-.1.14-.17.77.31,1.55-.1.77-1.16,1.75-.18.77-.19,1.92-.63,2.47-1.14,3-.21.27-.57.36-1.4,1.51-.16.29-.1.61-.07.18-.11.09-.32.07-.13.06-.1.16-.15.37-.15.13-.15,0h-.35l-.17.05-.21.2-.45,1-.54.45-1.33.47-.49.49-.12.44-.1.92-.21.24-.23.2-.36.66-.21.28-4.8,4.5-.66.2-.7-.11-.38-.13-.35,0-.29.14-.31.75L386,405l-.13.42-.06.39-.13.34-.31.23-.34.14-.58.35-1,1.15-.06.27,0,.34v.5l-.08.88-.28.64-1.55,1.14-.6.8-.29.19-.2.26-.44,1.44-.53.87-.45.6-.18.32.15.36.11.31L378.6,418l-.35.22-1,1.07-.42.28-.46.18-.4-.06-.43.83-.19.35-.17.3-.14.31-.06.23-1.29.81-.16.26-.05.17,0,.18v.21l.07.25v.25l-.15.58,0,.27.14.42.16.36.12.36,0,.41-.28,1.14-1.43,2.9-.13.48-.05.68.12.71.36.58,0,.17.07.38v.24l-.05.22-.2.42-.13,1.08.06.27.09.29.09.19.58.76.11.33-.08.53-.1.14-.18.19-.19.11-.12-.07-.14-.16-.18.06-.29.23-1.25.23-.2.19-.09.14-.29.16-.1.19-.15.61-.08.18-.62.82-.15.32-.1.13-.33.08-.11.14-.59,1.82-.42.67-.54.47-1.41.45-.23.2-.34.69-.24.23-1.18.71-.27.23-.26.51-.12.17-.15.14-.13.08-.12.14,0,.22.05.24,0,.21-.24.73-.4.58-2,1.89-1,.68.25-.05q12.17-4.12,24.26-8.5,10.74-3.92,21.41-8l-.22-.47-.09-.34v-.32l.25-1.14v-.25l-.07-.42,0-.24.13-.89,0-.42-.33-.17-.44-.06.09-.19.56-.4.13-.27.19-.73.18-.31.28-.23.27-.06,1.47.32h.4l.37-.08.2-.23.17-.89.12-.37.11-.12.28-.18.11-.12.15-.36,0-.28.09-.24.29-.23.38-.07.33.17,1.3,1.54.29.16.17-.33,0-.21-.17-.39,0-.2.05-.19.2-.33,0-.22-.1-.41-.39-.9-.14-.42,0-.4.09-.34.2-.25.33-.12.33.05.68.34.37.06.29-.12.25-.26.08-.34-.28-.34-.34-.14-.68-.15-.33-.21-.3-.38-.1-.35.1-1.58.74-2.17.15-.3.66-.72.27-.54.14-.15.31-.12.14-.11.19-.33,0-.38-.08-.4-.19-.43-.15-.2-.12-.09-.09-.11-.06-.23,0-.15L414,413l.73-1.31.23-.63,0-.79-.12-.56-.17-.13-.25,0-.4-.07-.29-.22-.14-.33-.14-.81v-.08l.08-.18v-.09l-.06-.11-.07-.06-.1-.05-.08-.07-.14-.08-.08-.15.09-.28.36-.55.09-.37-.08-.45-.25-.42-.36-.34-.37-.07-.1-.43.06-1-.06-.86.07-.32.27-.22-.05-.21-.14-.46-.06-.5.22-.31.15-.18.71-1.4,0-.6-1.23-4.65-.13-1c1.3-6.42,2.66-12.82,3.91-19.24l.12-.35.12-.2.2-.11,2.27-.28.33.19.24.6.34,1.29.29.68.08.11h0l.1-.13.77-.83,1.72-1.42.8-.78,1.91-2.25.29-.48.23-.6.19-.63.19-.58.45-1.05.09-.57-.15-.65c-.11-.28-.22-.57-.34-.85-.87-2-1.74-4.07-2.59-6.12,1.16-.49,2.31-1,3.47-1.5l-.08-.18-.07-.18-.07-.17c-.06-.12-.11-.23-.16-.35l-.08-.18c0-.12-.09-.23-.14-.35l6.55-2.89.07.1c.09.15.18.3.26.45l.09.14.08.22,0,.17.08.09H434l.37-.06.34,0,.35,0,.38,0,.24,0,.49.1h.63l.13,0,.12.08.11.15.11.14.11.08.46.06.07-.29-.09-.45,0-.45.12-.22.21-.09.24,0,.21-.05.33-.22.16-.07h.48l.2-.08.17-.14.16-.18.14-.17.09-.17.06-.17.09-.19.18-.26.23-.24.28-.19.28-.08.32.08.45.15.42,0,.19-.27-.11-.32-.22-.27-.19-.31,0-.45.13-.4.23-.36.29-.27.32-.12h-.07l.14-.21.18-.12.42-.18.15-.13.22-.34.6-.42.36-.41.06-.16V346l0-.15.13-.12.33,0,.17,0,.05-.43.57-.19v-.31l-.11-.86.44-.5,1.31-.46.56,0,.08,0,.1.06.09.08.06.08.07.07.08,0,.08-.07.08,0,.12.08.13.1.12.06.12-.12v-.14l-.14-.64-.26.08h-.25l.11-.2.19-.14,1.14-.52,1.31-.15.32-.27.14-.4.38-2,.07-.21.14-.14.21-.1.12-.12,0-.21-.06-.39.23.32.17.43.19.32.51,0,.77.36.61.07,1.68-.31,1.47.07.56-.17.49,0,.2,0,.12.09.21.27.12.1.32.07.41,0,.38-.13.18-.27,1.24-.69,1.06-1.26,1.09-2,.59-.89.25-.72-.23-.16-.19-.25-.11-.23,0-.05.19.07H466l.19-.07.19-.11,1.39-1.35,0-.39-.1-.47,0-.7-.07-.35,0-.09.05-.08,0-.16v-.31l-.06-.21-.11-.11-.14-.07-.21,0,.13-.16.34-.2.16-.32,1.13-1.49.56-.43.53-.59,1-.67.32-.32.09-.34-.23,0-.1-.4.05-.37.15-.31.2-.28.39-.35.07-.13v-.43l0-.19.07-.19-.23.08h-.25M346.24,117h.06v0l-.06,0m170.11,203.1-1.47.88-.34.32-.21.35-.72,2.69.19-.35.25-.29.16-.48.17-.95.17-.43.27-.34.35-.24.38-.16.06.51-.07.51-.17.45-.22.32.32.05.36-.32.26-.47,0-.4-.09-.36.12-.26.32-.38,0-.27,0-.26-.13-.12M524,216.25c-2.24-3.56-4.51-7.08-6.78-10.62-7.06,4.76-14.37,9.23-21.65,13.66-7.5,4.55-15,9-22.66,13.37q-11.71,6.66-23.6,13c-2.29,1.22-4.6,2.42-6.9,3.64l-.56-.06-.69-.36-.4-.44.33-.26,1.11,0,.63,0,.29-.19-.09-.29-.27-.24-.33-.24-.26-.26-.58-.86-.62-.79-.66-.68-.73-.49-.47-.18-.25-.15-.13-.2.05-.15.14-.14.1-.14L439,243l-.4-.11-.49.2-.47.28-.37.17-.38,0-.68,0-.65-.06-.28-.24.28-.17.51-.19.27-.3-.45-.46-.19-.13-.18-.13-.19-.14-.18-.08h-.24l-.1.14,0,.21-.06.2-.19.15-.3.07-.32-.11-.28-.36-.08-.49,0-.65.08-.63.08-.41.26-.68.31-.64.41-.56.45-.42.54-.38c.63-.47,1.25-.94,1.89-1.39l.87-.64.26-.12.29-.07.29-.06.26-.13.26-.44-.29-.4-.55-.32-.52-.19-.3-.05h-.28l-.28,0-.28,0-.65-.15-.33,0-.25.07-.48-1.86-.28-1-.37-.89-.35-.54-.41-.35-.44-.21-.43-.14-.34-.16-.21-.24-.17-.31-.23-.36-.5-.26-.6.07-.56.24-.36.25-.82.68-.32.48-.05.69.18.42.28.35.3.36.25.41,0,.5-.14.44-.07.4.29.4.57.56-.06.33-.41.17-.48.1-.44.14-.39.28-.29.41-.1.59.05.49.12.47.24.4.82.54.12.42v.53l.1.57.23.4.57.57.24.38.07.29v.52l.05.28.16.28.23.23.26.17.23.12.44.25.4.32.8.74.18.17.17.18.17.17.18.15.22.27.05.3,0,.6.09.52.18.54.25.53.29.5.23.35c.18.23.34.47.51.71l.22.35v.42l-.31.28-.42.19-.3.1-.3.25v.36l.15.46.11.53,0,.29,0,.18.08.15.14.22.2.24.19.21.08.21-.08.24-.2.48.18.41.33.44.29.61.07.49v.4l.1.35.34.33.24.19.23.25.23.24.24.19.19,0,.19-.05.2,0,.19.26,0,.22-.05.32-.08.32,0,.23-.1.39-.19.3-.24.23-.25.21-.27.36-.1.4,0,1.08v.37l0,.16-.09.08-.07,0-.08,0-.07,0-.05,0v.22l.06.54-.07.2-.26,0-.3-.44-.32-.58-.33-.43-.51-.24-.5-.05-.47-.1-.39-.39-.52-.75-.05-.3.17-.37.26-.23.4-.4.19-.5-.31-.5-.56-.17-.57.08-.6.11-.59-.09-.45-.1-.59-.08-.57-.15-.41-.34-.16-.5v-.36l-.1-.31-.48-.35-.54-.17-.53-.05-.51,0-.54-.17-1.16-.65-.58-.25-.57-.13-.64.14-1.1.71-.61.11-.17-.07-.34-.22-.16-.06-.3,0-.28.12-.25.17-.24.16-.21.13-.18.14-.14.2-.06.32,0,.35.07.35,0,.34,0,.33.06.6.25.66.12.55-.35.29-.22-.05-.22-.16-.2-.2-.23-.15-.39-.08-.39,0-.38.08-.34.07-.19,0-.18.1-.12.15-.05.25.11.31.19.27.17.26,0,.29-.12.14h-.21l-.22-.06-.19,0-.27.08-.23.15-.24.14-.29.05-.47,0L415,261l-.59-.16-.5-.32-.29-.48-.17-.56-.2-.51-.36-.36-.44,0-.32.27-.34.23-.46-.15-.24-.14-.46-.17-.23-.14-.18-.19-.16-.2-.15-.16-.19-.07-.34.13-.05.36.15.48.25.46.15.18.13.18.12.19.08.25v.28l-.06.26v.28l.17.32.17.21.1.19,0,.09-.21-.09-.22-.1-.17,0h-.16l-.2,0-.51-.19-.38-.35-.32-.48-.34-.58-.33-.38-.32-.21-.26-.25-.18-.56,0-.28V258l0-.22.07-.22.16-.2.25-.28.23-.3.05-.28-.1-.06a5.09,5.09,0,0,0-.45-.31L407,256l-.13-.2-.11-.22-.12-.21-.17-.17-.19-.15-.19-.14-.38-.24-.27-.25.1-.13.28-.06.22,0,.14-.28-.36-.37-.53-.37-.37-.26-.14-.19-.12-.21-.09-.23,0-.23-.05-.19-.08-.13-.1-.11-.11-.16-.24-.56,0-.31.23-.12h.38l.27-.11,0-.31-.13-.4-.24-.36-.37-.31-.41-.27-.32-.32-.12-.48.19-.27.37-.41.29-.44-.08-.34-.37-.17-.38-.11-.38-.19-.34-.44-.32-.44-.37-.2-.39-.07-.39-.09-.23-.07-.25-.09-.25,0-.18.07-.13.2,0,.17.13.2.16.28.18.62v.49l-.18.36-.36.23-.37,0h-.35l-.16.2.16.59.23.51.51,1,.71,1.55.19.56V252l-.33.32-.33.23-.24.34-.08.65-.16.4-.43-.39-.49-.64-.35-.37-.34.08.22.47.4.56.16.35-.21.11-.26,0-.26-.1-.28-.08-.26,0-.23.13-.2.16-.22.16-.38.11-.41-.11-.35-.36-.17-.66-.08-.63-.16-.57-.26-.57-.38-.59-.53-.78-.22-.41-.13-.46,0-.56.39-.9,0-.52c-.07-.33-.14-.67-.2-1l-.15-.52-.22-.38-.35-.32-.31-.23-.28-.31-.24-.53-.14-.69,0-.7c0-.44.05-.87.08-1.31l-.14-.34-.33-.31-.39-.26-.66-.36-.19-.07-.19,0-.15.09,0,.2,0,.23-.07.21-.28.1-.24-.32-.27-.45-.37-.28-.26-.05-.2-.07-.2-.14-.21-.27-.13-.28-.1-.3-.12-.28-.19-.23-.58-.23-.59.05-.55.2-.47.21-.47.16-.48.14-.51.11-.51.05-.9-.51L382.5,237l-.13-1.45-.56-1.06-.26-.13-.25-.09-.25-.06-.24,0-.31,0-.37,0-.37,0-.3-.15-.17-.19-.09-.23-.09-.24-.13-.25-.22-.24-.25-.16-.26-.11-.72-.22-.49-.17-.48-.19-.5-.22-.39-.27-.21-.35-.08-.4c0-.24,0-.49,0-.74v-.31l0-.29.08-.27.14-.27.12-.19.09-.23,0-.36.06-.26.13-.18.3-.3.1-.18.06-.21.06-.21.09-.2.11-.09.15-.09.13-.12,0-.17-.13-.26h-.2l-.22.08-.15,0c0-.25,0-.5.08-.75l-.07-.52-.38-.31-.82-.11-.39-.16-.33-.39-.14-.3-.09-.29-.13-.27-.2-.28-.23-.19-.26-.15-.25-.18-.18-.27-.17-.46-.15-.55-.1-.53v-.4l.24-.37.44-.28.5-.12.44.05.61.29.74.28.67.11.43-.29.05-.2v-.2l-.09-.22-.16-.26-.13-.31V218c0-.15.09-.3.13-.45l.06-.46.07-.16.17-.11.27-.07h.28l.27,0,.26-.1.22-.22.24-.38.06-.38-.35-.22-.34,0-.33,0-.33.05-.32,0-.18.08-.15.11-.16.1H376l-.14-.11-.05-.18v-.2l0-.16,0-.28-.06-.16-.14-.11-.2-.09-.4-.1-.61-.12-.56-.21-.27-.38,0-.21.1-.17.1-.15,0-.18-.18-.2-.34-.11-.58-.08-.45-.21-.34-.33-.68-.9-.32-.29-.34-.22-.33-.2-.3-.27-.33-.57,0-.56.13-.49.25-.31.25-.1.3,0h.31l.53,0,.1.08,0,.13v.24l0,.17-.07.16v.18l.1.23.24.14.34,0,.57,0,.5.12.5.19.5.22.52.17.29,0,.28,0h.28l.31.08.21.18.24.28.24.31.24.25.52.3.49.15.47,0,.47,0,1.27.2h.65l.34-.31-.07-.17-.41-.27-.09-.16.1-.26.23-.13.26-.07.22-.07.17-.64-.81-.78-1.13-.75-.74-.52-.2-.42.18-.31.27-.26.06-.27-.16-.22-.23-.17-.44-.24-.21-.13-.17-.12-.15-.12-.18-.18-.15-.12-.31-.22-.13-.11-.18-.22-.07-.19,0-.19-.08-.27-.09-.27-.1-.27-.07-.26,0-.24.09-.17.16-.12.11-.14,0-.21-.32-.31-.5-.27-.51-.2-.37-.14-.23-.1-.32-.16-.32-.18-.2-.16-.14-.24,0-.14.11-.1.15-.13.38-.17.54,0,.55.24c.25.28.49.57.74.86l.31-.07.33-.23.36-.12.47.15.46.3.47.37.48.36.26.13.21,0h.2l.25,0,.2.07.21.12.21.12.21.11.87.5.88.58.85.45.85.11.53-.09H385l.3.07.31.15.35.17.34.13.28.05.13-.06.08-.16.07-.17.08-.14.24-.17.25-.08L388,204l.16,0,.23,0,.26,0,.19.17.14.3.13.26.16.23.22.26.49.39.51.24.5.19.5.23.45.31.32.23.3.06.4-.16.49-.38.87-1,.47-.4.21-.08.48-.07.22-.06.22-.1.22-.09.22-.07.25,0,1.17,0,.57-.07.51-.18.87-.63c.5-.56,1-1.12,1.47-1.69l.83-.68.5-.19.56-.09,1.13-.1.54-.2.45-.39.39-.49.36-.49.35-.34.4-.18.46-.05.52.07.71.11.72,0,.7,0,.7,0,1.26,0,1.21-.12,1.13-.26,1.09-.42.43-.56,0-.95-.22-1.14-.66-2.37-.22-1.23-.12-1.19,0-1.11-.16-.61-.42-.34-.51-.14-.43,0-.5-.1-.37-.25-.28-.43-.22-.71-.16-.63-.13-.62,0-.57.08-.5.31-.44.82-.59.31-.46c.29-.54.6-1.08.9-1.61l.39-1-.08-.73-.31-.23-.4-.16-.4-.14-.34-.16-.27-.39-.15-.62-.11-.63-.13-.48-.46-.37-.52.23-.47.44-.34.26-.4,0-.43-.18-.44-.22-.42-.12h-.55l-.29,0-.29-.19-.21-.25-.18-.29-.19-.28-.21-.26-.36-.33-.35-.2-.34-.13-.38-.15-1.88-.64-1-.58-.75-1-.18-.58,0-.45.13-.36.17-.34.18-.49.1-.25.09-.21.16-.19.2-.12.21-.1.2-.14.1-.1.14-.2.08-.25-.05-.24-.26-.06-.33.21-.3.29-.16.17-.19.16-.2.14-.22.09-.26.06h-.26l-.28-.06-.28,0-.25,0-.33.21-.33.26-.36.18-.41,0-.13-.11-.08-.13-.1-.08L398,170l-.14.06-.12,0-.07-.13v-.23l0-.18.05-.17v-.14l-.16-.13-.18,0-.17.16-.15.22-.1.19-.1.38-.2.57-.27.34-.33-.33c-.16-.3-.31-.61-.47-.92l-.12-.42,0-.41.24-.28.36-.33.24-.41-.14-.51-.44-.28-.62-.06-.57.08-.32.13-.17.19-.16.16-.18.1-.27,0-.08-.06-.1-.1-.22-.19-.14-.05-.12,0-.12,0-.13-.08,0-.47-.17-.56-.33-.53-.42-.36-.16,0h-.21l-.21-.06-.19-.18,0-.21.16-.13.22-.06.14,0,.66-.14.57-.18.51-.28.47-.46.2-.39-.11-.25-.32-.13H393l-.35-.11-.21-.37-.18-.47-.22-.39-.25-.19-.23-.07-.24,0-.22,0-.29-.13-.2-.16-.17-.2-.27-.26-.4-.22-.38-.1-.39-.13-.41-.29-.23-.38-.13-.48,0-.48v-.37l.2-.26.33-.32.16-.36-.3-.41-.41-.43,0-.42.14-.39.19-.31.16-.1.26-.08.22-.1.08-.16-.14-.24-.23-.14-.25-.08-.19-.1-.29-.34-.19-.42-.06-.41.08-.31.08-.21-.09-.12-.19-.12-.21-.19-.1-.19-.13-.31-.11-.33-.07-.21.06-.41.23-.28.15-.35-.15-.6-.14-.21-.17-.16-.14-.16-.09-.21,0-.35v-.33l0-.33-.09-.37-.25-.31-.45-.24-.42-.1-.18.14c.16.38.3.77.45,1.16l.14.61-.28-.07-.36-.49-.18-.47-.1-.48-.14-.53-.11-.24-.1-.2-.05-.19.05-.17.08-.19.05-.22.06-.2.09-.16.23-.27.16-.31-.06-.34-.44-.32-.33-.19-.34-.31-.31-.38c-.17-.32-.33-.64-.49-1l-.33-.51-.3-.5-.15-.47.05-.46.2-.39.22-.37.12-.44,0-.45,0-.6-.19-.58-.4-.45-.22,0-.17.14-.12.23v.28l.1.25.1.24.1.24.07.24-.05.4-.35-.13-.8-.67-.38-.19,0,.19.11.37v.37l-.11.14-.13-.06-.17-.19-.2-.2-.18-.08-.17.07-.17.07-.18,0-.27-.25-.26-.35-.25-.33-.25-.17-.23,0-.21,0-.22,0h-.22l-.2.06,0,.21.15.27.11.26-.25.39-.81-.53-.94-.86-.62-.63-.37-.32-.79-.55-.35-.34-.3-.49-.24-.5-.27-.29-.38.13-.2.12-.19,0-.22,0-.27,0-.22,0-.19.1-.18.12-.19.11-.35-.08-.25-.43c-.12-.36-.25-.72-.37-1.09l-.22-.87.19-.57.39-.37.42-.3.12-.16L371,130l0-.29,0-.3-.08-.3a6.65,6.65,0,0,1-.27-.61l-.1-.28-.08-.26-.08-.22-.05-.2v-.24l.12-.33.21-.26.45-.43.09-.33-.08-.42-.07-.45.09-.37.35-.28.41-.15.33-.26.09-.59-.05-.34-.12-.24-.19-.16-.28-.11-.18-.11-.15-.19-.14-.21-.16-.18-.5-.22-.21.28-.1.47-.14.36-.26.25-.22.14h-.29l-.46-.23-.36-.3-.28-.36-.22-.44-.16-.52-.08-.74.15-.41.32-.24.4-.18.15-.16.17-.48.16-.16.22-.06.22-.06.22-.06.2-.11,1-.73.5-.38.48-.42.31-.36.2-.45-.1-.49-.59-.47-.29-.15-.28-.14-.27-.14-.29-.11-.3-.07-.27,0-.25.06h-.29l-.44-.06h-.42l-.34.18-.2.4v.76l-.06.21-.17.22-.25.14-.27.12-.25.09-.35.29-.22.46-.14.58-.1.6-.17.48-.28.2-.38,0h-.61l-.18,0-.19-.09-.2-.17-.17-.28c-.06-.2-.13-.4-.19-.59l-.16-.29-.47-.39-.42,0-.35.18-.28.2-.25.11-.27,0-.28,0-.27.06-.22.15-.39.38-.23.13-.47,0-.47-.15-.49-.17-.48-.08-.29.18-.27.83-.28.21-.16,0h-.25l-.27,0-.17-.16,0-.18.1-.21L357,119l-.09-.22-.14-.09-.15-.07-.15-.09-.1-.14,0-.16c0-.23,0-.45-.05-.68v-.2l.12-.5.26-.4.36-.21.44.07.21.13.16.11.17.08.21,0,.25-.06.21-.09.23,0,.3.08.23,0,.19-.09.19-.09H360l.33.06.27,0,.25-.1.23-.15.27-.2.32-.34.08-.43-.42-.46-.26-.15-.25-.14-.25-.1-.24-.06-.31,0-.56.21h-.31l-.39-.22-.23-.39-.21-.41-.3-.32-.16-.09-.17-.06-.17-.09-.17-.15-.16-.32-.05-.3,0-.3-.11-.28-.16-.18-.18-.1-.18-.09-.16-.17-.11-.23,0-.24v-.39l-.17-.39-.35-.23-.3-.21,0-.3.1-.13.09-.18,0-.17-.2-.16-.22-.15-.07-.18,0-.19c.07-.16.13-.32.19-.48s.16-.34.25-.51l.13-.26.11-.19.11-.18v-.2l-.17-.23-.46-.22-.43.08-.34.26-.21.31-.15.41-.15.44-.16.41-.21.35-.2.32-.19.33-.25.2-.38,0-.23-.11-.21-.12-.21-.16-.22-.19,0-.07,0-.09,0-.1-.08-.08-.11,0-.08,0-.08,0-.08,0-.39-.14-.23-.29-.15-.41-.12-.51,0-.11v-.09l0-.11-.05-.13-.08-.11-.09-.07-.09-.06-.08-.13-.1-.29-.05-.31,0-.32-.08-.3-.09-.21-.1-.12-.11-.08-.13-.14-.24-.3-.27-.33-.09-.09-.11-.1-.11-.1-.07-.1,0-.08,0-.11v-.13l-.08-.14-.07-.13-.1-.11-.17-.09.05-.27.11-.17.12-.16.1-.2-.06-.18-.42-.22-.12-.22.16-.38.43,0,.3-.14-.21-.73L348,99l-.34,0-.34.12-.32.06-.19-.06-.19-.06h-.16l-.13.11-.11.18-.11.09-.14,0-.22-.16-.17-.16-.16-.2-.17-.2-.18-.17-.2-.11-.19-.11-.13-.13,0-.23.15-.13.27,0,.29.06h.23l.17-.09.12-.17.22-.36.11-.12.12-.13.05-.16-.12-.24-.44-.16-.18-.15.11-.17.49-.26.51-.28.1-.12-.06-.19-.15-.2-.21-.21-.61-.5h-.41l-.32.26-.32.33h-.3l-.54-.16-.54-.25-.33-.26-.18-.61.16-.49.32-.4.29-.25.22-.14.49-.21.21-.15.37-.37.2-.16.24-.1v0l-.17,0-.75-.18-.2-.1-.26-.1-.5.18h-.24l.09.15h.1l.06,0,.18.15-.12,0H343l-.47-.08-.23,0-.38.2-.11,0h-.12l-.1,0-.06.14.07.12.32.13.18.26.08.35,0,.42,0,.37-.1.29-.34.52,1.16.39.23.26-.1.26-.3.13-.22.2.11.44.18.38,0,.06h-.13l-.07.12,0,.14.1.16.1.13.05,0,0,.09,0,.21,0,.13-.11-.12h-.09l-.11.15-.09.21,0,.16.08.2.19.07H343l.09.61L343,99l-.57.29.08.13.12.1.15.29.17.17.2.08.2,0,.2.05.22.19-.17.07h-.18l-.16,0-.09.18.65.2.28.19.05.3-.36-.24-.12,0h-.18l-.15,0-.05.06,0,.06.07.08,0,.08,0,.07.06.08,0,.09v0l0,0-.12.21-.07.07-.31.12.08.15.56-.09.3,0,.25.24,0,.33-.31,0-.38-.07-.16,0-.1-.06h-.1l0,.09.1.2.11.11.31.15.15.15-.09.18,0,0,.07.13h.34l.82.28.57,0,.43.13H346l.73-.21.08.15-.66.3-.37.06-.41-.07-.61.06-.5-.25-.26,0-1.2,0-.13,0-.1.11-.06.27-.12.11-.06.14.1.18.16.19.17.16h-.18l-.25-.06h-.22l-.08.19.1.35v.15h-.09l-.1,0h-.31l0,.05h0V106l.54.26-.07.31-.24.37,0,.5.3.16.27.26,1.1,1.34,1.6,1.54.31.19.25,0,.79-.34.8.06.57-.08.27,0,1,.5.7.28.69.13.58-.05-.12.2-.45.06-.1.08-.16-.08-1.62-.44-.12-.09-.11-.13-.1-.14,0,0-.06,0-.06,0-.05,0-.52,0-1.27.35-.14.12-.28.44-.35.14h-.86l-.34.14.32.25.34.06h.34l.31.06.06.12-.26.14.07.14,1.09-.08.41.18-.41.1-.09.14,0,.33.19.44.23.26.24.1.23-.05,1.07.9-.11.11-2.19-.84-.66-.12-.08.33.19.32.28.4.27.33.19.12h.21l.53.28.25,0,.08.14-.14.18-.44,0-.09.12,0,.18,0,.11V117l-.11.09,0,0-.12-.06-.14,0h-.05v.19l.63.73.18.36-1.13-.8-.5-.23-.54.09-.11.06v.08l.06.11.08.2.2.18,0,.25.28.23.21,0h.2l.27.11-.1.17,0,.17.05.23.17.34.14.11.83.5.47.53.19.15h.2l.21-.14.17-.18.09-.19v-.15l0-.12-.05-.11,0-.17,0-.12.1.06.11.12.07.06.18-.06.55,0,.61.18.73-.4.42.08.08.13-.22.28-1,.35-.41,0-.33-.09h-.14l-.19.07-.1.1-.26.44-.06.18.59.3.15,0,.19-.07h.2l.22.09.24.22-.12.14-1.24,0-.83-.39-.27.15-.08-.13-.29.52-.19.21-.24.14.41,0,.14,0-.32.14-.11.14,0,.26,1.21,0,.15.06.14.08.16.11.15.19.11.26,0,.19-.12,0-.35-.23-.8-.28-1.46-.08-.15.09.15.3.33.21.32.25.11.39-.06.1-.45.39-.1.28-.31.33.13.25.32.18.38,0,.61-.06.87-.33.1,0,.06.21,0,.17-.1.24-.24.29-.94.26-.09.42-.73-.4-.12,0,0,.08,0,.29.09,1.4-.06.27.21.06.67,0,.13.14.23.36.21.41.1.27h.31l.55-.22.31.16.06.12.28.38.26,0,.26,0,.31.11.07.1.37.44h0l.09.07.42.09-.1.18-.4,0-.12.15v.17l0,.16.06.15.1.2.1.23v.14l-.06.1-.16.71,0,.35.08.28.23.1.28-.06.28,0,.2.31-.05,0-.2.26v.09l.2.34.06.13v.29l-.1.13-.15.1-.15.19,0,.31.09.35.12.33,0,.27-.08.12-.18-.09-.44-.36,0-.49.36-.57.07-.37-.17-.47-.36-.47-.37-.38-.16-.2-.06-.15-.11-.28-.07-.31.08-.27v-.16l0-.18,0-.12-.07-.16,0-.05.06,0,0-.12,0-.31-.06-.32-.11-.27-.18-.19-.19,0-.36.1-.2,0-.08-.33-.18-.09-.2.07-.14.21-.14.11-.25-.07-.26-.19-.21-.19-.24-.29-.19-.29-.17-.2-.18,0-.19,0-.65-.07-.25-.08-.54-.4-.27-.14-.51,0-.83-.32-.06-.08,0-.11,0-.07-.18,0-.17,0-.08,0-.07.09,0,.13V129l0,.06-.15.12-.14.2-.09.25v.28l.22.14.14.33,0,.35-.09.22.16.15.14.06h.31l.06.53-.25.2-.32.13-.17.32.2.59,0,.29h-.15l-.16,0,0,.18.16.26.16.18.16.24v.32l0,.33,0,.31.15.27.21.28.1.24-.1.18-.23.27.24.24.74.32-.14.24-.26.12-.57.11-1,.47.26.37,0,.3-.16.45.05.09.08.25,0,.19-.12-.14-.12-.1-.16,0h-.3l-.25-.8-.4-.14-.35.22-.08.3.05.23.05,1-.07.28-.14.17-.4.2.23.24.14.13.09.12.09.25,0,.29,0,.17-.1.11-.14.07-.18-.05-.27-.12h-.23l-.12.29,0,.5-.06.21-.1.15-.59.4-.28.39.06.89-.32.22L338,145l-.28.16-.11.28-.06.34-.05.74-.05.1-.18.06-.06.06v.11l0,.61.12.56,0,.91.06.53.21.37.31.26.22.27.14.33v.43l-.12.68v.36l.18.5.26.31.14.22.06.19-.08.08-.15,0-.17-.08-.1-.09-.21-.4-.1-.44,0-.41v-.34l0-.31-.23-1-.6-.64-.41-.58-.22-.65-.08-1.16-.08-.33-.17-.3-.27-.28-.27-.15-.26,0-.22,0-.16.16v-.33l-.37-.39-.09-.25.12-.71-.4-.38-.05-.5v-.45l-.25-.28-.29,0,0,0-.08-.12-.06-.07-.08-.05-.28-.09-.24,0-.19.05-.08.18.05.12.18.3,0,.13v.62l0,.19.07.21.6,1.27.22.3.37.33-.23.62,0,.47.23.42-.29.21-.25.31-.14.41,0,.54.2.86v.22l-.08.26-.27.38-.08.24,0,.76-.1.32-.2-.19-.09-.32-.14-1.34.35-1.32.16-.19.38-1.34,0-.39,0-.43-.13-.42-.16-.35-.08-.06-.68-.41-.14-.12,0-.07,0-.11-.07-.14-.13-.13-.1-.07-.07-.07-.07-.08-.07-.13-.34-.85-.06-.35v-.38l-.1-.31-.33-.15-.26.12-.17,0-.2,0-.06-.12-.07-.45-.47-.41-.41,0,0,.65.18.35.12.15v.1l-.18.16-.19.1-.26.06h-.27l-.18-.09-.06.24v.65l-.06.16.06.19.65,1.16.05.15,0,.2,0,.18,0,.09v.11l.11.19.13.19.06.13,0,.86.07.47.15.48.15.32.16.37,0,.34-.2.24-.07.24.1.46.18.51.42.85.1.27,0,.29v.46l-.06.17-.24.24-.07.18v.19l0,.2,0,.21,0,.2-.35.6-1.22,1.11-.79.45-.52.73L325.75,159l-.64,1.07-.58.62-.09.26-.05.37-1.42,3,.67-2.51.52-1.11L325,160v-.11l.31-.52,0-.22v-.22l0-.2,1.11-.88,1-1.34,1.89-1.27.32-.46.37-1.85.13-.32v-.2l-.08-.27L330,152l-.15-.2-.13-.22v-.13l0-.24-.39-1.39-.26-2.38-.22-.91-.21-.43-.06-.19.09-.25-.1-.23-.17-.22-.15-.15-.23-.33-.15-.5-.15-.86-.23,0-.21.6-.2.16-.27-.11-.08-.32-.06-.42-.19-.38-.29-.15-.34.36-.26-.14-.23-.41-.13-.82-.17-.35-.15-.09-.51-.13-.12-.05-.13-.2-.22-.45-.06-.24,0-.41-.07-.22-.17-.22-.17-.08-.28-.1-.17-.15-.12-.16-.15-.08-1,.22-.11,0-.57-.34-1.06-.25h-.32l-.93.28h-.3l-.12-.05-.1-.08-.11-.05-.15.05-.66,1.38-1,.37v-.11l-.05-.23v-.13l-1.47.65-.59.42-.72.22-.21.2-.15.34-.21.17-.15.18-.09.08-.15.17-.09.31V143l.07.31-.35,1-.65.7-.29.48v.55h-.08l.16.33.05.2v.29l-.17.18h-.06l-.21,0-.07,0v.09l0,.18v0l0,.48,0,.4-.18.64,0,.28.1.42-.17.11-.28-.06-.25-.13-.29-.21-.17-.15-.11-.14V149l.05-.42,0-.1.1-.09.09-.16.07-.18v-.18l-.06-.24-.07-.07-.51,0-.21.08-.15.23-.06.39-.11.2-.26-.28-.26-.47-.16-.35-.07-.43-.06-.23-.08-.08-.2.17-.08.12,0,.35-.15.32-.21.28-.18.12-.09-.05-.21-.23-.06,0-.79.36-.16,0-.38-.19-.3.07-.51.37.11-.36.16-.19.8-.2.61-.45.07-.1.07-.35.06-.13.12-.11.44-.13.19-.13.53-.68-.06-.13-.13-.11-.41-.48.19-.08h.18l.19.09.19.16.41.29.26.1.16-.09-.07-.23-.19-.32-.24-.31-.17-.18-.22-.81-.45-.45-.51-.15-.42.12.08-.15.05-.2,0-.26-.13-.36-.42-.57-.17-.31.08-.22.37.17,1,1.1.39.09-.09-.38.37,0,.44.28.09.61.13.14.11.09.12,0h.12l-.11-.31.06-.13.14.11.19.39.05.29,0,.26-.12.48L310,145l.32.19.24-.09.65-.65.07-.24-.07-.46-.15-.51-.14-.37-.07-.27.11-.06.19.06.15.1.16,0,.07-.17v-.39l-.07-.14-.45-.6-1.69-2.59.18,0,.12.07.13.15.21.19.15.11.23.13.17,0-.11-.66.08-.43.28-.67-.23-.25-.2-.1h-.19l-.19.06-.06.07-.1.25v.05h-.12l-.06,0-.06-.05-.09-.06-.23-.2-.13,0-.06.17v.08l0,.09,0,.09,0,.09,0,.24-.18,0-.25-.1-.19-.17v-.17l-.14-.12-.05-.1v-.18l-.22-.26v-.39l.38-1.2.1-.08.18,0,.09.13.08.16.11.11.1,0,.14,0h.14l.1-.11,0-.18,0-.06-.08-.09-.18-.41-.08-.15v-.12l.17-.07.11,0,.49.29h.22l.23-.18.17-.29,0-.31-.2-.27-.16-.18-.1-.07-.22,0-.07-.26v-.26l0-.1-.29-.4-.29-.12-.23.13-.22.55-.2.12-.17-.08V133l-.32-.19-.32-.08h-.29l-.23.11-.56.91-.38.16-.1.09-.11.29-.07.08,0,.06v.21l-.06.08-1,.47-.17,0-.25-.16-.16-.25,0-.27.85-.9,0-.3-.05-.16-.12,0-.31.14-.07-.23,0-.18,0-.15.08-.11-.17-.22-.19-.2-.17-.17-.14-.11-.18-.06h-.17l-.12-.09-.06-.27-.37.2H303l-.16-.06,0,0v-.09l-.09-.24,0-.18.15-1.15.16-.47.23-.39.28-.24.17-.27.11-.53,0-.62-.31-.53h-.14l-.59.19-.12-.06-.08-.08-.08,0-.14,0-.21.09H302l-.13,0,.06-.17.06-.46.28-.33v-.53l.11-.21-.19-.06-.19,0-.18,0-.16,0-.1-.07-.06-.23,0-.35-.09-.14-.1-.14-.08-.18,0-.26.12-.42v-.11l-.38-.11-1.54.14-.6-.16.26-.09.07-.21-.08-.33-.2-.47-.25-.14-.34.14-.78.58-.86.3-.9.7-.64.21-.67,0-.68-.21h-.14l-.87.59-.18,0-.39-.06-.18,0-.2.13-.55.67-1,.29-1.73-.05-.56.12-.43,0-.6.1-.24,0-.58-.24-1.23.24.3-.35,3.93-.34.52.22.24.05L290,125l2.3-1.24.15-.21-.29-.14h-.1l-.07-.14.48,0,4.08-1.25.94,0,.24-.15.09-.36-.28-.12-.4,0-.23-.06-.24-.59v-.33l.2-.12h.37l.55.18h.14l.06-.11-.05-.31.08-.1.46-.26.1-.24-.19-.34.13-.21-.09-.28-.18-.31-.18-.38-.08-.42-.06-.23-.09-.08-.5.22v-.27l.09-.5v-.25l-.25-.15-.45,0-.21-.23-.14-.14-.75-.55-.11,0-.24.08-.11,0-.22-.16-.11-.11.08-.25v-.33l0-.38-.06-.28-.18-.16-.31-.49-.16,0-.24,0-.12-.09,0-.21v-.32l-.07-.33-.21-.18-.52-.23-.49-.42-.16-.1.12-.29,1-.92.11-.31-.08-.37-.23-.26H293l-.16,0-.08-.38-.12-.38-.26-.32-.28-.23-.2-.11.08-.2.22-.37.14-.1.06-.14.11-.77.17-.38.46-.65.56-.37.24-.32.11-.43-.12-.53-.11-.14-.35-.4-.16-.26-.11-.27-.09-.51-.08-.27-.45,0-.12.06-.17-.36-.32-.41-.33-.33-.22-.1-.18-.12-.84-.93-.27-.24-.26-.15-.26,0-.28.08-.13.13-.08.38-.06.1-.14.13.05.18.12.16.07.14v.2l0,.25,0,.22.06.2.17.43,0,.16.12.33.29.28.3.21.21.18.19.68-.28.38-.47-.08-.36-.73-.31.23-.28.48-.19.57-.07.49-.08.1-.13.31-.06.3.15.06.18-.14.23-.43.16-.15,0,.28-.13.43,0,.26-.07.19-.21,0-.34-.15-.1,0-.28-.2-.11,0h-.09l-.45.22-.18,0-.14-.14-.06-.39-.27,0-.72.3-.07-.15.42-.33,0-.19,0-.11-.1-.12-.09-.1,0,0-.08,0,0-.15,0-.26v0l0-.09,0-.13-.05-.12-.08-.14-.06,0h-.06l-.09-.1-.25-.32-.06-.19.06-.2-.14-.12-.13.29-.23.07-.2-.16-.09-.41,0-.14.15-.32,0-.1-.1-.17-.13,0-.14.06-.14,0,0-.22-.15,0-.32.13-.1.12-.07.18-.08.16-.17.06-.09,0-.25-.17h-.36l-.12,0h-.18l-.09.17,0,.27.19.29-.21.06-.53-.19-.25.06.07.14.11,0,.08.06.21.22-.15,0-.08,0-.1,0,0,.23.11.16.17.16.19.25-.33.07-.12,0-.08-.08-.13-.26,0-.06-.21-.06h-.22l-.19.06-.1.17.06.12,0,0,0,.06.05,0-.08,0-.16.1h-.08l.14.19.15.12.14.07.13,0,.08.15-.2,0-.65-.17-.56.37-.23,0,.08-.31.06-.07-.07-.15-.88-.23h-.41l-.08.31.15,0,.14.11.05.13-.1.11-.15,0H278l-.15,0-.14-.1.07,0-.37,0-.88.4-.06-.42-.21-.25-.28-.11-.94,0-.33.11-.15.23-.16.07-.69-.08-.1.07.1.36-.14,0-.25-.19-.2-.19-.08-.38-.18.07-.32.4-.87.51.32.41h-.14l-.28-.19-.13-.13-.79-.51-.17-.16-.24-.35-.27-.2h-.26l-.16.22,0,.33.15.28.23.24.26.19-.08.17-.1.15-.15.13-.17.1-.12-.08-.05-.27,0-.56-.11-.11-.14-.16-.12-.12-.14,0-.09.09-.09.39-.1.12-.11-.38,0-.28,0-.58-1.12,0-.38-.08,0-.12.2-.43.06-.29,0-.34-.2.07-.43-.08-.23,0-.39.21-.22,0-.22-.08.06,0,.13-.2-.07-.15-.08,0-.23,0,1.17-.3.28-.28,0-.17v-.16l0-.14.16-.11.3-.46-.41,0-1,.61-.71,0-.57.22h-.41l-.06-.13.67-.53.29-.42,0-.45-.13,0-.13,0-.31-.08-.06-.15.09-.17-.08-.19-.14-.16-.09-.06-.32.25-.18,0-.18-.18.44-.37,1.09-.38.45-.36,0-.15-.05-.14,0-.13.14-.12.46,0,.09-.1-.05-.3-.21-.22-.25-.13-.18,0,.2-.08-.22-.21-1-.45-.28,0-.63,0-.26-.11-.11,0-.52.06L262,96l-1,.09-.13.12.09.13.25.14.16.14.1.07.09.12.08.31v.15l-.06.11,0,.13.05.2.1.25.05.21v.16l-.1.1-.31.08-.11.09-.23.33-.11.09-.34.14-1.09.14-.17.16-.32.82-.06-.8.2-.43.4-.15.81,0,.22-.06.18-.14.13-.27.13-.66,0-.45-.07-.38-.09-.13-.13-.11-.14-.06-.22,0-.09-.12-.08-.18-.12-.17-.26-.17-.24-.09h-.73l-.09.06-.07.35-.07.12-.11.08-.12,0-.26-.17-.15-.32v-.3l.22-.12-.06-.13H258l-.18-.05.47-.35.17-.08-.19-.13-.5-.24-.18-.16-.11-.15-.11-.17-.16-.19-.41-.2-1.26.3L254,93.77l-.85.13-.34-.11-.09,0-.06.51.23.56.37.53.35.46.29.57-.36-.06-.55-.47-.32-.66-.19.26-.11.72-.13.31-.39.16.41-1.74,0-.18-.14-.34-.18-.35,0-.14.06-.18.43-.33.07-.2-.11-.34-.16-.37-.06-.28-.19-.12-.13-.15,0-.16.1-.13-.2-.2h-.21l-.36.18.1-.52,0-.46-.2-.27-.65,0-.43-.26-.21,0-.18.07-.43.34-.11.2.56.24.06.15h-.46l-1.21.34.08-.14.1-.09.08-.13,0-.23-.44-.23-.47-.12-.47,0-.37.07h-.17l-.14-.14-.13-.19-.18-.14-1.45-.52-.28-.26-.11-.46-.19-.29-.43,0-.71.11-.31-.17-.31-.26-.31-.21-.32,0-.14.12-.08.15-.1.1h-.2l-.11-.06-.11-.09-.12-.1-.16,0-.29.06-.19.11-.21,0-.38-.31-.75-.79-.23-.2-.31-.11-.23.11-.42.36-1.1.58,0,.18v.32l-.05.33L236,89l0,.32V90l-.08.24-.14.2-.57.42-.29.66-.13.12-.17.09-.18,0-.33-.14-.11.09-.1.13-.27.27,0,.57-.11.31-.27.2-.11.13v.2l0,.12-.09.17-.17.22-2.74,1-.12.19-.06.36V96l.13.32.24.21.78.4.54.07.69.29.3,0,.06.14-.4.11h-.82l-1-.29-.16-.07-.21-.29-.07-.08-.1,0-.67-.28-.71-.45-1.38-.32-.48.06-.33.27.07,0-.14.17-.06.64-.17.13-.1-.5-.12-.36-.18-.24-.3-.1-1.65,0-1.24.79-.17.2-.38,1.3-.7.78-.07.17-.38.6-.32.3-.22.5-.13.16-.6.2.33-.62.06-.22.1-.21.36-.23.1-.22.18-.6,1-1-.05-.13-.82-.26-1.77.21-.33-.14-.65,0-.36-.27-.13,0-.16.08-.21.3-.14.1h-.11l-.24-.14h-.15l-.12.11-.11.14-.11.1-.17,0-.06-.1-.25-.38-.14-.14-.19,0-.4.12-.36-.15-.88.12-1.1-.2L212,97l-.85-.27-.58.22-.32,0-.36-.13,0-.15-.23-.12-.4.08-.19-.09-.23-.16-.25,0-1.56.24-.15-.07-.15-.11-.19-.09h-.22l-.22.14-.18.22-.12.37-.1,0-.11-.12-.12-.06h-.13L205,97l-.11.15-.07.06-.06-.07L204.7,97l-.11-.08-.12,0h-.08l-.73.19-.11-.08-.24.09-.82.09-.07,0,0,.06-.05,0-.12,0-.1-.11-.2-.34-.07-.06-.68.08L201,97l0,.2-.06.53,0,.25-.62.55-.3.44,0,.62,0,.28-.23.17-.48.16-.16.15-.7,1.17-.15.1-.08.09-.09.34-.32.34-.33.1-.1.14-.42,1.15V104l.08.28,0,.2,0,.15-.11.08-.16.29.16.49.43.82.09.41.05.5.09.5.21.4.23.34.2.42.5,1.42.21.5.24.39.44.25.22.36.19.4.17.26.05.45.09.33.17.3.25.31.32.32.14.17.11.19.18.35.09.14.12.14.07,0,.07.07.12.24.15.49.1.21.27.31.32.2.32.1,1.25-.35.09-.24.06,0,.53.64.17.17.18.11.56.58.28.08.86-.25.31.06,0,.13-.14.11-.19,0-.15.07,0,.26.93-.15.53.12.41.41-1,.12-.47-.22-.19.06-.16.13-.09.17.08.58.46.27,1,.23-.15.39-.32.23-.74.23.24.51-.16.21-.31,0-.24-.29-.15-.06h-.25l-.08.2.68,1,.26.49.21.5.38,1.08.08.14.22.19.07.11.07.31v.21l0,.18v.24l.53.14.23.19v.36l-.45.32-.08.12,0,.44-.05.11.05.22.19,1.26.1.24.11.22,0,.17-.11.11-.26.05-.14.06-.06.11-.08.33-.7,1.69v.26l0,.24-.49.93-.07.72-.09.32-.22.18v.22l.2,1.45,1.09-.66.34-.11.69-.71.39-.26.45,0-.66,1,.85-.43.27.09-.08.45v.24l0,.25,2.77-2.83.49-.21,0,.14L211.75,135l-.15.39.7-.43.4-.1.35.25-.16.16-.31.59-.13.6-.11.24-.29.44-.35.8-.14.14.05.13.68.66.27.2,1.11.45.22,0,.46-.21.1-.08.17-.26.09-.1.31-.13.88-.07.32.08.29.18-1.35.41-.06.12v.14l.06.27V140l-.15.42-.8,1.11-.15.47,0,.48.14.45.43.37.25.07.5,0,.24.09.07.1,0,.15,0,.11.2,0,.13.08.24.22v.75l0,.35.13.11.16-.14.25-.43.22-.09L217,145v.11l.14,0,.29.12.9.59-.16.22-.23.11-.49.08.18.24.26.24.47.34.29.12.9.14,0,.13-.59.1-.1,0,0,.1-.12.1-.12.08h-.08l-.27-.13L218,148l-.34.46.16.21.09.08.11.07-.06.2-.23.33-.08.22.49-.15.11,0,.22.14.09,0,.82-.25.65-.06v-.07l.05-.31,0-.11.12-.07.13,0,.15,0,.15,0,.09.39.24.07.27-.1.76-.74.26-.13-.1.38-.29.36-.34.26-.3.12.2.2.27.07.27,0,.2-.07,0,.16-.23.05-.52.32-.16.21.23,0,.22.12-.25.12-.2.16-.14.24-.12.33.1,0,.11,0,.11.07.13.14-.13.12-.44.15-.11.17.12.1.27,0,.3.08.23.27.23.36,1.1,1.19-.08,0,0,.16-.21.1-.95.22-.2.15-.11.28,0,.29,0,.23,0,.19-.25.13-.17-.05-.21-.11h-.15v.34l.2.11.19.18.19.12.18,0,0,.26-.13.13-.15.08-.1.12.09,0-.07,0v0l0,.1L222,157l.24.08.2.23.22.37.14.38v.26l.39.32.51.13.84,0,0,.12-.93.24-.52,0-.4-.27-.13-.64-.43-.4-.89-.39-.17-.15-.13-.14h-.09l-.06.22-.12.17-.24.15-.4.14-.17-.08-.26-.31-.15-.05-.8.09.21.06.23.11-.06.21-.1.14-.14.08-.17,0,.14.21.17.24.33.37.2.11.29-.07.17.15.2,1,0,.26.14.34v.21l-.88,1-.25.62.55.46.05.15-.22.06-.2.17-.12.27,0,.36.18.28h.21l.19-.13.15-.14.28-.5.19-.19.24.08,0,.06.09.24,0,.05h.07l.12-.05.19.09.07,0,0-.13,0-.17.16.07h.28l.17.05-.94.76-.21.38.5.24.1.2-.08.35-.23.22-.63.18-.21.24.24,0h.44l.26.14-.54.44-.23.34-.45.16-.13.18-.22.46-.7.61-.21.46.17.2.22.51.15.23-.15.18-.39,0-.15.19.32.27.21.3.05.33-.16.37-.24.11-.39-.35-.19.17.43.65.09.22v.22h-.19l-.24-.1-.16-.11-.05,0-.07.13-.07.15,0,.13.05.14.1.14.1.09h0l0,.35-.07.21-.1.19-.1.26.07.05,0,0,.05.06.12-.19.16-.15.35-.17-.28.62-.11.36V175l0,.12.06.17v.16l-.29.3-.12.08-.09-.08-.07-.42V175l-.09-.16-.37,0-.21.1-.23.23-.08.36.26.48h-.25l-.29-.23-.31-.32-.29-.22h-.38l-.09.27.15.26.32-.06v.3l0,.14,0,.14.13.31.24.41.31.45.31.3.14.15.13.23.12.27.07.29v.23l-.1.12-.05-.08-.2-.13-.18,0,0,.17.11.31.08.16.13.11.58.28.16.13.18.21.15.27,0,.18-.12.06-.16-.07-.17.19.05.24-.14.12-.22.09-.15.16.22.18,0,.26v.32l.17.36.27.2.25-.05.49-.29h.12l.13.08.12.14.2.38.11.05h.13l.13.08.33.27.36.15h.32l.22-.24-.9-.45-.53-.38-.27-.37.17-.25.51.2.91.67.58.66.1.16.18.15.8.09.84.42.17.16.15.22.19,0,.33-.16.16.06.36.3.22,0,.18.06.07.25v.55h.24l.77.33,2.31.24.79.39.25.07.85-.1.3.06,1,.63.8.18.22.13.25.35-.05.17-.18.12-.16.2.93.17.26-.07-.07,0,.23.16.52.45.26.17.23.06.46-.05.23,0,.9.41.86.61.17.19.29.42.13.15.14.11.09.06.09,0,.12,0h.12l.09.08.08.13.11.13.22.22,1,1.17.18.14.19,0,.08.14.47.28.17.22.13.21.23.28.23.23.15.09.14.13.7.76.89.75.48,1.28.2.27.64.71.75,1.12.41.48h.25l0,.08v.07l-.13,0,.16.16.35.5.13.09.18.06.18.22,1.71,2.52.84,1.56.19.58.09.21.17.24.16.15.16.12.15.17.1.26.1.32,0,.78.1.47.12.31.37.72.35.84.45.79.38.85.43.81.1.36.19.27.12.4.18.74.17.36.61,2.51.44,1.3.2.43v.14l.08.21.14.25.14.23,0,.18.28.46.14.52.07.52.1.44.18.55.13.53.06.52-.1.94v.41l.13,1.37,0,.23.15.57.05,1.51-.05.71-.17.62-.34.47-.33.21-.14.14-.08.21v.19l.08.38v.19l-.1.45-.45.91-.85,3-.88,2-.1.66.21-.1.26-.41.3-.27.1-.2.07-.06.05.29-.05.61-.18.46-.21.4-.49,1.34L250,247.11l-.22.15-.17.19-.63,2.33-.16.26-.77.59-1.19,1.72-.46.32.07,0-1,1.23-.67,1.3-.23.22-.09.11-.35.64-.5.54-.12.2-.12.17-.67.29-.52.62-.3.07-.4.75-.26.25-.29.15-.48.46-.54.31-.45.54-1.1.74-.2.23-.4,1.07-.16.18L234.06,265l-.27.48-.14.11-.55.19-.08.07-.16.28-.85.37-.12.12-.08.13-.11.12-.35.19-.25.28-.24.17-.2.31-.14,0-.12-.08-.13-.16v-.17l.08-.16-.15.13,0,.26.12.2.06.33-.09.09-.13.07-.13.1-.6.88-.27.13,0,.14.81-.22.26-.21-.19-.28.15,0,.16.05.15.15.11.24,0,.16-.39.32,1.17-.31.1.24-.08.33-.13.36-.05.37.19-.05.14-.11.24-.31-.07,0h-.07l-.06,0-.09-.08.18-.24.26-.12.29,0,.24.23,0,.31-.2.22-.59.28,0,.16h.42l.46.26.24.34-.25.24.12.07.12,0h.1l.12-.05,0,.16.13.21.18.2.15.06.08.11,0,.29v.51l.18,0h.53l0,.14-.23.21-.14.07-.16,0,0,.09.11.23,0,.09,0,.08v.17l0,.08.33,0,.3.29.21.45.05.46.34-.1.16,0,.17.17-.11.06-.06.07-.09.25.5.15,1.47-.19.12.1v.26l-.16.1h-.23l-.17-.05,0,.15.2.11,0,.14-.3.38-.11.23-.06.3.3-.18.44-.08.4.08.17.29.15,0,.14-.08.25-.2.11.4L239,278l.53-.53.69-.36.4-.11.33.08-.11.13-.1.34-.12.09-.38.13-.15.13-.1.23.12-.06h.29l.13,0,0,.1v.22l-.23-.1,0,.1.11.17.24.11-.23.17H240l-.22.07.19.41-1.23.15-.27.27.33.08,1.62-.44.6.1-.05.12,0,0,0,0,.91.21.12-.11.18.24.64.16.29.31-1.09.13-.25.24.09.05.05.05.05.06.07.07-.15,0-.13,0-.1.09-.09.14.45-.17.21,0,.19.22-.46.13.45,0,.22-.06-.12.35-.4.08-.83-.06.51.13,1,0,.52.38-.36.1-.39,0-.36.09-.27.31h.31l.27.11.18.27,0,.5,1.18-.27.6.1.49.45-.5,0-.54-.16-.51-.09-.43.31.05.15.11-.05h.1l.24.07-.54.62.21.16.09,0h.11v.75l.09.28.31,0,0,.37-.07.14-.87.19-.21.13-.06.27.33,0,.62,0,.33,0,.32-.12h.18l.13.12,0,.21-.09.14-.15.06h-.14l.14.25.13.09h.15l.17-.05.05.1v.23l-.1.15-.24-.09-.06.22,0,.24v.25l0,.25.11-.11.24-.09.12-.07.25-.38h.22l.25.07.18.15,0,.21,0,.13.35,0,.18.23-.05.27-.31.21-.26-.06-.33-.16H245l-.07.34.15,0,.13.1.25.27.14.08.35.05.16.07-.2.29-.27.26-.31.05-.32-.29.05-.16-.13-.12.07-.1.09-.08-.15.05-.32.18-.25.27-.16.35.31.26.19.25.21.19.35.09.05.16-.13.16.06.12h.14l.11-.12.08-.16.15-.14.18-.09h.16l.13.15.32.53.11.1.14,0,.14.13.13.19.08.21,0,.26-.11.34.05.27.12.14.21.16.17.18,0,.24-.11.28.05.07.16.15.15.08.2.05.2,0,.14,0,0,.15-.08.07-.18.31.15-.08h.15l.13.09.11.22,0,.05-.3.21-.09.1.13,0,.11.06.11.09.11.15-.19.27-.16.15v.15l.38.21-.17,2.24.22-.07.18-.1.19,0,.21.13,0,.33-.17.31L249,301l-.2.12.37.2.49.09.45,0,.28-.24-.07,0h0l0-.07.21-.1.14.09.12.19.16.2.18.11h.18l.34-.11v.3l-.05.12-.07.11-.24-.09-.33.25-.24-.1.12.38,0,.23-.27.38.18.05.18.19.29.35.2.14.21.08.19,0,.43,0,.16-.06.89-.58.19,0-.7,1.54,0,.16.14,0,.13-.06.11-.1.18-.27.17.39.09.27-.05.22-.25.22-.92.26-.16.21.07.39.3.1.36,0,.26,0,.28.31,0,.24-.2.18-.28.11,0,.13.46-.12.29,0,.09.25-.15.61.23.12.22,0,.2-.06.16-.17.16.27.2.25-.27.07.05.16h.15l.16.05.16.08.17.13-.24.14-.32.48-.26.08,0,.14h.19l.37,0,.18-.07v.11l0,.25v.11l.21-.14.15-.2.18-.13.28.08.06.38.26-.08.52-.39.15,0,.2.08.2.13.14.19.05.21,0,.1-.07.11,0,.23.61,0,.1.08.11.17,0,.21-.29.28,0,.2.16.17.25,0,.14.07v.25l-.06.26,0,.11.21.36.25.14.19.22v.59l-.28.66-.06.37.21.42.18-.22.28-.13.58-.12h.25l.21.11.21.15.26.1,0,.16-1.14,0-.35.14-.31.28,0,.24.51.69v.25l-.1.37,0,.2V318l.06.49v.2l-.11.46-.21.23-.25.18-.22.29.09.07.17.13.09,0-.12.29-.23.13-.53.12.15.15.11.17.08.2.07.24,0,.09-.13,0-.11.06v.59l-.14.29-.91.69-.53.25-.23.22.1.3.36.44.19.36.51.36.14.21v.34l-.11.38-.18.33-.28.24-.22.28-.15.1-.16,0-.29,0h-.13l-.24.1-.2.16-.12.28,0,.4.28,0,.19.18.39.49.19.14.24.11.45.12.07.55.26.27.36.05.35-.05.18.06.38.41.14.12.17,0,.33-.08.17,0-.11.37,0,.63.14.65.27.45.47.12.88-.31.42.32-.71.2-.12.05-.45.4-.11.35-.14.67-.15.28-.18.25-.13.27,0,.35.19.25.59.1.25.22-.28.06-.14.2-.16.59-.14.4,0,.19v.15l.14.85.1.37.16.28.48.13.26.26.25.31.21.2-.77-.06-.19-.08-.75-.62-.17-.26-.14-.3,0-.24.17-.37v-.22l-.12-.21-.28-.36-.64-1.32-.18-.22-.36-.31-.16-.22-.11-.27-.13-.51-.14-.23-.31-.2-.85-.37-.22-.2-.28-.21-.31-.18-.17,0-.09.11-.06.15-.12.15-.18.1-1.08.24-.14,0-.26-.39-.06-.45.1-.75,0-.61-.19-.13h-.32l-.72-.37-.27.19-1.09,2.15-.51.59-.55.26.31.34.36.52.29.52.1.34,0,0q1.49,5.29,3,10.59l.49.59.27.12.27.08.35.25.65.58.88,1.11.21.15.3.16.21.48.25.87-.21-.08-.14-.2-.09-.28-.09-.3-.11-.18-.59-.4-.19-.23-.33-.51-.2-.25L254.51,347q3.47,12.43,6.87,24.87,3.5,12.79,6.95,25.59,2.13,7.86,4.24,15.73l.36,1.18c.21.73.4,1.46.6,2.19.14.44.27.89.41,1.33l.13.67-.06.6-.19.65-.09.7.08.71.32.7.39.48.51.45.47.44c.24.21.47.43.71.63l.26.26.25.3.19.34.21.68.13.68.11.68.14.65.48.9.71.65.76.59.65.68.76.91.81.67,1.62,1.06,1.64,2.28.49.5.69.33.38.25.24.39.18.46.27.45.63.74.66.58.74.48,2.37.91.33.26.22.42.26.34.43.12,4.16-.17.71-.21h.43l.25.24.24.16.4-.11.67-.34,2-.33,1.09.25,1.8-.46,3.11.07.62,0h0l.39,0,3.14.67,1.1.52.18.07.41.09.25,0,.22.19.24.18.51.24.37.34.18.36.11.37.14.36.26.34.42.32.47.29.47.26.45.21.67.24.68.15,1.34.24.37,0L321,446l.36-.25.16-.44-.07-.27-.16-.3-.17-.31-.12-.28v-.34l.17-.2.08-.08.34-.18.3-.06.62,0,.36.13.25.23.18.37.32.92.19.4.24.37.28.36h.25l.22.07.21.16.21.26.17.32.24.62.21.25.37.3.14.16.35.57.18.2.2.14.26.09.43.07,1.52,0,.62.08.34,0h.1l.37.11h.12l.08.17.2,0,.42.22.21.08.21,0,.42-.08.2-.07.17-.11.34-.34.11-.19V449l0-.29,0-.12.07-.14.07-.07.92-.5.38-.12,1.24-.06.44.09.3.31.17,0,.5.12.19.08.39.26.21.18.12.15.22.08.62.44.23.09.22,0,.22,0,.91-.44.16-.19.08-.2.15-.69.19-.53.26-.38.34-.27.89-.38,2.93-2.41.55-.75.33-.3,3.18-1.48.34-.36.33-.48.32-.34.38-.23,2.36-.66.81-.48.25-.08.07-.05.09-.1.12-.22.07-.09.31-.09.36.07.68.28.69.17.66,0,.7-.18,1,.14.06,0c.18,1.92.37,3.85.54,5.77l2.38,1.32.17.1v0l.14-.12.18-.09.09-.1.07-.12.85-1,.3-.17.12-.21.19-.9.14-.33.59-.37,1.36-.48.42-.59,0-.08,0-.05.09-.08-.4-.27-.47-.41-.36-.44,0-.36-.2-.27-.23.36-.33,0-.37-.16-.39,0-.37.08-2.42-.06-.43.11h-.36l-.28-.2-.25-.29-.29-.24-.25-.12.3-.05.51.36.24.1h.24l1.27-.58.23-.05h.14l.31.13.54.37.19,0,.16,0h.33L365,439l.55-.36.27-.26.14-.28.06-.2.1-.21.12-.19.32-.22.06-.16v-.43l.19-.85.94-2.28.88-1,2.45-1.31.8-1.16.34-1.19,0-.72.21-.38.48-.64.19-.71.24-2v-.81l-.05-.37-.1-.39.14-.56.64-.52.47-.23.56-.66,0-.73-.14-1.23-.23-.29.89-1.06.81-.81.91-.71.42-.28,1-.3.29-.17.49-.52,1.2-2.82.22-.31.62-.39.36-.55.23-.24.51-.37.38-.61v-.27l-.2-1.2v-.4l.16-.23.83-.77,1.09-.73.47-.49.42-.67.8-1.74.26-.13h.32l.4-.07h.15l.36.09h.16l.72-.27.33-.22.54-.65.65-.43.89-.9.63-.47,1.47-.67.14-.14.21-.42.2-.12.56-.93.1-.26,0-.27V397l.05-.81.05-.25,1.92-4.61.37-.53,1.47-1.42.4-.62.28-.72.15-.81.14-1.7.16-.28.09-.56,0-1.05-.07-1,0-.53.14-.28.06-.28-.27-1.08V380l.13.06.23,0,.13.05.2-.36.31-.39.37-.34.74-.41.18-.15.22-.39.34-.32.11-.18.08-.55v-.27l0-.27-.1-.26-.13-.26-.1-.29,0-.37.12-.38.23-.48.11-.43-.22-.25.1-.3.2-.11.2-.07.13-.2.09-.21.42-.55.14-.32.18-1,.1-.24.24-.36.08-.21v-.47l-.16-.94v-.42l.22-1.25,0-.41-.08-.52-.07-.28-.09-.16-.08-.18.09-.21.12-.21.05-.13-.12-.37-.27-1.12-.06-.39.17-.8-.05-.39-.39,0-.8.22-.45,0-.42-.15-.91-.85-.36-.19-.41,0-.81.06-.4-.1-.71.72-1,.17-1.13-.21-1-.41-.09.15-.16.14-.18,0-.3-.36-.19-.05-.21,0-.51,0-.71.18-.33-.09h-.23l-1,.23-.68.41-1.89.79-.45.34-.41.7-.18.17-.32.06-.19-.16-.17-.26-.3-.24.69-.31.32-.25.18-.31-.09-.34-.32-.16h-.41l-.79.15-1.38-.17-.33.09-.89.55.26-.2.37-.47.3-.18,1.58-.25.67.09h.18l.13-.09.11-.11.14-.09.36-.08.32.06.64.3.35.13.22-.06.53-.34,2.91-.35.24-.17.2-.34.35-.07,1.46.39.4,0,.36-.06.35,0,.84.41.39.08.67-.25.69-.43.7-.27.69.18,1.15.44.38.23.61.48.33.17H403l.46-.24.21,0,.56.06.19,0,.25-.25.18-.39.43-1.68V359l0-.11,0-.12v-.13l.07-.06.21,0,.08-.05.15-.32.12-.38.15-.35.26-.24.22-.31,0-.53,0-1.06.5-1.72.15-1-.28-.72v-.28l-.1-.73.09-1.21.07-.14.15,0,.16,0h.14l.51-.5.09-.76-.45-2.83,0-.43.18-.25.58-.29.17-.21.08-.35,0-.21-.06-.19v-.16l.28-.23.15-.29.24-.27.58-1.12V341l0-.21.13-.13,1.75-.91-.25-.18-.46.13-.24-.2.63-.77-.33-.48-.1-.59.06-.56.12-.42.21-.24L412,336l.17-.28.07-.16.34-.44.24-.69.1-.12-.13-.21-.32-.45-.38-.45-.31-.21.16,0,.49.06.14.45.65.28.25.49,0,.39-.46,1.13.45-.2.2-.14.16-.19.24-.62.15-.27,1.24-.87.39-.46-.2-.38-.07-.15-.23-.3h-.2l-.35.31-.26.05-.83-.25-.05-.12.25,0,.73-.26.1-.09.09-.25.08-.11.1-.05.25-.07.08-.07.07-.59-.15-.59,0-.39h.6l.1-.36,0-.23-.06-.27h.43l.38-.17.59-.44.35-.13.82-.1.62-.23.13-.09.06-.16,0-.27.06-.17.29-.36.11-.09.79-.35.32-.28.19-.1.24,0,.28-.43.4-.27,1.91-.82.22-.33.51-2.53.07-.65-.1-.52-.24-.68L424,319l-.34-.38-.22-1,0-.27,0-.36.16-.76V316l-.13-.36-.19-.25-.22-.23-.2-.31-.11-.34-.07-.38-.05-.38v-.67l0-.4.12-.37.22-.22h.35l.25.14.17,0,.1-.38,0-.45-.08-.52,0-.46.2-.4-.11-.17-.19-.2-.13-.15-.05-.24V309l0-.49.26-.72,1.07-.9.47-.55.14-.37.05-1.33.18-.77.16-.35.23-.22-.16-.1-.13-.13-.11-.18-.09-.21.28,0,.47.14.27,0,.14,0,.23-.15.14-.05.55,0,.42-.1.05-.08.06-.18.15-.22v-.16l-.09-.16H428l-.31.19-.27.25-.15.18-.53-.22-.24-.24-.09-.4,0-.36.15-.63.24-.49.19-.22.24-.1.29.08.12.12.13.19.12.2,0,.15,0,.16.1.06.75.06.38-.27.35-.4.39-.31.51-.19h.26l.28.12.29,0,.64-.34.31,0-.25-.26-.3-.36-.13-.33.26-.18.06.37.19.11.2-.08.16-.19.06-.26.08-1.08.23-.5.44-.19h.53l.54.11h.36L436,296l1.2-1.07,1.06-.69.75-.79,1.86-1.1.1-.11.19-.32.08-.07.74.22.42.07.19-.19.19-.28.43-.17,1.15-.24,1.19-.56.21-.24.18-.07-.06.05.1.06.25.08h.11l.05,0,.09-.09,2.82-1.64,1-.88.33-.6.19-.26.29-.16.39-.09h.42l.34.11.38.07,1.4-.28,1.28-.57.1-.12.16-.51.1-.13.69-.51.44-.48,2.1-1.28.13,0,.33.06.17,0,.53-.33.17,0,.18.07.3.23.13.07h.19l.11-.07.09-.11.15-.11h.17l.33.19.12,0,.68-.68.31-.18.35-.08.34,0,.32.17.27.34h.1l.2-.06.3-.18,0-.15,0-.42.07-.18.27-.24,1.11-.33.53-.4.25-.29.08-.28-.13-.11-.22-.17-.14-.21.18-.21.58-.3.59-.1.18-.12,0-.15v-.44l.08-.19.17-.13.14,0,.32.21.19.08h.16l.34-.16.88-.64H471l.22-.29.06-.16,0-.24.24,0,.25-.2.43-.5.08.13-.36.55.08.15,2-.8,1.35-.82.19,0,.17.09.16.05.16-.15,0-.17v-.42l.09-.17.13-.05.07.05.06.11.12.12h.06l.09-.14.17-.17.11-.16.13-.12.2,0,.29.11.33.08.71,0,.34-.07.95-.48,1.46-.44.32-.2.13-.15.06-.19.08-.16.17,0h.19l.17,0,.46-.28.29-.07.32.09.24.25.44.12.42.25.2.6h.44l.3-.27.42-.75.59-.53.23-.33,0-.48H487l.15.22,0,.28-.11.2-.18.15-.85,1.09-.14.13-.15.18-.18.48-.23.16.07.14.83-.38.24-.21L487,273l.57-.54.64-1.07.82-.73L490,269.3l.95-.69.29-.07.63.06.15-.08-.27-.27.14-.1h.45l.05-.09v-.12l0-.09,0,0,.25-.31.31,0,.09,0,0-.07-.07-.12-.06-.14V267l.2-.14.22,0,.23,0h.23l0-.06.09-.22.1-.05h0l.08,0,0,0v0l.1.11.09.07h.11v-.1L495,265l.28-.44.37-.05-.18.22-.15.27-.05.34.11.39.17-.17.51.16.12-.17v-.38l.05-.3.12-.23.25-.15,0,.08,0,.08,0,.07v.1l.66-.37.13-.2.05-.2.08-.47.29.62h.34l.59-.6.08-.15.05-.52,0-.15.34-.23.27-.3.08.32.16,0,.1,0,0-.1,0-.16,0-.14h.1l.12,0h.11l.12,0,.25.23h.13l.08-.12,0-.11-.12-.09-.16-.08.11-.24.22-.11.51-.14,0-.19-.35-.61v-.26l.21.26.2.11.17,0,.12-.22.06.26v.24l0,.21-.06.2.33-.05.08-.51,0-.62.13-.38.26-.17.29.49.11.26,0,.24-.05.23.49-.28.1.39h.09l.07-.19.06-.23v-.37l.07-.12.1-.07.08-.09v-.21l.4,0,.25-.18.12-.35,0-.43.12-.11.24.07h.15l-.13-.36,0-.16.09-.17.21-.28.35-.7.11-.43-.08-.43-.17-.17,0,.22.05.32.07.14-.19,0-.19-.11-.14-.22-.08-.27H505l-.1.05-.07-.13.12-.43v-1l.07-.44.2,0,.21-.24.22,0,.07-.2,0-.2.05-.17.32-.3.34-.52.61-.51.09-.19,0-.28-.06-.31,0-.28.06-.22.08-.15,0-.18-.13-.29-.05-.25.07-.24.12-.22.06-.23,0-.22-.16-.55,0-.24.09-.16.15-.06.12-.12,0-.31-.17,0-.13,0-.08-.11v-.17l.09-.1.39-.16.15-.12.11-.34V246l.12-.37.1-.14.08-.06,0-.08v-.21l-.07-.22-.13-.17-.11-.15v-.17l.25,0,.38.18.3,0v-.42l-.11-.21.19-1.27-.13-.55-.36-1-.06-.39.08-.22.16.06.19.22.12.24.07.3,0,.64.09.29.42.48.51.26h.45l.24-.37h-.13l-.11,0-.11-.08-.13-.11.23-.26.08-.19,0-.18-.09-.26.06-.18.08-.17V241l-.22-.22-.31-.28-.18-.33.23-.33-.24-.12h-.11l-.12.05,0-.24-.07-.22-.09-.22-.12-.2-.1-.07h-.2l-.1-.07,0-.11,0-.16,0-.09-.14-.5-.11-.24-.16,0-.11.12-.09.13-.12,0-.26-.12,0-.22.09-.06h.11l.08-.06,0-.16V237l0-.15.08-.24.14-.26.22-.11.27.18.09.7.11.33.26-.07,0-.12,0-.59.06-.33.09-.3-.11-.14-.1,0-.08,0-.1,0-.14-.34-.05-.23,0-.24.23.18.15-.08,0-.24,0-.28h.15l.56-.69.06-.23v-.54l.06-.23.29-.3.1-.19,0-.26-.08-.28,0-.23.12-.15-.68,0-.36,0-.37-.2-.25-.3-.07-.25.08-.09.2.21.15.12h.19l.17-.07.08-.12-.09-.18-.16-.14-.17-.1-.06,0-.09-.37.15-.11.26.1.27.3.13-.27.64-1.94L511,228l1.24,0,.53-.25-.3-.25-.12-.89-.3,0,.34-.18.13.07.09.27.23.41.29.24.24-.06.5-.51.06-.38.06-.16.06,0h.21l.11-.05.53-.77,0-.21.18.05.5-.75,0-.17.06-1,.19-.92.28-.42,0-.65.12-.25.09.27.15.2.17.11.2,0,0-.13-.06-.2-.21-.46-.14-.54.09-.26.21-.18.19-.34.07.22.11.22.14.2.17.15.14,0,.09-.07.37-.5.09-.61.2-.17,0,.22v.38l.06.25.89-1.12v-.09l0-.11v-.11l0-.07h.12l.24.25.1,0,.14-.17v-.22l-.14-.2-.28-.16.11-.21.16-.08.18,0,.16-.07.29-.51.69-.83.33-.25.42.1.1.63.59.39.63.15.23-.06V217l.25-.16.49-.16-.25-.4M513.58,324.47l0-.15,0,.07v.08M509.05,248l-.16-.07-.74-.63-.38-.08-.15.19.07.31.3.31.21.14.07.07h.05l.15-.06V248l0-.14.05-.12.2,0,.18,1.1.1.27.21.24.13-.09.07-.25,0-.25,0-.12.06-.08,0-.1-.07-.17-.4-.41m-49.88,37.93.3-.29-.15-.25-.66-.38h-.11l-.05,0-.08-.06-.14.43.16.37.34.23.39,0m53.5,41.66-.22.18-.26.3-.22.35-.09.31.11.44.48.94.07.43v.26l.07.83-.06.74.3.36h.35l.63-.36.39-.61.21-.21.16.23.35-.19.34-.27.17-.39-.16-.57,0,.38-.08.23-.16.13-.61.15h-.27l-.27-.09-.28-.21,0,.47-.29.1-.35-.1-.17-.14,0-.33-.12-.71v-.29l.08-.3.13-.21.48-.3v-.21l-.08-.43-.06-.45.11-.28.59-.21.11-.2-.06-1.86.19-1.25.19-.58.3-.46-.51.38-.25.61-.35,2.85-.27.62-.56.1.2-.35.24-.94.23-.3.17-.39,0-1.26-.76,2.84-.15.23m-1-98.58-.06-.08-.08-.06-.17-.27-.17.25-.54.29-.22.21-.19.56,0,.37,0,.3,1.15-.37.15-.22.28-.76,0-.21-.09,0-.07,0m2.11,89.16.11-.41.18-.16.08-.09.13-.06,0-.07-.09,0-.4.15-.47.61v.12l.07.06.34-.11" transform="translate(-196.15 -86.24)"/></svg>