<svg id="Layer_1" data-name="Layer 1" xmlns="http://www.w3.org/2000/svg" viewBox="0 0 424.46 424.49"><defs><style>.cls-1{fill:#fff;}.cls-2{fill:#54b948;}</style></defs><path class="cls-1" d="M428.2,216c0,117.22-95,212.24-212.22,212.24S3.74,333.22,3.74,216,98.76,3.76,216,3.76,428.2,98.79,428.2,216Z" transform="translate(-3.74 -3.76)"/><path class="cls-2" d="M301.32,282.51c-7-2-18.92-3.17-32.65-3.88-22.06-1.88-52.72-3.05-86.64-3.05-38.12,0-72.14,1.47-94.45,3.78-8.91.74-16.45,1.74-21.47,3.15-10.66,2.86-11.83,1.6-12.17,7.69,0,0,2.58,9,10.58,19.55s20.5,20.52,48.07,23.07c21.63,2,54.93,2.85,68.24,3.1V336l2.9,0,2.9,0v-.11c13.29-.25,46.59-1.08,68.24-3.1,27.55-2.55,40-12.5,48.06-23.07s10.56-19.55,10.56-19.55C313.19,284.11,312,285.37,301.32,282.51ZM182,300.18c-67.24,0-121.74-4.22-121.74-9.42s54.5-9.41,121.74-9.41,121.73,4.21,121.73,9.41S249.27,300.18,182,300.18Z" transform="translate(-3.74 -3.76)"/><path class="cls-2" d="M249.7,270.91s14.73,1.31,28.17,2.95l5.23,2.94,3-4.25-5.57-8.85H255Z" transform="translate(-3.74 -3.76)"/><path class="cls-2" d="M258.88,258.13s41.22-42.24,101.18-41.26a80.3,80.3,0,0,1,34.39,9.28s15.08,11-4.26,10.53c-9.5-5.4-29.14-13.92-50.75-8s-48.9,39.39-48.9,39.39l-7.77-10.91Z" transform="translate(-3.74 -3.76)"/><path class="cls-2" d="M120.31,243.22c-.5-1.35-.92-2.71-1.32-4-2.56-8.14-4.13-17.89-.52-26,1.84-4.17,4.63-7.76,7.12-11.54,3-4.54,5.8-9.2,8.68-13.81,3.44-5.5,5.08-13.54-.09-18.52a10.77,10.77,0,0,0-11.46-2.05c-4.53,2-6.47,7-9.32,10.66-1.62,2.12-4.19,5.26-7.23,4.81-3.83-.57-4.1-6.16-3.46-9.11,3.36-15.48,20.71-22.8,34.48-15.86,6,3,11,10.6,12,17,1,7.4-2,14.53-6.17,20.47-2.69,3.79-6,7.06-8.91,10.71A43.78,43.78,0,0,0,124.51,241c.26,1.81,4.12,10.74,3.07,11.39C125.89,253.22,121.73,247,120.31,243.22Z" transform="translate(-3.74 -3.76)"/><path class="cls-2" d="M213.79,217.66a140.19,140.19,0,0,1,7.74-12.37c5.3-7.62,11.15-14.81,15.6-23,3.33-6.11,6.7-13.59,5.53-20.72-1.1-6.78-7.86-12.16-14.83-8.85-4.29,2-7,6.9-8.05,11.37-3.28,14.17-10.4,6-6.37-5.85,8.74-25.73,31.54-26.05,37.86-8.63,6.8,18.72-7.29,43.32-20.59,56.47a101,101,0,0,0-16.89,22.75,86.48,86.48,0,0,0-9.33,24.23c-.33,1.47-.53,3-1.57,4.14-1-2.91,0-6.69.42-9.6A90,90,0,0,1,213.79,217.66Z" transform="translate(-3.74 -3.76)"/><path class="cls-2" d="M152,261.32s-9.14-10-5.7-27.61S160.43,203.2,168,194.07c10-12.09,22.76-29.74,22-46.3-.35-7.83-.28-18-6.25-23.83-5.06-5-14.83-6.5-20.19-1.07-5.62,5.67-.76,12.85,2.19,18.41,3.57,6.77-4.37,4.32-8.36,2.69-16.37-6.7-14-27.37-.5-35.81,14.19-8.9,32-3.78,40.4,10.65,16.07,27.67,2.16,58.85-16.73,80.75-4.9,5.68-10.89,10.56-15.6,16.34-9.41,11.46-17.25,27.34-11.25,42.26C156.38,264.8,155.23,265.2,152,261.32Z" transform="translate(-3.74 -3.76)"/></svg>