<svg id="Layer_1" data-name="Layer 1" xmlns="http://www.w3.org/2000/svg" viewBox="0 0 268.23 265.1"><defs><style>.cls-1{fill:#54b948}</style></defs><path class="cls-1" d="M315.58 314.24c0 5.72-14.57 20-20.43 20H131.67c-5.86 0-20.43-14.24-20.43-20V205.72c0-5.73-3.33-10.37 2.53-10.37h198c5.86 0 3.84 4.64 3.84 10.37z" transform="translate(-79.56 -69.1)"/><path class="cls-1" d="M125.08 198.35c-7.17-7.48-27-13.4-28.95-13.95a12.5 12.5 0 00-4.78-.94c-6.51 0-11.79 4.84-11.79 10.8s5.28 10.81 11.79 10.81a11.84 11.84 0 0010.88-6.63c7 5.72 17.9 15 20.64 19.31 3 4.71 4.34-4.92 4.34-4.92s5.4-6.63-2.13-14.48zm177.2 0c7.17-7.48 27-13.4 28.94-13.95a12.58 12.58 0 014.79-.94c6.5 0 11.78 4.84 11.78 10.8s-5.28 10.81-11.78 10.81a11.87 11.87 0 01-10.89-6.63c-7 5.72-17.89 15-20.63 19.31-3 4.71-4.35-4.92-4.35-4.92s-5.4-6.63 2.14-14.48zM135.8 71.25s-25.54 28.16-9.5 54.35 39 33.74 62.55 32.43 58.61-23.25 66.48-23.91 13.75 1.31 15.72 4.92 3.6 0 2.3-2.3-10.49-14.73-42.9-4.25-70.75 17.84-90.39-10.49-2.95-47-.49-50.6-2.13-2.4-3.77-.15z" transform="translate(-79.56 -69.1)"/><path class="cls-1" d="M157.41 85.32s5.57-7.53 3.28-1.14-6.38 27 23.25 26.53 42.24-12.77 63.7-12.61 55.83 11.45 58 35.85-19.64 45.52-46.22 46.67c-6.48.28-10 .36-12.4.25-4-.18-2.85-1.24-.78-1.72 3.36-.79 7-1.84 11.88-2.94 13.59-3.12 37.82-15.08 33.4-33.91s-20.31-28-43.72-27.17-68.61 18-83.18 1.46-9.17-27.17-7.21-31.27z" transform="translate(-79.56 -69.1)"/></svg>