<svg data-name="Layer 1" xmlns="http://www.w3.org/2000/svg" viewBox="0 0 424.48 424.47"><path d="M424.48 212.24c0 117.21-95 212.24-212.24 212.24S0 329.45 0 212.24 95.02 0 212.27 0s212.21 95.02 212.21 212.24z" fill="#fff"/><path d="M307.78 169.6H116.69a3.22 3.22 0 100 6.44h1.49c2.24 13.87 12.1 54.76 50.48 72.21l-37.73 100c-2.87 7.64-1 15.41 4.16 17.37s11.72-2.66 14.6-10.3l18.32-48.56h88.45l18.32 48.56c2.88 7.64 9.41 12.25 14.6 10.3s7-9.73 4.16-17.37l-38.27-101.43c21.9-9.88 44.94-30 51-70.78h1.55a3.22 3.22 0 100-6.44zm-176.62 9.54a.94.94 0 01.24-.75 1 1 0 01.72-.32h17.62a1 1 0 011 .86c0 .4 4.19 33.86 23.68 54.09a50.52 50.52 0 0013.14 10 1 1 0 01.47 1.23 1 1 0 01-.9.6 1.18 1.18 0 01-.28 0 87.6 87.6 0 01-14.39-6.61c-15.35-8.7-37.92-26.7-41.3-59.1zm121.4 117.36H171.9l15.89-42.16a109.12 109.12 0 0023.37 2 105.12 105.12 0 0025.11-3.1zm55.22-142.21h-1.51c-2.59-13.35-15.21-56.62-69.71-65.51 0-.38.12-.74.12-1.11v-4.3a13 13 0 00-13-13h-23a13 13 0 00-13 13v4.3a12 12 0 00.22 2.08c-25.43 5.14-62 20.26-69.73 64.69h-1.55a2.74 2.74 0 100 5.4l191.11-.16a2.74 2.74 0 100-5.4zm-94.51-67.16a116.41 116.41 0 00-18.21 1.39V86.6a9.14 9.14 0 019.13-9.13h16.08a9.13 9.13 0 019.13 9.13v1.27a134.45 134.45 0 00-16.13-.74z" fill="#54b948"/></svg>