<svg id="Layer_1" data-name="Layer 1" xmlns="http://www.w3.org/2000/svg" viewBox="0 0 424.55 424.58"><defs><style>.cls-2{fill:#54b948}</style></defs><path d="M428.24 216c0 117.25-95 212.31-212.26 212.31S3.7 333.23 3.7 216 98.74 3.71 216 3.71 428.24 98.75 428.24 216" transform="translate(-3.7 -3.71)" fill="#fff"/><path class="cls-2" d="M347.34 225.09c-13.24 2.94-93 7.06-134.8 7.06-65.92 0-136.87-7.65-136.87-7.65-2.19 0-5.6.59.16 17.8s20.31 34.89 20.31 34.89c37.07 38.41 78.59 43.27 100.65 45s32.67 0 32.67 0c106-9.25 117-83.43 120.09-91.81s-2.21-5.3-2.21-5.3m-19.41 31.5c-7.38 15-27.09 30.32-41.8 38.83s-25 10.69-25.9 10.92c-3.69.88-7.23.52 5.74-8.69 16.33-11.64 36.34-46.94 37.52-49.6s-1.18-5.9-1.18-7.64 4.41-1.36 4.41-1.36l21.81-.28c6.76-1 7 2.22-.6 17.82M77.74 216.17s41.52-4.32 76.52-5.28c86-2.36 141 .28 160.7 1.75s44.17 4.11 26.22 5.3-92.43 4-124.51 3.85c-92.43-.62-121.27-1.79-126.87-2.06s-20-1.79-12.06-3.56m222.37-96.26s1.46-.9 3.82 2.93 3.09 14 2.64 17.38c-.87 6.77-5 13.83-13.54 15.9s-37.66 12-41.78 14.69-13.55 9.73-17.37 17.37c-2 4-2.94 10-7.65 9.72s-6.49-5.89-2.07-15.6 8.54-20.31 33.55-26.18 34.44-11.21 36.51-18c1.2-4-7.07-19.16 5.89-18.26m33.81 12.69s1.37-.82 3.55 2.72 2.87 13 2.47 16.12c-.82 6.3-4.65 12.85-12.57 14.78s-35 11.19-38.8 13.66-12.57 9-16.13 16.11c-1.84 3.69-2.73 9.29-7.11 9s-6-5.47-1.91-14.51 7.93-18.83 31.15-24.3 32-10.37 33.87-16.69c1.14-3.68-6.55-17.75 5.48-16.93" transform="translate(-3.7 -3.71)"/><path class="cls-2" d="M83.88 122.12c6.44-5.42 21.7 9.48 21.7 9.48l56.26 48.4c6.66-4.06 16.31-3.59 24.43 1.72l.79.54c10.52 7.42 24.09 27.15 18 35.73s-29.48 2.86-40-4.57C155.93 207 152 196.3 155.18 188c-9-5.85-73.1-47.37-76.3-51.55-3.45-4.43-1.45-8.88 5-14.29m41.03 190.48s-5.37-2.81-5.24 2.51-2.07 11.23 14 17.89 70.31 9.41 88.54 7.79 50.45-7.16 56.85-10.24 5.17-5.46-11.25-2.66-55.45.93-67.82.65-45.36-4.88-54.88-9.36a100.65 100.65 0 00-20.19-6.58" transform="translate(-3.7 -3.71)"/></svg>