<svg id="Layer_1" data-name="Layer 1" xmlns="http://www.w3.org/2000/svg" viewBox="0 0 424.48 424.47"><defs><style>.cls-1{fill:#fff}.cls-2{fill:#54b948}</style></defs><path class="cls-1" d="M428.21 216c0 117.21-95 212.24-212.24 212.24S3.73 333.21 3.73 216 98.75 3.76 216 3.76 428.21 98.78 428.21 216z" transform="translate(-3.73 -3.76)"/><path class="cls-2" d="M336.37 131.6h-233a21.8 21.8 0 00-21.81 21.81v136.08a21.81 21.81 0 0021.81 21.82h9c0 .23-.07.46-.07.7v4.65a7.27 7.27 0 007.26 7.26h13.24a7.27 7.27 0 007.27-7.26V312c0-.24-.05-.47-.07-.7h157.93a5.35 5.35 0 00-.07.7v4.65a7.27 7.27 0 007.26 7.26h13.24a7.27 7.27 0 007.26-7.26V312a5.35 5.35 0 00-.07-.7h10.82a21.82 21.82 0 0021.81-21.82V153.41a21.81 21.81 0 00-21.81-21.81z" transform="translate(-3.73 -3.76)"/><path class="cls-1" d="M101.55 155.09h187.28v128.22H101.55z"/><path class="cls-1" d="M332.87 185a12 12 0 11-12-12 12.05 12.05 0 0112 12zm0 35.35a12 12 0 11-12-12 12.05 12.05 0 0112 12zm0 34.48a12 12 0 11-12-12 12 12 0 0112 12z" transform="translate(-3.73 -3.76)"/><path class="cls-2" d="M226.35 213.34a38.79 38.79 0 01-29.29-12.51c-17.46-18.61-39.38-1.68-40.31-.94a4 4 0 01-5-6.34c9.86-7.79 33.23-17.42 51.21 1.76 17.78 19 43.54 5.5 44.63 4.91a4 4 0 013.82 7.12 59.16 59.16 0 01-25.06 6z" transform="translate(-3.73 -3.76)"/><path class="cls-2" d="M226.35 236.56A38.77 38.77 0 01197.06 224c-17.46-18.6-39.38-1.66-40.31-.93a4 4 0 01-5-6.34c9.85-7.73 33.25-17.4 51.25 1.79 17.78 19 43.54 5.51 44.63 4.92a4 4 0 013.82 7.12 59.16 59.16 0 01-25.1 6z" transform="translate(-3.73 -3.76)"/><path class="cls-2" d="M225.68 259.78a38.77 38.77 0 01-29.29-12.51c-17.45-18.62-39.39-1.68-40.32-.94a4 4 0 11-5-6.34c9.84-7.79 33.23-17.42 51.2 1.75 17.79 19 43.54 5.52 44.63 4.92a4 4 0 013.83 7.12 59 59 0 01-25.05 6z" transform="translate(-3.73 -3.76)"/></svg>