<svg id="Layer_1" data-name="Layer 1" xmlns="http://www.w3.org/2000/svg" viewBox="0 0 424.47 424.48"><defs><style>.cls-1{fill:#fff;}.cls-2{fill:#54b948;}</style></defs><path class="cls-1" d="M428.21,216c0,117.2-95,212.24-212.23,212.24S3.74,333.2,3.74,216,98.76,3.76,216,3.76,428.21,98.78,428.21,216Z" transform="translate(-3.74 -3.76)"/><path class="cls-2" d="M185.76,251.17c-2.79-5-.57-27.38,6.19-37.08,7-10,12.67-11.08,17-13.54,7.4-4.23,7-10.26,7.17-15.11s-.31-32,20.58-35,24.15-.25,28-4.22,8.66-18.88,18.54-23.35,25.05-4,28.15,10.89-2.32,15.3-4.87,21-2.67,9.91,7,11.48c7.24,1.2,20.9,3.07,20.24,18.23,0,0-.41,8.48-15.07,14s-22.22,5.56-27.4,15.69-9.63,9.4-11.07,22.06c-.48,4.37-22.42,7.59-32.45,10.74-25,7.85,1.36-17.06,11.42-26.38s18.06-31.43,20.65-36.51,1.89-21.41,3.51-27.09c1.47-5.19-7-13.09-8.46,9.76-1.22,19.29-5.15,19.06-7.64,25.64-1.67,4.42-9.5,16.59-13.16,17.81-3.47,1.17-.65-3.72-1.68-15.7s-4.82-3.81-4.47,4c.43,10.52-1,9.68-.64,14.48s1.19,6.1-.6,10c-3.46,7.37-10.55,15.76-16,20.47-5.82,5-12.74,7.63-23.54,8.56S189.15,257.28,185.76,251.17Z" transform="translate(-3.74 -3.76)"/><path class="cls-2" d="M211.84,174c.51-20.68-13.23-11.78-13.86-18.4-.47-5.15,12.17-8.64,13-18.14,1.16-14.21-8.86-26.82-19.94-22.51-22,8.5-24,5.35-26.48-.5S156.37,100.17,140,97.89c-19.16-2.66-25,14.19-22.26,23.37s1,16.84-5.45,20.73c-4.17,2.54-11.59,8.2-13,15.72S95.92,178,112.5,183.35s25.41,2.18,34.83,18.21,16.38,30.91,20.21,33.89,10.3,2.5,12.18-7.07-14.16-45.54-20.24-61.83-10.38-16-12.94-22.53-3.36-8.13-1.66-12.47c1.43-3.64,6.46-3.87,6.21.86s7.64,10.09,10,13.93,6.91,10.26,9.73,18.17c5.27,14.81,9.63,35.31,9.56,43.28-.05,5.39,3.33,4,9.69-4.4C202.16,187.4,211.33,194.65,211.84,174Z" transform="translate(-3.74 -3.76)"/><path class="cls-2" d="M72.64,119.21s-1.93-3.45-8.62-3.55-8.65,1.12-10,4.4.85,11.44,4.44,18,27.22,47.67,27.22,47.67,1,4.11,4.3,3.19,5-2.12,8.68-3.23c2.81-.84.74-2.31-1.38-5.86C95.37,176.66,72.64,119.21,72.64,119.21Z" transform="translate(-3.74 -3.76)"/><path class="cls-2" d="M363.78,146.52s2.46-3.39,8.62-1.85,7.73,3.4,8.35,7.41-3.1,12.65-7.72,19.14-34.59,46.85-34.59,46.85-1.82,4.37-4.59,2.51-4.17-3.59-7.33-5.75c-2.43-1.65-.24-2.78,2.42-6.24C331.32,205.49,363.78,146.52,363.78,146.52Z" transform="translate(-3.74 -3.76)"/><path class="cls-2" d="M123.65,309.14s51.66,54.64,123.34,32.8c0,0,28-3,63.81-44.38,0,0-45.58,33.43-83.86,37.07C200.3,337.17,143.69,328,123.65,309.14Z" transform="translate(-3.74 -3.76)"/><path class="cls-2" d="M267.91,248.16c-4.12-1.88,5.35-36.58,35.27-37.26s34,25.6,34,25.6S288.12,257.39,267.91,248.16Z" transform="translate(-3.74 -3.76)"/><path class="cls-1" d="M281.25,254.8c-6.05,0-11.14-.93-15.12-2.74-3.14-1.44-4.12-5.12-2.92-10.93,2.79-13.57,15.72-34,39.87-34.51h1.24c25.76,0,35.51,19.13,37.07,29.24l.51,3.29-3.06,1.3C337.47,241,304.86,254.8,281.25,254.8Zm-10-9.9a31.77,31.77,0,0,0,10,1.34c17.66,0,42-8.83,50.84-12.3-2-6.13-8.62-18.78-27.77-18.78l-1,0c-12.17.28-19.93,7-24.31,12.51C273.5,234.64,271.51,242,271.29,244.9Z" transform="translate(-3.74 -3.76)"/><path class="cls-2" d="M217.23,360.33c-3.17,0-6.71-.08-10.65-.25l-1.29-.05c-21.14-.91-45.12-1.94-83.61-32.18-1.49-1.22-35.67-29.24-41.09-73.17-.68-5.49.09-9.4,2.35-12a8.63,8.63,0,0,1,6.73-2.85c3.23,0,6.51,1.35,8.69,2.26.58.24,1.06.45,1.41.55l1.12,0,.18.45c.34.17,34.43,17.35,112.19,18.06l3.68,0c60.46,0,93.67-13.38,111.51-20.57a95.82,95.82,0,0,1,10.17-3.72l.86-.24.89.15c.77.12,7.58,1.34,10.65,6.36a10.35,10.35,0,0,1,.81,8.89l-.59,2C334,314.26,293.77,351.52,238.09,359,238.09,359,231.22,360.33,217.23,360.33ZM89.66,248.44c-.34,0-1.08,1.1-.58,5.19,5,40.41,37.6,67.25,37.93,67.52,36.29,28.51,58.79,29.47,78.65,30.33l1.3,0c19.91.92,29.64-1,29.71-1,52.39-7,90.05-42.08,106.35-98.83.29-1,.51-1.79.68-2.29.38-1.17.12-1.59,0-1.77-.62-1-2.53-1.81-3.87-2.18-2,.63-4.8,1.75-8.19,3.11-17.07,6.88-52.59,21.19-114.71,21.19l-3.75,0C137.84,269,102.84,253.48,97.73,251a18.15,18.15,0,0,1-2.64-1c-1.56-.63-3.9-1.6-5.42-1.6Z" transform="translate(-3.74 -3.76)"/><path class="cls-2" d="M160.87,238.61c-1.59-4.81-5.8-7.61-9.58-11.22-4.28-4.07-5.1-14.52-8.43-16.64-6.66-4.24-4.81,2.78-9.21,2.64-5.1-.17-3.86-6.68-5-11.18-2.24-8.71-6.41-10.1-12-10.35s-4.92,3.73-7.14,5.73c-3.4,3.15-6.29,1.84-12.77-1.05s-16.58-3.37-19,5.55c-2.48,9.25,2.79,10.53,7.13,11.79,4.55,1.35,11.5,4.62-.19,6.82-8.2,1.54-.47,16.38,13.64,11.67,7.44-2.49-1.21,6.32,7.07,8.51,4.18,1.08,5,.83,13.8.85,14.78,0,20.14,5.56,34.5,9.66,3.73,1.08,5.5.71,6.15-.29C164.29,249.49,161.69,241.15,160.87,238.61Z" transform="translate(-3.74 -3.76)"/></svg>