<svg id="Layer_1" data-name="Layer 1" xmlns="http://www.w3.org/2000/svg" viewBox="0 0 424.48 424.47"><defs><style>.cls-1{fill:#fff}</style></defs><path class="cls-1" d="M428.21 216c0 117.21-95 212.24-212.24 212.24S3.73 333.21 3.73 216 98.75 3.76 216 3.76 428.21 98.78 428.21 216z" transform="translate(-3.73 -3.76)"/><path d="M291.08 95.69c-11.75-5.67-14.17-7.43-14.66-11.32.5-6.29 2.81-11.92 2.81-13.69 0-5-21.48-4.36-21.48-4.36V65c0-6.86-20.35-8.29-20.35-8.29v-5.63c0-5.46-4.29-6.25-6.26-6.25h-26.5c-2 0-6.25.79-6.25 6.25v5.61S178 58.12 178 65v.81c-3.54.2-15.36 1-21.11 2.89-6.82 2.17-5.54 3.66-2.58 6.64 2.66 2.64 4.2 3.8 4.92 7.81.92 11.68 2.47 28.6 3.63 37.71 1.7 13.59 9.48 77.28 11.85 84.4s5.34 13.45 14 20.16h-6.91s-2.38-1.59-4.74 7.87-3.61 20.35-3.4 21.54-1.78 3.38-3.35 7.15-18 27.63-20.54 53.54-4.95 29.42-.42 32.76 21.8 10.66 43.91 11.7c21.7 1 41.65.29 45.49.29 22.12 0 43-8.62 47.6-12s2.19-6.9-.42-32.76S267 265.7 265.42 262s-3.78-7.4-3.57-8.59-.81-10.6-3.18-20.1-4.73-7.87-4.73-7.87H247c7-5.46 10.33-10.67 12.58-16.21v.08-.18c.13-.32.27-.68.4-1a8.49 8.49 0 017.86-5.17c4.29-.13 19.51-3.68 25.56-11.87s8.69-39.25 10.55-56.91 2.95-30.84-12.87-38.49zM290 177.1c-2.11 6.61-10.53 15.29-21.06 15.29 0 0-2.83.16-5.05-3.18 3.26-21.83 7.72-58.47 9-68.37.39-3.12.84-7.18 1.29-11.63.1-.65.2-1.38.28-2.18 0 0 .79-4.49 4.2-4.25s16.1 4 17.15 8.73-3.68 59.02-5.81 65.59z" transform="translate(-3.73 -3.76)" fill="#54b948"/><path class="cls-1" d="M146.68 93.71c-.13 0-.17 0-.37-.18-1.15-1-3-3.87-.47-8.13.07 0 .27-.32.4-.41l8.76-1.27a506.67 506.67 0 0180.7-4.29c6.64.13 12.87.44 18.55.73l8 .48 6 .46 4.4.37a114.82 114.82 0 0113.42 3.66c9.37 3 13.19 9.16 7.3 9.58.6.16-21.76-4.66-21.76-4.61l-4.6-.37c-8.31-.68-19.82-1.39-32.75-1.63-25.8-.58-57.16 1.27-79 4.3zm90.93 200.85c-.52 10.3-8 18-18.66 17.48-9.25-.46-15.45-9.13-15.88-17.72-.52-10.34 8.87-18 18.65-17.48 9.25.47 15.45 9.13 15.89 17.72.08 1.64 3.19 1.15 3.12-.24-1.32-26-39.5-25.43-40.79.24-.53 10.71 9.69 20.4 20.26 19.85 11.3-.58 20-8.62 20.53-20.09.09-1.61-3.04-1.17-3.12.24zm-34.96-49.83a4.66 4.66 0 01-4.36 4.9H185.6a4.66 4.66 0 01-4.37-4.9 4.66 4.66 0 014.37-4.9h12.69a4.66 4.66 0 014.36 4.9zm26.19 0a4.63 4.63 0 01-4.34 4.9h-12.69a4.65 4.65 0 01-4.36-4.9 4.65 4.65 0 014.36-4.9h12.69a4.63 4.63 0 014.34 4.9zm26.7 0a4.65 4.65 0 01-4.34 4.9h-12.71a4.66 4.66 0 01-4.35-4.9 4.66 4.66 0 014.35-4.9h12.71a4.65 4.65 0 014.34 4.9zm-100.07-29.05c-.13 0-.16 0-.31.17-1 1.14-2.55 4.21-.37 8.85.05 0 .23.34.33.43l7.37 1.39c18.8 3.39 45.88 5.48 68.19 4.83 5.6-.12 10.89-.45 15.67-.75l6.78-.51 5.09-.48 3.71-.4a85.13 85.13 0 0011.32-3.93c7.89-3.24 11.1-9.94 6.11-10.4.51-.16-18.36 5-18.36 5l-3.88.38c-7 .73-16.74 1.46-27.64 1.71-21.82.58-48.31-1.51-66.75-4.83z" transform="translate(-3.73 -3.76)"/></svg>