<svg id="Layer_1" data-name="Layer 1" xmlns="http://www.w3.org/2000/svg" viewBox="0 0 424.48 424.47"><defs><style>.cls-1{fill:#fff;}.cls-2{fill:#54b948;}</style></defs><path class="cls-1" d="M428.21,216c0,117.21-95,212.24-212.24,212.24S3.73,333.21,3.73,216,98.75,3.76,216,3.76,428.21,98.78,428.21,216Z" transform="translate(-3.73 -3.76)"/><path class="cls-2" d="M336.37,131.6h-233a21.8,21.8,0,0,0-21.81,21.81V289.49a21.81,21.81,0,0,0,21.81,21.82h9c0,.23-.07.46-.07.7v4.65a7.27,7.27,0,0,0,7.26,7.26h13.24a7.27,7.27,0,0,0,7.27-7.26V312c0-.24-.05-.47-.07-.7H297.93a5.35,5.35,0,0,0-.07.7v4.65a7.27,7.27,0,0,0,7.26,7.26h13.24a7.27,7.27,0,0,0,7.26-7.26V312a5.35,5.35,0,0,0-.07-.7h10.82a21.82,21.82,0,0,0,21.81-21.82V153.41A21.81,21.81,0,0,0,336.37,131.6Z" transform="translate(-3.73 -3.76)"/><rect class="cls-1" x="101.55" y="155.09" width="187.28" height="128.22"/><path class="cls-1" d="M332.87,185a12,12,0,1,1-12-12A12.05,12.05,0,0,1,332.87,185Z" transform="translate(-3.73 -3.76)"/><path class="cls-1" d="M332.87,220.35a12,12,0,1,1-12-12A12.05,12.05,0,0,1,332.87,220.35Z" transform="translate(-3.73 -3.76)"/><path class="cls-1" d="M332.87,254.83a12,12,0,1,1-12-12A12,12,0,0,1,332.87,254.83Z" transform="translate(-3.73 -3.76)"/><path class="cls-2" d="M226.35,213.34a38.79,38.79,0,0,1-29.29-12.51c-17.46-18.61-39.38-1.68-40.31-.94a4,4,0,0,1-5-6.34c9.86-7.79,33.23-17.42,51.21,1.76,17.78,19,43.54,5.5,44.63,4.91a4,4,0,0,1,3.82,7.12A59.16,59.16,0,0,1,226.35,213.34Z" transform="translate(-3.73 -3.76)"/><path class="cls-2" d="M226.35,236.56A38.77,38.77,0,0,1,197.06,224c-17.46-18.6-39.38-1.66-40.31-.93a4,4,0,0,1-5-6.34C161.6,209,185,199.33,203,218.52c17.78,19,43.54,5.51,44.63,4.92a4,4,0,0,1,3.82,7.12A59.16,59.16,0,0,1,226.35,236.56Z" transform="translate(-3.73 -3.76)"/><path class="cls-2" d="M225.68,259.78a38.77,38.77,0,0,1-29.29-12.51c-17.45-18.62-39.39-1.68-40.32-.94a4,4,0,1,1-5-6.34c9.84-7.79,33.23-17.42,51.2,1.75,17.79,19,43.54,5.52,44.63,4.92a4,4,0,0,1,3.83,7.12A59,59,0,0,1,225.68,259.78Z" transform="translate(-3.73 -3.76)"/></svg>