<svg id="Layer_1" data-name="Layer 1" xmlns="http://www.w3.org/2000/svg" viewBox="0 0 424.48 424.47"><defs><style>.cls-2{fill:#54b948}</style></defs><path d="M428.21 216c0 117.21-95 212.24-212.24 212.24S3.73 333.21 3.73 216 98.75 3.76 216 3.76 428.21 98.78 428.21 216z" transform="translate(-3.73 -3.76)" fill="#fff"/><path class="cls-2" d="M88.4 173.78v148.08a11.88 11.88 0 0011.88 11.88h231.39a11.88 11.88 0 0011.88-11.88V173.78zm202.23 116.07a21.28 21.28 0 01-21.25 21.25H162.59a21.28 21.28 0 01-21.26-21.25v-56.31a21.28 21.28 0 0121.26-21.27h106.79a21.28 21.28 0 0121.25 21.27zm3.86-88.85h-157a6.31 6.31 0 110-12.62h157a6.31 6.31 0 010 12.62z" transform="translate(-3.73 -3.76)"/><path class="cls-2" d="M269.38 222.43H162.59a11.1 11.1 0 00-11.11 11.11v56.31A11.1 11.1 0 00162.59 301h106.79a11.11 11.11 0 0011.1-11.1v-56.36a11.12 11.12 0 00-11.1-11.11zm62.29-107.05H100.28a11.89 11.89 0 00-11.88 11.89v30h255.15v-30a11.88 11.88 0 00-11.88-11.89zM168 147.17a8.89 8.89 0 118.89-8.9 8.89 8.89 0 01-8.89 8.9zm27.83 0a8.89 8.89 0 118.9-8.9 8.89 8.89 0 01-8.86 8.9zm42 0a8.89 8.89 0 118.89-8.9 8.89 8.89 0 01-8.86 8.9zm27.84 0a8.89 8.89 0 118.88-8.9 8.9 8.9 0 01-8.85 8.9z" transform="translate(-3.73 -3.76)"/></svg>