<svg id="Layer_1" data-name="Layer 1" xmlns="http://www.w3.org/2000/svg" viewBox="0 0 424.48 424.47"><defs><style>.cls-1{fill:#fff;}.cls-2{fill:#54b948;}</style></defs><path class="cls-1" d="M428.21,216c0,117.21-95,212.24-212.24,212.24S3.73,333.21,3.73,216,98.75,3.76,216,3.76,428.21,98.78,428.21,216Z" transform="translate(-3.73 -3.76)"/><path class="cls-2" d="M311.51,173.36H120.42a3.22,3.22,0,1,0,0,6.44h1.49c2.24,13.87,12.1,54.76,50.48,72.21l-37.73,100c-2.87,7.64-1,15.41,4.16,17.37s11.72-2.66,14.6-10.3l18.32-48.56h88.45l18.32,48.56c2.88,7.64,9.41,12.25,14.6,10.3s7-9.73,4.16-17.37L259,250.58c21.9-9.88,44.94-30,51-70.78h1.55a3.22,3.22,0,1,0,0-6.44ZM134.89,182.9a.94.94,0,0,1,.24-.75,1,1,0,0,1,.72-.32h17.62a1,1,0,0,1,1,.86c0,.4,4.19,33.86,23.68,54.09a50.52,50.52,0,0,0,13.14,10,1,1,0,0,1,.47,1.23,1,1,0,0,1-.9.6,1.18,1.18,0,0,1-.28,0A87.6,87.6,0,0,1,176.19,242C160.84,233.3,138.27,215.3,134.89,182.9Zm121.4,117.36H175.63l15.89-42.16a109.12,109.12,0,0,0,23.37,2A105.12,105.12,0,0,0,240,257Z" transform="translate(-3.73 -3.76)"/><path class="cls-2" d="M311.51,158.05H310c-2.59-13.35-15.21-56.62-69.71-65.51,0-.38.12-.74.12-1.11v-4.3a13,13,0,0,0-13-13h-23a13,13,0,0,0-13,13v4.3a12,12,0,0,0,.22,2.08c-25.43,5.14-62,20.26-69.73,64.69h-1.55a2.74,2.74,0,1,0,0,5.4l191.11-.16a2.74,2.74,0,1,0,0-5.4ZM217,90.89a116.41,116.41,0,0,0-18.21,1.39V90.36a9.14,9.14,0,0,1,9.13-9.13H224a9.13,9.13,0,0,1,9.13,9.13v1.27A134.45,134.45,0,0,0,217,90.89Z" transform="translate(-3.73 -3.76)"/></svg>