<svg id="Layer_1" data-name="Layer 1" xmlns="http://www.w3.org/2000/svg" viewBox="0 0 424.48 424.47"><defs><style>.cls-1{fill:#fff;}.cls-2{fill:#54b948;}</style></defs><path class="cls-1" d="M428.21,216c0,117.21-95,212.24-212.24,212.24S3.73,333.21,3.73,216,98.75,3.76,216,3.76,428.21,98.78,428.21,216Z" transform="translate(-3.73 -3.76)"/><path class="cls-2" d="M88.4,173.78V321.86a11.88,11.88,0,0,0,11.88,11.88H331.67a11.88,11.88,0,0,0,11.88-11.88V173.78ZM290.63,289.85a21.28,21.28,0,0,1-21.25,21.25H162.59a21.28,21.28,0,0,1-21.26-21.25V233.54a21.28,21.28,0,0,1,21.26-21.27H269.38a21.28,21.28,0,0,1,21.25,21.27ZM294.49,201h-157a6.31,6.31,0,1,1,0-12.62h157a6.31,6.31,0,0,1,0,12.62Z" transform="translate(-3.73 -3.76)"/><path class="cls-2" d="M269.38,222.43H162.59a11.1,11.1,0,0,0-11.11,11.11v56.31A11.1,11.1,0,0,0,162.59,301H269.38a11.11,11.11,0,0,0,11.1-11.1V233.54A11.12,11.12,0,0,0,269.38,222.43Z" transform="translate(-3.73 -3.76)"/><path class="cls-2" d="M331.67,115.38H100.28A11.89,11.89,0,0,0,88.4,127.27v30H343.55v-30A11.88,11.88,0,0,0,331.67,115.38ZM168,147.17a8.89,8.89,0,1,1,8.89-8.9A8.89,8.89,0,0,1,168,147.17Zm27.83,0a8.89,8.89,0,1,1,8.9-8.9A8.89,8.89,0,0,1,195.87,147.17Zm42,0a8.89,8.89,0,1,1,8.89-8.9A8.89,8.89,0,0,1,237.86,147.17Zm27.84,0a8.89,8.89,0,1,1,8.88-8.9A8.9,8.9,0,0,1,265.7,147.17Z" transform="translate(-3.73 -3.76)"/></svg>