<svg id="Layer_1" data-name="Layer 1" xmlns="http://www.w3.org/2000/svg" viewBox="0 0 424.47 424.49"><defs><style>.cls-1{fill:#fff;}.cls-2{fill:#54b948;}</style></defs><path class="cls-1" d="M428.21,216c0,117.22-95,212.24-212.23,212.24S3.74,333.22,3.74,216,98.76,3.76,216,3.76,428.21,98.79,428.21,216Z" transform="translate(-3.74 -3.76)"/><path class="cls-2" d="M66.07,248.17S124.18,276.54,165,312.5c29.74-12.45,73.33-29.05,184-32.16-13.84-11.42-27-23.19-27-23.19s-34.58,27-114.5,23.19S105.5,262,84.05,241.25C77.13,244.7,66.07,248.17,66.07,248.17Z" transform="translate(-3.74 -3.76)"/><path class="cls-2" d="M145.63,241.25,88.21,198.69S85.58,233.63,145.63,241.25Z" transform="translate(-3.74 -3.76)"/><path class="cls-2" d="M273.63,260.81c0,4.3-4,7.8-9,7.8s-9-3.5-9-7.8,4-7.8,9-7.8S273.63,256.5,273.63,260.81Z" transform="translate(-3.74 -3.76)"/><path class="cls-2" d="M216.9,261.62c0,4.75,7.19,8.6,16.08,8.6s16.09-3.85,16.09-8.6S241.86,253,233,253,216.9,256.86,216.9,261.62Z" transform="translate(-3.74 -3.76)"/><path class="cls-2" d="M266,144.38l-182,13.84v28.37l90.83,64.11V226.32l-74.74-53.69a3.27,3.27,0,1,1,3.82-5.3L179,221.25l169.63-19.91a3.26,3.26,0,1,1,.75,6.48l-168,19.73v25l184.92-27.88V199.73Z" transform="translate(-3.74 -3.76)"/><path class="cls-2" d="M170,338.6l-10.32-12.37c-3.07.45-5.49.33-5.79-.58-.69-2.07-12.45-4.84-13.15-9s-9-7.57-13.14-7.57-11.07-1.38-10.73-6.23-10.71-6.22-18.33-9c-5-1.8-3.44-10.1-1.79-15.63l-12.74-8V296.6l86,63Z" transform="translate(-3.74 -3.76)"/><path class="cls-2" d="M341.87,299.77c-6.47,9.41-17.73,3.74-21.89,3.05s-9,2.08-11.76,6.93-9-2.78-19.37-2.78-15.22,7.61-20.06,9.65-15.22-4.8-20.07-4.12-6.91,6.24-12.46,9-19.36-4.84-24.9-4.88-16.61,7.65-20.75,5.58-13.16-3.46-18.69,0a26.22,26.22,0,0,1-5.12,2.31l7.88,9.45,170.5-20.59a3.27,3.27,0,1,1,.79,6.49L176.57,340.3v22.41L358,332.57V312.5Z" transform="translate(-3.74 -3.76)"/><path class="cls-1" d="M202.91,76.21v94.9s2.08,7.67,7.28,5.63,6.27-8.19,6.27-8.19l-3.79-97.11Z" transform="translate(-3.74 -3.76)"/><path class="cls-2" d="M231.32,78c-4.66-9.19-17.6-12-28.93-6.25-8.08,4.09-13.06,11.43-13.6,18.64,2.13-4,5.83-6.72,10.07-6.72,6.6,0,12,6.5,12,14.53a16.28,16.28,0,0,1-3.1,9.68A27,27,0,0,0,219.24,105C230.55,99.29,236,87.21,231.32,78Z" transform="translate(-3.74 -3.76)"/><path class="cls-2" d="M210.64,55.75H208l-.54,32.39a16.7,16.7,0,0,1-.34,20.58l-1,59a3.54,3.54,0,0,0,3.39,2,3.69,3.69,0,0,0,3-2.61Z" transform="translate(-3.74 -3.76)"/><path class="cls-2" d="M206.13,98.13c0-5.4-3.89-9.77-8.68-9.77s-8.66,4.37-8.66,9.77,3.88,9.78,8.66,9.78S206.13,103.54,206.13,98.13Z" transform="translate(-3.74 -3.76)"/></svg>