<svg width="105" height="114" xmlns="http://www.w3.org/2000/svg"><path d="M20.666 33c2.228 0 4.198 1.392 4.908 3.465l16.048 47.179a15.534 15.534 0 0111.867 5.854l34.47-11.265c1.34-.443 2.81.27 3.262 1.598l1.646 4.81c.452 1.329-.29 2.753-1.63 3.196L56.799 99.1c-.178 9.145-8.59 16.344-18.309 14.65-6.361-1.09-11.495-6.296-12.48-12.53-.92-5.838 1.598-11.09 5.812-14.318L16.936 43.126H2.583c-1.42 0-2.583-1.14-2.583-2.532v-5.063C0 34.14 1.162 33 2.583 33zm20.666 58.222c-4.279 0-7.75 3.402-7.75 7.595 0 4.192 3.471 7.594 7.75 7.594 4.278 0 7.75-3.402 7.75-7.594 0-4.193-3.472-7.595-7.75-7.595zM70.183 38.87c1.34-.443 2.81.269 3.262 1.598l9.751 28.668c.452 1.313-.274 2.753-1.63 3.196L55.49 80.844a23.714 23.714 0 00-7.992-3.908l-8.557-25.22c-.452-1.313.275-2.752 1.631-3.195l9.945-3.244 5.344 15.727 9.8-3.18-5.343-15.727zM94.778 0c.703 0 1.278.577 1.278 1.281v3.844c2.508.008 4.952.865 6.91 2.402.63.489.71 1.41.143 1.962l-2.78 2.723a1.243 1.243 0 01-1.557.16 4.867 4.867 0 00-2.732-.84h-5.296a2.359 2.359 0 00-2.357 2.362 2.37 2.37 0 001.694 2.266l8.627 2.53c4.625 1.354 7.508 6.414 5.79 11.347-1.23 3.532-4.72 5.75-8.442 5.822v3.86c0 .704-.575 1.281-1.278 1.281h-2.556a1.283 1.283 0 01-1.279-1.281v-3.844a11.277 11.277 0 01-6.909-2.402c-.631-.489-.71-1.41-.144-1.962l2.78-2.723a1.243 1.243 0 011.558-.16c.798.544 1.757.84 2.731.84h5.296a2.359 2.359 0 002.357-2.362c0-1.04-.695-1.97-1.694-2.266l-8.187-2.402c-3.547-1.041-6.358-4.044-6.694-7.736-.471-5.197 3.619-9.577 8.707-9.577h.2V1.281c0-.704.575-1.281 1.278-1.281z" fill="#0EAD69"/></svg>