<?xml version="1.0" encoding="UTF-8"?>
<svg width="105px" height="114px" viewBox="0 0 105 114" version="1.1" xmlns="http://www.w3.org/2000/svg" xmlns:xlink="http://www.w3.org/1999/xlink">
    <!-- Generator: Sketch 63.1 (92452) - https://sketch.com -->
    <title>Combined Shape</title>
    <desc>Created with Sketch.</desc>
    <g id="Page-1" stroke="none" stroke-width="1" fill="none" fill-rule="evenodd">
        <g id="Home-v2" transform="translate(-668.000000, -1456.000000)" fill="#0EAD69" fill-rule="nonzero">
            <path d="M688.665891,1489 C690.893932,1489 692.86365,1490.39227 693.57404,1492.46486 L693.57404,1492.46486 L709.622396,1539.64398 C714.449819,1539.73891 718.712159,1542.01718 721.489138,1545.49786 L721.489138,1545.49786 L755.959199,1534.2331 C757.299253,1533.7901 758.768469,1534.50206 759.220535,1535.83105 L759.220535,1535.83105 L760.867348,1540.64072 C761.319415,1541.96971 760.576734,1543.39363 759.23668,1543.83663 L759.23668,1543.83663 L724.79891,1555.10139 C724.621313,1564.2461 716.209649,1571.44479 706.490222,1569.75191 C700.129003,1568.66024 694.99482,1563.45504 694.009961,1557.22144 C693.089683,1551.38339 695.608339,1546.13071 699.822243,1542.90317 L699.822243,1542.90317 L684.936344,1499.12563 L670.583236,1499.12563 C669.162456,1499.12563 668,1497.9865 668,1496.59422 L668,1496.59422 L668,1491.53141 C668,1490.13913 669.162456,1489 670.583236,1489 L670.583236,1489 Z M709.331782,1547.22238 C705.053297,1547.22238 701.582073,1550.62396 701.582073,1554.81661 C701.582073,1559.00925 705.053297,1562.41083 709.331782,1562.41083 C713.610267,1562.41083 717.081491,1559.00925 717.081491,1554.81661 C717.081491,1550.62396 713.610267,1547.22238 709.331782,1547.22238 Z M738.183304,1494.8697 C739.523358,1494.42671 740.992573,1495.13866 741.44464,1496.46765 L741.44464,1496.46765 L751.196357,1525.13585 C751.648423,1526.44902 750.921888,1527.88876 749.565689,1528.33175 L749.565689,1528.33175 L723.491147,1536.84361 C721.101653,1535.0558 718.4054,1533.72681 715.499259,1532.93575 L715.499259,1532.93575 L706.942289,1507.7166 C706.490222,1506.40343 707.216757,1504.96369 708.572957,1504.5207 L708.572957,1504.5207 L718.518417,1501.27733 L723.862487,1517.0037 L733.66264,1513.82362 L728.31857,1498.09725 Z M762.777613,1456 C763.480542,1456 764.055665,1456.57656 764.055665,1457.28125 L764.055665,1457.28125 L764.055665,1461.125 C766.563843,1461.13301 769.008118,1461.98984 770.965135,1463.52734 C771.596174,1464.01582 771.676052,1464.93672 771.108916,1465.48926 L771.108916,1465.48926 L768.329152,1468.21191 C767.913785,1468.62031 767.258784,1468.70039 766.771526,1468.37207 C765.972743,1467.82754 765.014204,1467.53125 764.039689,1467.53125 L764.039689,1467.53125 L758.74376,1467.53125 C757.441744,1467.53125 756.387351,1468.58828 756.387351,1469.89355 C756.387351,1470.93457 757.082292,1471.87148 758.080771,1472.15977 L758.080771,1472.15977 L766.707624,1474.69023 C771.332575,1476.04355 774.216181,1481.10449 772.498798,1486.0373 C771.268673,1489.56875 767.777992,1491.78691 764.055665,1491.85898 L764.055665,1491.85898 L764.055665,1495.71875 C764.055665,1496.42344 763.480542,1497 762.777613,1497 L762.777613,1497 L760.221508,1497 C759.518579,1497 758.943456,1496.42344 758.943456,1495.71875 L758.943456,1495.71875 L758.943456,1491.875 C756.435278,1491.86699 753.991003,1491.01016 752.033986,1489.47266 C751.402947,1488.98418 751.323069,1488.06328 751.890205,1487.51074 L751.890205,1487.51074 L754.669969,1484.78809 C755.085336,1484.37969 755.740337,1484.29961 756.227595,1484.62793 C757.026377,1485.17246 757.984917,1485.46875 758.959432,1485.46875 L758.959432,1485.46875 L764.255361,1485.46875 C765.557376,1485.46875 766.61177,1484.41172 766.61177,1483.10645 C766.61177,1482.06543 765.916829,1481.13652 764.91835,1480.84023 L764.91835,1480.84023 L756.730828,1478.43789 C753.184233,1477.39687 750.372518,1474.39395 750.037029,1470.70234 C749.565747,1465.50527 753.655515,1461.125 758.74376,1461.125 L758.74376,1461.125 L758.943456,1461.125 L758.943456,1457.28125 C758.943456,1456.57656 759.518579,1456 760.221508,1456 L760.221508,1456 Z" id="Combined-Shape"></path>
        </g>
    </g>
</svg>