<svg width="68" height="91" xmlns="http://www.w3.org/2000/svg"><path d="M17.199 64.452c-1.54-1.545-.737-1.11-4.449-2.106-1.684-.453-3.164-1.324-4.503-2.368L.213 79.75c-.778 1.914.675 3.994 2.732 3.916l9.33-.358 6.418 6.804c1.417 1.5 3.903 1.033 4.68-.882l9.217-22.682c-1.92 1.074-4.05 1.703-6.252 1.703a12.82 12.82 0 01-9.14-3.798zm50.588 15.297l-8.034-19.77c-1.339 1.045-2.82 1.914-4.503 2.367-3.731 1.002-2.913.565-4.449 2.106a12.823 12.823 0 01-9.14 3.798c-2.203 0-4.334-.63-6.253-1.703l9.217 22.682c.777 1.915 3.265 2.382 4.68.882l6.42-6.804 9.33.358c2.057.078 3.51-2.003 2.732-3.916zM46.573 60.43c2.706-2.763 3.015-2.525 6.869-3.579 2.46-.673 4.383-2.637 5.041-5.15 1.325-5.048.981-4.438 4.596-8.131 1.8-1.84 2.503-4.522 1.845-7.035-1.323-5.044-1.325-4.34 0-9.39.658-2.513-.045-5.195-1.845-7.034-3.615-3.693-3.271-3.086-4.596-8.131-.658-2.513-2.582-4.477-5.041-5.15-4.937-1.353-4.342-1-7.96-4.695A7.029 7.029 0 0038.595.248c-4.935 1.351-4.246 1.353-9.19 0a7.025 7.025 0 00-6.887 1.886c-3.614 3.693-3.02 3.342-7.958 4.694-2.46.674-4.383 2.638-5.042 5.15-1.322 5.046-.98 4.439-4.595 8.132a7.387 7.387 0 00-1.845 7.034c1.323 5.04 1.325 4.337 0 9.388a7.396 7.396 0 001.845 7.037c3.614 3.693 3.27 3.083 4.595 8.13.66 2.514 2.582 4.478 5.042 5.151 3.963 1.085 4.259.914 6.867 3.58a7.019 7.019 0 008.808 1.034 7.004 7.004 0 017.532 0 7.016 7.016 0 008.806-1.034zM17.294 31.276c0-9.425 7.48-17.066 16.706-17.066 9.226 0 16.706 7.64 16.706 17.066 0 9.425-7.48 17.066-16.706 17.066-9.226 0-16.706-7.641-16.706-17.066z" fill="#0EAD69"/></svg>